Bailey-Bold.ufo
<glyph name="exclam" format="2">
  <advance width="429"/>
  <unicode hex="0021"/>
  <outline>
    <contour>
      <point x="295" y="252" type="curve" smooth="yes"/>
      <point x="216" y="252"/>
      <point x="149" y="198"/>
      <point x="149" y="114" type="curve" smooth="yes"/>
      <point x="149" y="31"/>
      <point x="211" y="-33"/>
      <point x="295" y="-33" type="curve" smooth="yes"/>
      <point x="377" y="-33"/>
      <point x="435" y="35"/>
      <point x="435" y="114" type="curve" smooth="yes"/>
      <point x="435" y="189"/>
      <point x="368" y="252"/>
    </contour>
    <contour>
      <point x="294" y="1229" type="curve" smooth="yes"/>
      <point x="237" y="1229"/>
      <point x="148" y="1177"/>
      <point x="157" y="1057" type="curve"/>
      <point x="226" y="368" type="line"/>
      <point x="353" y="368" type="line"/>
      <point x="425" y="1051" type="line"/>
      <point x="434" y="1227"/>
      <point x="296" y="1229"/>
    </contour>
  </outline>
</glyph>
<glyph name="quotedbl" format="2">
  <advance width="446"/>
  <unicode hex="0022"/>
  <outline>
    <contour>
      <point x="522" y="1246" type="curve" smooth="yes"/>
      <point x="471" y="1246"/>
      <point x="422" y="1213"/>
      <point x="422" y="1157" type="curve" smooth="yes"/>
      <point x="422" y="1109"/>
      <point x="422" y="1109"/>
      <point x="485" y="794" type="curve"/>
      <point x="558" y="794" type="line"/>
      <point x="563" y="819"/>
      <point x="568" y="848"/>
      <point x="576" y="880" type="curve" smooth="yes"/>
      <point x="595" y="967"/>
      <point x="620" y="1090"/>
      <point x="620" y="1159" type="curve" smooth="yes"/>
      <point x="620" y="1228"/>
      <point x="557" y="1246"/>
    </contour>
    <contour>
      <point x="212" y="1246" type="curve" smooth="yes"/>
      <point x="176" y="1246"/>
      <point x="112" y="1228"/>
      <point x="112" y="1157" type="curve" smooth="yes"/>
      <point x="112" y="1079"/>
      <point x="154" y="884"/>
      <point x="175" y="794" type="curve"/>
      <point x="248" y="794" type="line"/>
      <point x="253" y="819"/>
      <point x="258" y="848"/>
      <point x="265" y="880" type="curve" smooth="yes"/>
      <point x="296" y="1026"/>
      <point x="310" y="1093"/>
      <point x="310" y="1159" type="curve" smooth="yes"/>
      <point x="310" y="1220"/>
      <point x="256" y="1246"/>
    </contour>
  </outline>
</glyph>
<glyph name="numbersign" format="2">
  <advance width="1085"/>
  <unicode hex="0023"/>
  <outline>
    <contour>
      <point x="663" y="465" type="line"/>
      <point x="489" y="465" type="line"/>
      <point x="554" y="770" type="line"/>
      <point x="728" y="770" type="line"/>
    </contour>
    <contour>
      <point x="1085" y="913" type="line"/>
      <point x="937" y="913" type="line"/>
      <point x="1003" y="1206" type="line"/>
      <point x="823" y="1206" type="line"/>
      <point x="757" y="913" type="line"/>
      <point x="583" y="913" type="line"/>
      <point x="648" y="1206" type="line"/>
      <point x="468" y="1206" type="line"/>
      <point x="403" y="913" type="line"/>
      <point x="218" y="913" type="line"/>
      <point x="218" y="770" type="line"/>
      <point x="374" y="770" type="line"/>
      <point x="308" y="465" type="line"/>
      <point x="134" y="465" type="line"/>
      <point x="134" y="322" type="line"/>
      <point x="278" y="322" type="line"/>
      <point x="210" y="0" type="line"/>
      <point x="390" y="0" type="line"/>
      <point x="458" y="322" type="line"/>
      <point x="634" y="322" type="line"/>
      <point x="564" y="0" type="line"/>
      <point x="745" y="0" type="line"/>
      <point x="812" y="322" type="line"/>
      <point x="1001" y="322" type="line"/>
      <point x="1001" y="465" type="line"/>
      <point x="843" y="465" type="line"/>
      <point x="909" y="770" type="line"/>
      <point x="1085" y="770" type="line"/>
    </contour>
  </outline>
</glyph>
<glyph name="dollar" format="2">
  <advance width="928"/>
  <unicode hex="0024"/>
  <outline>
    <contour>
      <point x="613" y="129" type="curve"/>
      <point x="613" y="435" type="line"/>
      <point x="700" y="402"/>
      <point x="722" y="354"/>
      <point x="722" y="291" type="curve" smooth="yes"/>
      <point x="722" y="211"/>
      <point x="669" y="155"/>
    </contour>
    <contour>
      <point x="458" y="997" type="curve"/>
      <point x="458" y="746" type="line"/>
      <point x="391" y="773"/>
      <point x="356" y="791"/>
      <point x="356" y="857" type="curve" smooth="yes"/>
      <point x="356" y="948"/>
      <point x="435" y="987"/>
    </contour>
    <contour>
      <point x="611" y="696" type="curve"/>
      <point x="611" y="787"/>
      <point x="613" y="917"/>
      <point x="613" y="1008" type="curve"/>
      <point x="684" y="993"/>
      <point x="751" y="940"/>
      <point x="815" y="849" type="curve"/>
      <point x="918" y="976" type="line"/>
      <point x="823" y="1079"/>
      <point x="722" y="1137"/>
      <point x="613" y="1150" type="curve"/>
      <point x="613" y="1206" type="line"/>
      <point x="458" y="1206" type="line"/>
      <point x="458" y="1146" type="line"/>
      <point x="300" y="1120"/>
      <point x="149" y="1016"/>
      <point x="149" y="807" type="curve" smooth="yes"/>
      <point x="149" y="632"/>
      <point x="254" y="521"/>
      <point x="463" y="473" type="curve"/>
      <point x="463" y="368"/>
      <point x="458" y="219"/>
      <point x="458" y="114" type="curve"/>
      <point x="374" y="131"/>
      <point x="298" y="206"/>
      <point x="229" y="337" type="curve"/>
      <point x="126" y="177" type="line"/>
      <point x="219" y="59"/>
      <point x="329" y="-7"/>
      <point x="458" y="-21" type="curve"/>
      <point x="458" y="-81" type="line"/>
      <point x="613" y="-81" type="line"/>
      <point x="613" y="-21" type="line"/>
      <point x="804" y="7"/>
      <point x="928" y="154"/>
      <point x="928" y="346" type="curve" smooth="yes"/>
      <point x="928" y="528"/>
      <point x="835" y="629"/>
    </contour>
  </outline>
</glyph>
<glyph name="percent" format="2">
  <advance width="1076"/>
  <unicode hex="0025"/>
  <outline>
    <contour>
      <point x="848" y="92" type="curve" smooth="yes"/>
      <point x="765" y="92"/>
      <point x="753" y="193"/>
      <point x="753" y="254" type="curve" smooth="yes"/>
      <point x="753" y="288"/>
      <point x="759" y="396"/>
      <point x="842" y="396" type="curve" smooth="yes"/>
      <point x="925" y="396"/>
      <point x="937" y="295"/>
      <point x="937" y="234" type="curve" smooth="yes"/>
      <point x="937" y="204"/>
      <point x="931" y="92"/>
    </contour>
    <contour>
      <point x="845" y="493" type="curve" smooth="yes"/>
      <point x="612" y="493"/>
      <point x="606" y="268"/>
      <point x="606" y="244" type="curve" smooth="yes"/>
      <point x="606" y="103"/>
      <point x="693" y="-4"/>
      <point x="845" y="-4" type="curve" smooth="yes"/>
      <point x="1078" y="-4"/>
      <point x="1084" y="223"/>
      <point x="1084" y="244" type="curve" smooth="yes"/>
      <point x="1084" y="384"/>
      <point x="998" y="493"/>
    </contour>
    <contour>
      <point x="898" y="1107" type="line"/>
      <point x="198" y="-2" type="line"/>
      <point x="319" y="-2" type="line"/>
      <point x="1019" y="1107" type="line"/>
    </contour>
    <contour>
      <point x="398" y="722" type="curve" smooth="yes"/>
      <point x="315" y="722"/>
      <point x="303" y="823"/>
      <point x="303" y="884" type="curve" smooth="yes"/>
      <point x="303" y="918"/>
      <point x="309" y="1026"/>
      <point x="392" y="1026" type="curve" smooth="yes"/>
      <point x="475" y="1026"/>
      <point x="487" y="925"/>
      <point x="487" y="864" type="curve" smooth="yes"/>
      <point x="487" y="834"/>
      <point x="481" y="722"/>
    </contour>
    <contour>
      <point x="395" y="1123" type="curve" smooth="yes"/>
      <point x="162" y="1123"/>
      <point x="156" y="898"/>
      <point x="156" y="874" type="curve" smooth="yes"/>
      <point x="156" y="734"/>
      <point x="242" y="625"/>
      <point x="395" y="625" type="curve" smooth="yes"/>
      <point x="629" y="625"/>
      <point x="634" y="854"/>
      <point x="634" y="874" type="curve" smooth="yes"/>
      <point x="634" y="1014"/>
      <point x="548" y="1123"/>
    </contour>
  </outline>
</glyph>
<glyph name="ampersand" format="2">
  <advance width="1320"/>
  <unicode hex="0026"/>
  <outline>
    <contour>
      <point x="370" y="345" type="curve" smooth="yes"/>
      <point x="370" y="437"/>
      <point x="405" y="514"/>
      <point x="474" y="576" type="curve"/>
      <point x="534" y="466"/>
      <point x="617" y="349"/>
      <point x="724" y="226" type="curve"/>
      <point x="690" y="187"/>
      <point x="616" y="130"/>
      <point x="545" y="130" type="curve" smooth="yes"/>
      <point x="423" y="130"/>
      <point x="370" y="253"/>
    </contour>
    <contour>
      <point x="614" y="796" type="curve"/>
      <point x="585" y="863"/>
      <point x="571" y="924"/>
      <point x="571" y="981" type="curve" smooth="yes"/>
      <point x="571" y="1025"/>
      <point x="581" y="1102"/>
      <point x="649" y="1102" type="curve" smooth="yes"/>
      <point x="718" y="1102"/>
      <point x="746" y="1036"/>
      <point x="746" y="985" type="curve" smooth="yes"/>
      <point x="746" y="940"/>
      <point x="737" y="880"/>
    </contour>
    <contour>
      <point x="959" y="283" type="curve"/>
      <point x="1050" y="390"/>
      <point x="1111" y="483"/>
      <point x="1142" y="564" type="curve"/>
      <point x="1022" y="661" type="line"/>
      <point x="973" y="542"/>
      <point x="923" y="450"/>
      <point x="874" y="386" type="curve"/>
      <point x="824" y="458"/>
      <point x="715" y="585"/>
      <point x="667" y="681" type="curve"/>
      <point x="842" y="786"/>
      <point x="898" y="879"/>
      <point x="898" y="991" type="curve" smooth="yes"/>
      <point x="898" y="1140"/>
      <point x="798" y="1231"/>
      <point x="653" y="1231" type="curve" smooth="yes"/>
      <point x="566" y="1231"/>
      <point x="496" y="1203"/>
      <point x="443" y="1146" type="curve" smooth="yes"/>
      <point x="390" y="1089"/>
      <point x="364" y="1017"/>
      <point x="364" y="929" type="curve" smooth="yes"/>
      <point x="364" y="857"/>
      <point x="383" y="778"/>
      <point x="421" y="693" type="curve"/>
      <point x="221" y="552"/>
      <point x="159" y="435"/>
      <point x="159" y="299" type="curve" smooth="yes"/>
      <point x="159" y="128"/>
      <point x="278" y="-15"/>
      <point x="460" y="-15" type="curve" smooth="yes"/>
      <point x="580" y="-15"/>
      <point x="696" y="32"/>
      <point x="809" y="126" type="curve"/>
      <point x="885" y="32"/>
      <point x="980" y="-15"/>
      <point x="1093" y="-15" type="curve" smooth="yes"/>
      <point x="1188" y="-15"/>
      <point x="1270" y="16"/>
      <point x="1337" y="77" type="curve"/>
      <point x="1272" y="196" type="line"/>
      <point x="1241" y="149"/>
      <point x="1206" y="126"/>
      <point x="1168" y="126" type="curve" smooth="yes"/>
      <point x="1081" y="126"/>
      <point x="1033" y="179"/>
    </contour>
  </outline>
</glyph>
<glyph name="quotesingle" format="2">
  <advance width="449"/>
  <unicode hex="0027"/>
  <outline>
    <contour>
      <point x="157" y="1246" type="curve" smooth="yes"/>
      <point x="103" y="1246"/>
      <point x="58" y="1210"/>
      <point x="58" y="1157" type="curve" smooth="yes"/>
      <point x="58" y="1092"/>
      <point x="84" y="955"/>
      <point x="121" y="794" type="curve"/>
      <point x="192" y="794" type="line"/>
      <point x="255" y="1078"/>
      <point x="255" y="1078"/>
      <point x="255" y="1159" type="curve" smooth="yes"/>
      <point x="255" y="1220"/>
      <point x="201" y="1246"/>
    </contour>
  </outline>
</glyph>
<glyph name="parenleft" format="2">
  <advance width="615"/>
  <unicode hex="0028"/>
  <outline>
    <contour>
      <point x="406" y="427" type="curve" smooth="yes"/>
      <point x="406" y="803"/>
      <point x="598" y="1044"/>
      <point x="698" y="1144" type="curve"/>
      <point x="621" y="1236" type="line"/>
      <point x="203" y="988"/>
      <point x="168" y="562"/>
      <point x="168" y="427" type="curve" smooth="yes"/>
      <point x="168" y="108"/>
      <point x="322" y="-204"/>
      <point x="621" y="-381" type="curve"/>
      <point x="698" y="-289" type="line"/>
      <point x="437" y="-26"/>
      <point x="406" y="292"/>
    </contour>
  </outline>
</glyph>
<glyph name="parenright" format="2">
  <advance width="615"/>
  <unicode hex="0029"/>
  <outline>
    <contour>
      <point x="380" y="427" type="curve" smooth="yes"/>
      <point x="380" y="50"/>
      <point x="182" y="-195"/>
      <point x="88" y="-289" type="curve"/>
      <point x="165" y="-381" type="line"/>
      <point x="584" y="-132"/>
      <point x="618" y="295"/>
      <point x="618" y="427" type="curve" smooth="yes"/>
      <point x="618" y="594"/>
      <point x="578" y="750"/>
      <point x="498" y="894" type="curve" smooth="yes"/>
      <point x="419" y="1037"/>
      <point x="308" y="1151"/>
      <point x="165" y="1236" type="curve"/>
      <point x="88" y="1144" type="line"/>
      <point x="346" y="886"/>
      <point x="380" y="573"/>
    </contour>
  </outline>
</glyph>
<glyph name="asterisk" format="2">
  <advance width="764"/>
  <unicode hex="002A"/>
  <outline>
    <contour>
      <point x="682" y="1074" type="curve" smooth="yes"/>
      <point x="647" y="1074"/>
      <point x="597" y="1034"/>
      <point x="584" y="1022" type="curve" smooth="yes"/>
      <point x="563" y="1003"/>
      <point x="508" y="951"/>
      <point x="501" y="945" type="curve"/>
      <point x="505" y="964"/>
      <point x="542" y="1104"/>
      <point x="542" y="1131" type="curve" smooth="yes"/>
      <point x="542" y="1206"/>
      <point x="464" y="1209"/>
      <point x="452" y="1209" type="curve" smooth="yes"/>
      <point x="406" y="1209"/>
      <point x="362" y="1186"/>
      <point x="362" y="1127" type="curve" smooth="yes"/>
      <point x="362" y="1074"/>
      <point x="395" y="982"/>
      <point x="403" y="943" type="curve"/>
      <point x="357" y="986" type="line" smooth="yes"/>
      <point x="272" y="1065"/>
      <point x="241" y="1074"/>
      <point x="221" y="1074" type="curve" smooth="yes"/>
      <point x="170" y="1074"/>
      <point x="131" y="1023"/>
      <point x="131" y="975" type="curve" smooth="yes"/>
      <point x="131" y="936"/>
      <point x="168" y="915"/>
      <point x="194" y="904" type="curve" smooth="yes"/>
      <point x="275" y="873"/>
      <point x="329" y="868"/>
      <point x="354" y="861" type="curve"/>
      <point x="205" y="814" type="line" smooth="yes"/>
      <point x="144" y="796"/>
      <point x="139" y="748"/>
      <point x="139" y="732" type="curve" smooth="yes"/>
      <point x="139" y="683"/>
      <point x="176" y="642"/>
      <point x="225" y="642" type="curve" smooth="yes"/>
      <point x="270" y="642"/>
      <point x="319" y="687"/>
      <point x="324" y="692" type="curve" smooth="yes"/>
      <point x="354" y="721"/>
      <point x="387" y="759"/>
      <point x="405" y="777" type="curve"/>
      <point x="362" y="616"/>
      <point x="362" y="616"/>
      <point x="362" y="592" type="curve" smooth="yes"/>
      <point x="362" y="540"/>
      <point x="407" y="511"/>
      <point x="452" y="511" type="curve" smooth="yes"/>
      <point x="503" y="511"/>
      <point x="542" y="545"/>
      <point x="542" y="597" type="curve" smooth="yes"/>
      <point x="542" y="614"/>
      <point x="540" y="632"/>
      <point x="536" y="652" type="curve" smooth="yes"/>
      <point x="525" y="700"/>
      <point x="507" y="749"/>
      <point x="501" y="775" type="curve"/>
      <point x="637" y="639"/>
      <point x="666" y="639"/>
      <point x="683" y="639" type="curve" smooth="yes"/>
      <point x="735" y="639"/>
      <point x="771" y="693"/>
      <point x="771" y="739" type="curve" smooth="yes"/>
      <point x="771" y="767"/>
      <point x="756" y="790"/>
      <point x="727" y="807" type="curve" smooth="yes"/>
      <point x="703" y="819"/>
      <point x="549" y="860"/>
      <point x="547" y="861" type="curve"/>
      <point x="704" y="906" type="line" smooth="yes"/>
      <point x="747" y="918"/>
      <point x="768" y="943"/>
      <point x="768" y="982" type="curve" smooth="yes"/>
      <point x="768" y="1027"/>
      <point x="731" y="1074"/>
    </contour>
  </outline>
</glyph>
<glyph name="plus" format="2">
  <advance width="1081"/>
  <unicode hex="002B"/>
  <outline>
    <contour>
      <point x="1080" y="543" type="line"/>
      <point x="750" y="543" type="line"/>
      <point x="750" y="864" type="line"/>
      <point x="502" y="864" type="line"/>
      <point x="502" y="543" type="line"/>
      <point x="164" y="543" type="line"/>
      <point x="164" y="356" type="line"/>
      <point x="502" y="356" type="line"/>
      <point x="502" y="26" type="line"/>
      <point x="750" y="26" type="line"/>
      <point x="750" y="356" type="line"/>
      <point x="1080" y="356" type="line"/>
    </contour>
  </outline>
</glyph>
<glyph name="comma" format="2">
  <advance width="467"/>
  <unicode hex="002C"/>
  <outline>
    <contour>
      <point x="304" y="259" type="curve" smooth="yes"/>
      <point x="217" y="259"/>
      <point x="146" y="196"/>
      <point x="146" y="105" type="curve" smooth="yes"/>
      <point x="146" y="27"/>
      <point x="194" y="-54"/>
      <point x="288" y="-55" type="curve"/>
      <point x="288" y="-114"/>
      <point x="190" y="-201"/>
      <point x="169" y="-219" type="curve"/>
      <point x="263" y="-307" type="line"/>
      <point x="382" y="-228"/>
      <point x="464" y="-66"/>
      <point x="464" y="71" type="curve" smooth="yes"/>
      <point x="464" y="244"/>
      <point x="344" y="259"/>
    </contour>
  </outline>
</glyph>
<glyph name="hyphen" format="2">
  <advance width="849"/>
  <unicode hex="002D"/>
  <outline>
    <contour>
      <point x="845" y="445" type="line"/>
      <point x="154" y="445" type="line"/>
      <point x="154" y="264" type="line"/>
      <point x="845" y="264" type="line"/>
    </contour>
  </outline>
</glyph>
<glyph name="period" format="2">
  <advance width="475"/>
  <unicode hex="002E"/>
  <outline>
    <contour>
      <point x="308" y="289" type="curve" smooth="yes"/>
      <point x="223" y="289"/>
      <point x="146" y="229"/>
      <point x="146" y="135" type="curve" smooth="yes"/>
      <point x="146" y="45"/>
      <point x="214" y="-27"/>
      <point x="308" y="-27" type="curve" smooth="yes"/>
      <point x="400" y="-27"/>
      <point x="464" y="49"/>
      <point x="464" y="135" type="curve" smooth="yes"/>
      <point x="464" y="217"/>
      <point x="392" y="289"/>
    </contour>
  </outline>
</glyph>
<glyph name="slash" format="2">
  <advance width="723"/>
  <unicode hex="002F"/>
  <outline>
    <contour>
      <point x="618" y="1207" type="line"/>
      <point x="116" y="-363" type="line"/>
      <point x="282" y="-363" type="line"/>
      <point x="782" y="1207" type="line"/>
    </contour>
  </outline>
</glyph>
<glyph name="zero" format="2">
  <advance width="1005"/>
  <unicode hex="0030"/>
  <outline>
    <contour>
      <point x="588" y="112" type="curve" smooth="yes"/>
      <point x="464" y="112"/>
      <point x="402" y="246"/>
      <point x="402" y="515" type="curve" smooth="yes"/>
      <point x="402" y="838"/>
      <point x="475" y="999"/>
      <point x="620" y="999" type="curve" smooth="yes"/>
      <point x="742" y="999"/>
      <point x="803" y="868"/>
      <point x="803" y="607" type="curve" smooth="yes"/>
      <point x="803" y="431"/>
      <point x="791" y="112"/>
    </contour>
    <contour>
      <point x="604" y="1132" type="curve" smooth="yes"/>
      <point x="280" y="1132"/>
      <point x="174" y="831"/>
      <point x="174" y="559" type="curve" smooth="yes"/>
      <point x="174" y="280"/>
      <point x="285" y="-19"/>
      <point x="604" y="-19" type="curve" smooth="yes"/>
      <point x="913" y="-19"/>
      <point x="1031" y="265"/>
      <point x="1031" y="558" type="curve" smooth="yes"/>
      <point x="1031" y="869"/>
      <point x="901" y="1132"/>
    </contour>
  </outline>
</glyph>
<glyph name="one" format="2">
  <advance width="525"/>
  <unicode hex="0031"/>
  <outline>
    <contour>
      <point x="523" y="1" type="line"/>
      <point x="504" y="208"/>
      <point x="494" y="391"/>
      <point x="494" y="550" type="curve" smooth="yes"/>
      <point x="494" y="711"/>
      <point x="504" y="898"/>
      <point x="523" y="1111" type="curve"/>
      <point x="322" y="1111" type="line"/>
      <point x="264" y="1048"/>
      <point x="200" y="994"/>
      <point x="129" y="949" type="curve"/>
      <point x="129" y="780" type="line"/>
      <point x="272" y="856" type="line"/>
      <point x="272" y="1" type="line"/>
    </contour>
  </outline>
</glyph>
<glyph name="two" format="2">
  <advance width="948"/>
  <unicode hex="0032"/>
  <outline>
    <contour>
      <point x="538" y="1134" type="curve" smooth="yes"/>
      <point x="444" y="1134"/>
      <point x="305" y="1115"/>
      <point x="153" y="904" type="curve"/>
      <point x="211" y="778" type="line"/>
      <point x="256" y="840"/>
      <point x="341" y="959"/>
      <point x="491" y="959" type="curve" smooth="yes"/>
      <point x="676" y="959"/>
      <point x="702" y="825"/>
      <point x="702" y="750" type="curve" smooth="yes"/>
      <point x="702" y="370"/>
      <point x="155" y="579"/>
      <point x="155" y="47" type="curve" smooth="yes"/>
      <point x="155" y="-12" type="line"/>
      <point x="285" y="-4"/>
      <point x="415" y="0"/>
      <point x="546" y="0" type="curve" smooth="yes"/>
      <point x="661" y="0"/>
      <point x="794" y="-4"/>
      <point x="946" y="-12" type="curve"/>
      <point x="946" y="141" type="line"/>
      <point x="430" y="141" type="line"/>
      <point x="443" y="473"/>
      <point x="954" y="303"/>
      <point x="954" y="748" type="curve" smooth="yes"/>
      <point x="954" y="971"/>
      <point x="771" y="1134"/>
    </contour>
  </outline>
</glyph>
<glyph name="three" format="2">
  <advance width="940"/>
  <unicode hex="0033"/>
  <outline>
    <contour>
      <point x="783" y="592" type="curve"/>
      <point x="916" y="675"/>
      <point x="927" y="781"/>
      <point x="927" y="815" type="curve" smooth="yes"/>
      <point x="927" y="1029"/>
      <point x="709" y="1130"/>
      <point x="528" y="1130" type="curve" smooth="yes"/>
      <point x="401" y="1130"/>
      <point x="249" y="1082"/>
      <point x="149" y="961" type="curve"/>
      <point x="229" y="871" type="line"/>
      <point x="277" y="952"/>
      <point x="368" y="991"/>
      <point x="450" y="991" type="curve" smooth="yes"/>
      <point x="540" y="991"/>
      <point x="674" y="939"/>
      <point x="674" y="815" type="curve" smooth="yes"/>
      <point x="674" y="721"/>
      <point x="577" y="661"/>
      <point x="445" y="661" type="curve" smooth="yes"/>
      <point x="313" y="661" type="line"/>
      <point x="313" y="512" type="line"/>
      <point x="343" y="512"/>
      <point x="374" y="513"/>
      <point x="407" y="514" type="curve" smooth="yes"/>
      <point x="483" y="518"/>
      <point x="672" y="510"/>
      <point x="672" y="324" type="curve" smooth="yes"/>
      <point x="672" y="188"/>
      <point x="575" y="119"/>
      <point x="456" y="119" type="curve" smooth="yes"/>
      <point x="370" y="119"/>
      <point x="264" y="157"/>
      <point x="206" y="248" type="curve"/>
      <point x="119" y="126" type="line"/>
      <point x="248" y="-7"/>
      <point x="433" y="-22"/>
      <point x="511" y="-22" type="curve" smooth="yes"/>
      <point x="713" y="-22"/>
      <point x="941" y="80"/>
      <point x="941" y="340" type="curve" smooth="yes"/>
      <point x="941" y="487"/>
      <point x="815" y="573"/>
    </contour>
  </outline>
</glyph>
<glyph name="four" format="2">
  <advance width="1082"/>
  <unicode hex="0034"/>
  <outline>
    <contour>
      <point x="359" y="410" type="line"/>
      <point x="688" y="820" type="line"/>
      <point x="688" y="410" type="line"/>
    </contour>
    <contour>
      <point x="1076" y="410" type="line"/>
      <point x="920" y="410" type="line"/>
      <point x="919" y="451"/>
      <point x="919" y="512"/>
      <point x="919" y="594" type="curve" smooth="yes"/>
      <point x="919" y="731"/>
      <point x="925" y="902"/>
      <point x="937" y="1109" type="curve"/>
      <point x="729" y="1109" type="line"/>
      <point x="645" y="1000"/>
      <point x="540" y="826"/>
      <point x="451" y="719" type="curve" smooth="yes"/>
      <point x="394" y="651"/>
      <point x="140" y="377"/>
      <point x="137" y="374" type="curve"/>
      <point x="137" y="229" type="line"/>
      <point x="688" y="229" type="line"/>
      <point x="688" y="0" type="line"/>
      <point x="937" y="0" type="line"/>
      <point x="932" y="78"/>
      <point x="928" y="155"/>
      <point x="925" y="230" type="curve"/>
      <point x="1076" y="230" type="line"/>
    </contour>
  </outline>
</glyph>
<glyph name="five" format="2">
  <advance width="1025"/>
  <unicode hex="0035"/>
  <outline>
    <contour>
      <point x="574" y="751" type="curve" smooth="yes"/>
      <point x="501" y="751"/>
      <point x="428" y="737"/>
      <point x="355" y="709" type="curve"/>
      <point x="387" y="912" type="line"/>
      <point x="1006" y="912" type="line"/>
      <point x="1006" y="1115" type="line"/>
      <point x="875" y="1103"/>
      <point x="744" y="1097"/>
      <point x="612" y="1097" type="curve" smooth="yes"/>
      <point x="485" y="1097"/>
      <point x="357" y="1103"/>
      <point x="230" y="1115" type="curve"/>
      <point x="177" y="571" type="line"/>
      <point x="292" y="519" type="line"/>
      <point x="356" y="578"/>
      <point x="427" y="607"/>
      <point x="505" y="607" type="curve" smooth="yes"/>
      <point x="656" y="607"/>
      <point x="766" y="487"/>
      <point x="766" y="341" type="curve" smooth="yes"/>
      <point x="766" y="130"/>
      <point x="550" y="122"/>
      <point x="518" y="122" type="curve" smooth="yes"/>
      <point x="364" y="122"/>
      <point x="249" y="213"/>
      <point x="198" y="261" type="curve"/>
      <point x="126" y="134" type="line"/>
      <point x="273" y="-4"/>
      <point x="462" y="-22"/>
      <point x="549" y="-22" type="curve" smooth="yes"/>
      <point x="774" y="-22"/>
      <point x="1028" y="94"/>
      <point x="1028" y="361" type="curve" smooth="yes"/>
      <point x="1028" y="619"/>
      <point x="789" y="751"/>
    </contour>
  </outline>
</glyph>
<glyph name="six" format="2">
  <advance width="1071"/>
  <unicode hex="0036"/>
  <outline>
    <contour>
      <point x="637" y="103" type="curve" smooth="yes"/>
      <point x="412" y="103"/>
      <point x="401" y="420"/>
      <point x="401" y="480" type="curve" smooth="yes"/>
      <point x="401" y="509"/>
      <point x="402" y="535"/>
      <point x="405" y="558" type="curve"/>
      <point x="466" y="595"/>
      <point x="527" y="614"/>
      <point x="590" y="614" type="curve" smooth="yes"/>
      <point x="815" y="614"/>
      <point x="825" y="398"/>
      <point x="825" y="358" type="curve" smooth="yes"/>
      <point x="825" y="213"/>
      <point x="750" y="103"/>
    </contour>
    <contour>
      <point x="636" y="737" type="curve" smooth="yes"/>
      <point x="559" y="737"/>
      <point x="487" y="724"/>
      <point x="421" y="699" type="curve"/>
      <point x="481" y="976"/>
      <point x="766" y="993"/>
      <point x="835" y="993" type="curve" smooth="yes"/>
      <point x="866" y="993"/>
      <point x="906" y="989"/>
      <point x="955" y="982" type="curve"/>
      <point x="986" y="1110" type="line"/>
      <point x="917" y="1123"/>
      <point x="857" y="1129"/>
      <point x="806" y="1129" type="curve" smooth="yes"/>
      <point x="419" y="1129"/>
      <point x="154" y="874"/>
      <point x="154" y="510" type="curve" smooth="yes"/>
      <point x="154" y="228"/>
      <point x="330" y="-22"/>
      <point x="644" y="-22" type="curve" smooth="yes"/>
      <point x="886" y="-22"/>
      <point x="1067" y="139"/>
      <point x="1067" y="364" type="curve" smooth="yes"/>
      <point x="1067" y="632"/>
      <point x="837" y="737"/>
    </contour>
  </outline>
</glyph>
<glyph name="seven" format="2">
  <advance width="847"/>
  <unicode hex="0037"/>
  <outline>
    <contour>
      <point x="869" y="1116" type="line"/>
      <point x="727" y="1103"/>
      <point x="599" y="1096"/>
      <point x="485" y="1096" type="curve" smooth="yes"/>
      <point x="372" y="1096"/>
      <point x="250" y="1103"/>
      <point x="119" y="1117" type="curve"/>
      <point x="119" y="953" type="line"/>
      <point x="630" y="953" type="line"/>
      <point x="200" y="1" type="line"/>
      <point x="431" y="1" type="line"/>
      <point x="548" y="349"/>
      <point x="694" y="678"/>
      <point x="869" y="989" type="curve"/>
    </contour>
  </outline>
</glyph>
<glyph name="eight" format="2">
  <advance width="998"/>
  <unicode hex="0038"/>
  <outline>
    <contour>
      <point x="571" y="115" type="curve" smooth="yes"/>
      <point x="470" y="115"/>
      <point x="388" y="196"/>
      <point x="388" y="297" type="curve" smooth="yes"/>
      <point x="388" y="399"/>
      <point x="471" y="478"/>
      <point x="571" y="478" type="curve" smooth="yes"/>
      <point x="671" y="478"/>
      <point x="755" y="399"/>
      <point x="755" y="297" type="curve" smooth="yes"/>
      <point x="755" y="195"/>
      <point x="671" y="115"/>
    </contour>
    <contour>
      <point x="569" y="635" type="curve" smooth="yes"/>
      <point x="472" y="635"/>
      <point x="390" y="713"/>
      <point x="390" y="814" type="curve" smooth="yes"/>
      <point x="390" y="914"/>
      <point x="469" y="993"/>
      <point x="569" y="993" type="curve" smooth="yes"/>
      <point x="668" y="993"/>
      <point x="749" y="914"/>
      <point x="749" y="814" type="curve" smooth="yes"/>
      <point x="749" y="714"/>
      <point x="668" y="635"/>
    </contour>
    <contour>
      <point x="824" y="559" type="curve"/>
      <point x="921" y="620"/>
      <point x="970" y="707"/>
      <point x="970" y="818" type="curve" smooth="yes"/>
      <point x="970" y="1040"/>
      <point x="744" y="1133"/>
      <point x="568" y="1133" type="curve" smooth="yes"/>
      <point x="393" y="1133"/>
      <point x="169" y="1041"/>
      <point x="169" y="818" type="curve" smooth="yes"/>
      <point x="169" y="708"/>
      <point x="218" y="622"/>
      <point x="316" y="560" type="curve"/>
      <point x="169" y="480"/>
      <point x="145" y="365"/>
      <point x="145" y="299" type="curve" smooth="yes"/>
      <point x="145" y="65"/>
      <point x="395" y="-20"/>
      <point x="570" y="-20" type="curve" smooth="yes"/>
      <point x="743" y="-20"/>
      <point x="994" y="63"/>
      <point x="994" y="299" type="curve" smooth="yes"/>
      <point x="994" y="446"/>
      <point x="887" y="525"/>
    </contour>
  </outline>
</glyph>
<glyph name="nine" format="2">
  <advance width="1072"/>
  <unicode hex="0039"/>
  <outline>
    <contour>
      <point x="396" y="757" type="curve" smooth="yes"/>
      <point x="396" y="895"/>
      <point x="472" y="1006"/>
      <point x="585" y="1006" type="curve" smooth="yes"/>
      <point x="791" y="1006"/>
      <point x="825" y="708"/>
      <point x="825" y="610" type="curve" smooth="yes"/>
      <point x="825" y="598"/>
      <point x="824" y="581"/>
      <point x="823" y="558" type="curve"/>
      <point x="762" y="516"/>
      <point x="697" y="495"/>
      <point x="630" y="495" type="curve" smooth="yes"/>
      <point x="463" y="495"/>
      <point x="396" y="631"/>
    </contour>
    <contour>
      <point x="581" y="1130" type="curve" smooth="yes"/>
      <point x="340" y="1130"/>
      <point x="153" y="972"/>
      <point x="153" y="741" type="curve" smooth="yes"/>
      <point x="153" y="517"/>
      <point x="331" y="370"/>
      <point x="577" y="370" type="curve" smooth="yes"/>
      <point x="660" y="370"/>
      <point x="739" y="385"/>
      <point x="812" y="416" type="curve"/>
      <point x="800" y="349"/>
      <point x="772" y="292"/>
      <point x="729" y="246" type="curve" smooth="yes"/>
      <point x="634" y="143"/>
      <point x="507" y="111"/>
      <point x="387" y="111" type="curve" smooth="yes"/>
      <point x="364" y="111"/>
      <point x="332" y="114"/>
      <point x="289" y="119" type="curve"/>
      <point x="262" y="-10" type="line"/>
      <point x="324" y="-19"/>
      <point x="374" y="-23"/>
      <point x="413" y="-23" type="curve" smooth="yes"/>
      <point x="803" y="-23"/>
      <point x="1074" y="230"/>
      <point x="1074" y="594" type="curve" smooth="yes"/>
      <point x="1074" y="896"/>
      <point x="877" y="1130"/>
    </contour>
  </outline>
</glyph>
<glyph name="colon" format="2">
  <advance width="465"/>
  <unicode hex="003A"/>
  <outline>
    <contour>
      <point x="309" y="349" type="curve" smooth="yes"/>
      <point x="224" y="349"/>
      <point x="147" y="289"/>
      <point x="147" y="195" type="curve" smooth="yes"/>
      <point x="147" y="103"/>
      <point x="216" y="32"/>
      <point x="309" y="32" type="curve" smooth="yes"/>
      <point x="401" y="32"/>
      <point x="465" y="110"/>
      <point x="465" y="195" type="curve" smooth="yes"/>
      <point x="465" y="277"/>
      <point x="393" y="349"/>
    </contour>
    <contour>
      <point x="309" y="830" type="curve" smooth="yes"/>
      <point x="224" y="830"/>
      <point x="147" y="774"/>
      <point x="147" y="677" type="curve" smooth="yes"/>
      <point x="147" y="585"/>
      <point x="215" y="513"/>
      <point x="309" y="513" type="curve" smooth="yes"/>
      <point x="399" y="513"/>
      <point x="465" y="591"/>
      <point x="465" y="677" type="curve" smooth="yes"/>
      <point x="465" y="759"/>
      <point x="392" y="830"/>
    </contour>
  </outline>
</glyph>
<glyph name="semicolon" format="2">
  <advance width="476"/>
  <unicode hex="003B"/>
  <outline>
    <contour>
      <point x="314" y="239" type="curve" smooth="yes"/>
      <point x="227" y="239"/>
      <point x="156" y="176"/>
      <point x="156" y="85" type="curve" smooth="yes"/>
      <point x="156" y="7"/>
      <point x="204" y="-74"/>
      <point x="298" y="-75" type="curve"/>
      <point x="298" y="-134"/>
      <point x="200" y="-221"/>
      <point x="179" y="-239" type="curve"/>
      <point x="273" y="-327" type="line"/>
      <point x="392" y="-248"/>
      <point x="474" y="-86"/>
      <point x="474" y="51" type="curve" smooth="yes"/>
      <point x="474" y="224"/>
      <point x="354" y="239"/>
    </contour>
    <contour>
      <point x="318" y="650" type="curve" smooth="yes"/>
      <point x="233" y="650"/>
      <point x="156" y="594"/>
      <point x="156" y="497" type="curve" smooth="yes"/>
      <point x="156" y="405"/>
      <point x="224" y="333"/>
      <point x="318" y="333" type="curve" smooth="yes"/>
      <point x="408" y="333"/>
      <point x="474" y="411"/>
      <point x="474" y="497" type="curve" smooth="yes"/>
      <point x="474" y="579"/>
      <point x="401" y="650"/>
    </contour>
  </outline>
</glyph>
<glyph name="less" format="2">
  <advance width="955"/>
  <unicode hex="003C"/>
  <outline>
    <contour>
      <point x="950" y="195" type="line"/>
      <point x="438" y="455" type="line"/>
      <point x="950" y="714" type="line"/>
      <point x="950" y="898" type="line"/>
      <point x="154" y="525" type="line"/>
      <point x="154" y="384" type="line"/>
      <point x="950" y="9" type="line"/>
    </contour>
  </outline>
</glyph>
<glyph name="equal" format="2">
  <advance width="917"/>
  <unicode hex="003D"/>
  <outline>
    <contour>
      <point x="916" y="381" type="line"/>
      <point x="152" y="381" type="line"/>
      <point x="152" y="205" type="line"/>
      <point x="916" y="205" type="line"/>
    </contour>
    <contour>
      <point x="916" y="674" type="line"/>
      <point x="152" y="674" type="line"/>
      <point x="152" y="498" type="line"/>
      <point x="916" y="498" type="line"/>
    </contour>
  </outline>
</glyph>
<glyph name="greater" format="2">
  <advance width="953"/>
  <unicode hex="003E"/>
  <outline>
    <contour>
      <point x="950" y="515" type="line"/>
      <point x="154" y="888" type="line"/>
      <point x="154" y="704" type="line"/>
      <point x="666" y="445" type="line"/>
      <point x="154" y="185" type="line"/>
      <point x="154" y="0" type="line"/>
      <point x="950" y="374" type="line"/>
    </contour>
  </outline>
</glyph>
<glyph name="question" format="2">
  <advance width="1000"/>
  <unicode hex="003F"/>
  <outline>
    <contour>
      <point x="619" y="254" type="curve" smooth="yes"/>
      <point x="544" y="254"/>
      <point x="455" y="208"/>
      <point x="455" y="114" type="curve" smooth="yes"/>
      <point x="455" y="20"/>
      <point x="538" y="-34"/>
      <point x="619" y="-34" type="curve" smooth="yes"/>
      <point x="701" y="-34"/>
      <point x="777" y="26"/>
      <point x="777" y="114" type="curve" smooth="yes"/>
      <point x="777" y="199"/>
      <point x="693" y="254"/>
    </contour>
    <contour>
      <point x="569" y="1229" type="curve" smooth="yes"/>
      <point x="374" y="1229"/>
      <point x="142" y="1142"/>
      <point x="142" y="917" type="curve" smooth="yes"/>
      <point x="142" y="820"/>
      <point x="216" y="766"/>
      <point x="303" y="766" type="curve" smooth="yes"/>
      <point x="355" y="766"/>
      <point x="444" y="795"/>
      <point x="444" y="872" type="curve" smooth="yes"/>
      <point x="444" y="922"/>
      <point x="383" y="963"/>
      <point x="383" y="992" type="curve" smooth="yes"/>
      <point x="383" y="1092"/>
      <point x="501" y="1102"/>
      <point x="531" y="1102" type="curve" smooth="yes"/>
      <point x="686" y="1102"/>
      <point x="694" y="948"/>
      <point x="694" y="917" type="curve" smooth="yes"/>
      <point x="694" y="742"/>
      <point x="467" y="657"/>
      <point x="467" y="446" type="curve" smooth="yes"/>
      <point x="467" y="419"/>
      <point x="476" y="382"/>
      <point x="495" y="337" type="curve"/>
      <point x="650" y="378" type="line"/>
      <point x="639" y="409"/>
      <point x="634" y="432"/>
      <point x="634" y="449" type="curve" smooth="yes"/>
      <point x="634" y="656"/>
      <point x="994" y="673"/>
      <point x="994" y="912" type="curve" smooth="yes"/>
      <point x="994" y="1129"/>
      <point x="744" y="1229"/>
    </contour>
  </outline>
</glyph>
<glyph name="at" format="2">
  <advance width="1363"/>
  <unicode hex="0040"/>
  <outline>
    <contour>
      <point x="819" y="674" type="curve" smooth="yes"/>
      <point x="819" y="664"/>
      <point x="817" y="585"/>
      <point x="817" y="584" type="curve" smooth="yes"/>
      <point x="817" y="581"/>
      <point x="817" y="570"/>
      <point x="818" y="551" type="curve" smooth="yes"/>
      <point x="819" y="461"/>
      <point x="810" y="389"/>
      <point x="727" y="389" type="curve" smooth="yes"/>
      <point x="642" y="389"/>
      <point x="585" y="485"/>
      <point x="585" y="622" type="curve" smooth="yes"/>
      <point x="585" y="693"/>
      <point x="610" y="834"/>
      <point x="713" y="834" type="curve" smooth="yes"/>
      <point x="798" y="834"/>
      <point x="819" y="769"/>
    </contour>
    <contour>
      <point x="1365" y="681" type="curve" smooth="yes"/>
      <point x="1365" y="989"/>
      <point x="1114" y="1228"/>
      <point x="767" y="1228" type="curve" smooth="yes"/>
      <point x="384" y="1228"/>
      <point x="153" y="938"/>
      <point x="153" y="610" type="curve" smooth="yes"/>
      <point x="153" y="286"/>
      <point x="406" y="-13"/>
      <point x="780" y="-13" type="curve" smooth="yes"/>
      <point x="912" y="-13"/>
      <point x="1040" y="30"/>
      <point x="1165" y="117" type="curve"/>
      <point x="1071" y="227" type="line"/>
      <point x="978" y="164"/>
      <point x="884" y="132"/>
      <point x="789" y="132" type="curve" smooth="yes"/>
      <point x="516" y="132"/>
      <point x="329" y="366"/>
      <point x="329" y="610" type="curve" smooth="yes"/>
      <point x="329" y="849"/>
      <point x="480" y="1073"/>
      <point x="755" y="1073" type="curve" smooth="yes"/>
      <point x="960" y="1073"/>
      <point x="1165" y="949"/>
      <point x="1165" y="672" type="curve" smooth="yes"/>
      <point x="1165" y="636"/>
      <point x="1147" y="450"/>
      <point x="1059" y="450" type="curve" smooth="yes"/>
      <point x="1046" y="450"/>
      <point x="1033" y="460"/>
      <point x="1022" y="482" type="curve" smooth="yes"/>
      <point x="1004" y="515"/>
      <point x="994" y="548"/>
      <point x="994" y="701" type="curve" smooth="yes"/>
      <point x="994" y="770"/>
      <point x="1002" y="856"/>
      <point x="1019" y="957" type="curve"/>
      <point x="957" y="957"/>
      <point x="896" y="957"/>
      <point x="834" y="957" type="curve"/>
      <point x="834" y="911" type="line"/>
      <point x="773" y="956"/>
      <point x="738" y="965"/>
      <point x="694" y="965" type="curve" smooth="yes"/>
      <point x="486" y="965"/>
      <point x="382" y="759"/>
      <point x="382" y="612" type="curve" smooth="yes"/>
      <point x="382" y="472"/>
      <point x="480" y="259"/>
      <point x="694" y="259" type="curve" smooth="yes"/>
      <point x="765" y="259"/>
      <point x="829" y="285"/>
      <point x="886" y="337" type="curve"/>
      <point x="925" y="292"/>
      <point x="975" y="269"/>
      <point x="1034" y="269" type="curve" smooth="yes"/>
      <point x="1277" y="269"/>
      <point x="1365" y="540"/>
    </contour>
  </outline>
</glyph>
<glyph name="A" format="2">
  <advance width="1177"/>
  <unicode hex="0041"/>
  <outline>
    <contour>
      <point x="449" y="517" type="line"/>
      <point x="605" y="967" type="line"/>
      <point x="765" y="517" type="line"/>
    </contour>
    <contour>
      <point x="1197" y="0" type="line"/>
      <point x="984" y="401"/>
      <point x="838" y="804"/>
      <point x="759" y="1211" type="curve"/>
      <point x="530" y="1211" type="line"/>
      <point x="112" y="0" type="line"/>
      <point x="280" y="0" type="line"/>
      <point x="404" y="375" type="line"/>
      <point x="471" y="388"/>
      <point x="537" y="395"/>
      <point x="603" y="395" type="curve" smooth="yes"/>
      <point x="676" y="395"/>
      <point x="744" y="388"/>
      <point x="809" y="375" type="curve"/>
      <point x="925" y="0" type="line"/>
    </contour>
  </outline>
</glyph>
<glyph name="B" format="2">
  <advance width="1017"/>
  <unicode hex="0042"/>
  <outline>
    <contour>
      <point x="549" y="142" type="curve" smooth="yes"/>
      <point x="383" y="142" type="line"/>
      <point x="383" y="570" type="line"/>
      <point x="539" y="570" type="line" smooth="yes"/>
      <point x="660" y="570"/>
      <point x="771" y="493"/>
      <point x="771" y="352" type="curve" smooth="yes"/>
      <point x="771" y="221"/>
      <point x="672" y="142"/>
    </contour>
    <contour>
      <point x="468" y="702" type="curve" smooth="yes"/>
      <point x="438" y="702"/>
      <point x="410" y="705"/>
      <point x="383" y="712" type="curve"/>
      <point x="383" y="1069" type="line"/>
      <point x="539" y="1069" type="line" smooth="yes"/>
      <point x="639" y="1069"/>
      <point x="743" y="1001"/>
      <point x="743" y="887" type="curve" smooth="yes"/>
      <point x="743" y="723"/>
      <point x="536" y="702"/>
    </contour>
    <contour>
      <point x="833" y="651" type="curve"/>
      <point x="911" y="692"/>
      <point x="979" y="770"/>
      <point x="979" y="881" type="curve" smooth="yes"/>
      <point x="979" y="1080"/>
      <point x="799" y="1212"/>
      <point x="619" y="1212" type="curve" smooth="yes"/>
      <point x="532" y="1212"/>
      <point x="407" y="1196"/>
      <point x="321" y="1196" type="curve" smooth="yes"/>
      <point x="264" y="1196"/>
      <point x="208" y="1201"/>
      <point x="152" y="1211" type="curve"/>
      <point x="172" y="1009"/>
      <point x="182" y="807"/>
      <point x="182" y="605" type="curve" smooth="yes"/>
      <point x="182" y="403"/>
      <point x="172" y="201"/>
      <point x="152" y="0" type="curve"/>
      <point x="193" y="3"/>
      <point x="244" y="5"/>
      <point x="303" y="5" type="curve" smooth="yes"/>
      <point x="392" y="5"/>
      <point x="521" y="0"/>
      <point x="612" y="0" type="curve" smooth="yes"/>
      <point x="820" y="0"/>
      <point x="1017" y="132"/>
      <point x="1017" y="362" type="curve" smooth="yes"/>
      <point x="1017" y="489"/>
      <point x="946" y="598"/>
    </contour>
  </outline>
</glyph>
<glyph name="C" format="2">
  <advance width="1060"/>
  <unicode hex="0043"/>
  <outline>
    <contour>
      <point x="737" y="123" type="curve" smooth="yes"/>
      <point x="495" y="123"/>
      <point x="399" y="376"/>
      <point x="399" y="585" type="curve" smooth="yes"/>
      <point x="399" y="800"/>
      <point x="503" y="1081"/>
      <point x="752" y="1081" type="curve" smooth="yes"/>
      <point x="855" y="1081"/>
      <point x="937" y="1036"/>
      <point x="1000" y="945" type="curve"/>
      <point x="1091" y="1014" type="line"/>
      <point x="994" y="1161"/>
      <point x="861" y="1235"/>
      <point x="692" y="1235" type="curve" smooth="yes"/>
      <point x="338" y="1235"/>
      <point x="156" y="910"/>
      <point x="156" y="593" type="curve" smooth="yes"/>
      <point x="156" y="283"/>
      <point x="330" y="-26"/>
      <point x="691" y="-26" type="curve" smooth="yes"/>
      <point x="868" y="-26"/>
      <point x="1006" y="46"/>
      <point x="1105" y="190" type="curve"/>
      <point x="995" y="298" type="line"/>
      <point x="921" y="141"/>
      <point x="792" y="123"/>
    </contour>
  </outline>
</glyph>
<glyph name="D" format="2">
  <advance width="1084"/>
  <unicode hex="0044"/>
  <outline>
    <contour>
      <point x="516" y="142" type="curve" smooth="yes"/>
      <point x="386" y="142" type="line"/>
      <point x="386" y="1069" type="line"/>
      <point x="516" y="1069" type="line" smooth="yes"/>
      <point x="832" y="1069"/>
      <point x="835" y="611"/>
      <point x="835" y="605" type="curve" smooth="yes"/>
      <point x="835" y="433"/>
      <point x="761" y="142"/>
    </contour>
    <contour>
      <point x="544" y="1211" type="curve" smooth="yes"/>
      <point x="474" y="1211"/>
      <point x="374" y="1193"/>
      <point x="304" y="1193" type="curve" smooth="yes"/>
      <point x="258" y="1193"/>
      <point x="208" y="1199"/>
      <point x="153" y="1211" type="curve"/>
      <point x="173" y="1009"/>
      <point x="183" y="807"/>
      <point x="183" y="605" type="curve" smooth="yes"/>
      <point x="183" y="403"/>
      <point x="173" y="201"/>
      <point x="153" y="0" type="curve"/>
      <point x="197" y="4"/>
      <point x="241" y="6"/>
      <point x="285" y="6" type="curve" smooth="yes"/>
      <point x="360" y="6"/>
      <point x="469" y="0"/>
      <point x="544" y="0" type="curve" smooth="yes"/>
      <point x="899" y="0"/>
      <point x="1073" y="307"/>
      <point x="1073" y="606" type="curve" smooth="yes"/>
      <point x="1073" y="905"/>
      <point x="898" y="1211"/>
    </contour>
  </outline>
</glyph>
<glyph name="F" format="2">
  <advance width="851"/>
  <unicode hex="0046"/>
  <outline>
    <contour>
      <point x="881" y="1211" type="line"/>
      <point x="766" y="1198"/>
      <point x="644" y="1191"/>
      <point x="516" y="1191" type="curve" smooth="yes"/>
      <point x="388" y="1191"/>
      <point x="266" y="1198"/>
      <point x="151" y="1211" type="curve"/>
      <point x="174" y="1016"/>
      <point x="186" y="814"/>
      <point x="186" y="605" type="curve" smooth="yes"/>
      <point x="186" y="397"/>
      <point x="174" y="195"/>
      <point x="151" y="0" type="curve"/>
      <point x="382" y="0" type="line"/>
      <point x="382" y="575" type="line"/>
      <point x="455" y="582"/>
      <point x="532" y="585"/>
      <point x="612" y="585" type="curve" smooth="yes"/>
      <point x="693" y="585"/>
      <point x="769" y="582"/>
      <point x="842" y="575" type="curve"/>
      <point x="842" y="717" type="line"/>
      <point x="382" y="717" type="line"/>
      <point x="382" y="1069" type="line"/>
      <point x="881" y="1069" type="line"/>
    </contour>
  </outline>
</glyph>
<glyph name="G" format="2">
  <advance width="1100"/>
  <unicode hex="0047"/>
  <outline>
    <contour>
      <point x="160" y="602" type="curve" smooth="yes"/>
      <point x="160" y="287"/>
      <point x="344" y="-21"/>
      <point x="685" y="-21" type="curve" smooth="yes"/>
      <point x="852" y="-21"/>
      <point x="990" y="22"/>
      <point x="1099" y="109" type="curve"/>
      <point x="1090" y="214"/>
      <point x="1086" y="312"/>
      <point x="1086" y="401" type="curve" smooth="yes"/>
      <point x="1086" y="477"/>
      <point x="1091" y="562"/>
      <point x="1101" y="655" type="curve"/>
      <point x="1010" y="644"/>
      <point x="924" y="639"/>
      <point x="843" y="639" type="curve" smooth="yes"/>
      <point x="769" y="639"/>
      <point x="694" y="645"/>
      <point x="618" y="656" type="curve"/>
      <point x="618" y="522" type="line"/>
      <point x="869" y="522" type="line"/>
      <point x="869" y="131" type="line"/>
      <point x="834" y="122"/>
      <point x="799" y="117"/>
      <point x="764" y="117" type="curve" smooth="yes"/>
      <point x="500" y="117"/>
      <point x="404" y="400"/>
      <point x="404" y="592" type="curve" smooth="yes"/>
      <point x="404" y="812"/>
      <point x="518" y="1081"/>
      <point x="802" y="1081" type="curve" smooth="yes"/>
      <point x="909" y="1081"/>
      <point x="1000" y="1018"/>
      <point x="1050" y="945" type="curve"/>
      <point x="1141" y="1014" type="line"/>
      <point x="1008" y="1215"/>
      <point x="813" y="1235"/>
      <point x="742" y="1235" type="curve" smooth="yes"/>
      <point x="369" y="1235"/>
      <point x="160" y="942"/>
    </contour>
  </outline>
</glyph>
<glyph name="H" format="2">
  <advance width="1055"/>
  <unicode hex="0048"/>
  <outline>
    <contour>
      <point x="1055" y="0" type="line"/>
      <point x="1042" y="197"/>
      <point x="1036" y="399"/>
      <point x="1036" y="606" type="curve" smooth="yes"/>
      <point x="1036" y="813"/>
      <point x="1042" y="1015"/>
      <point x="1055" y="1212" type="curve"/>
      <point x="822" y="1212" type="line"/>
      <point x="822" y="697" type="line"/>
      <point x="386" y="697" type="line"/>
      <point x="386" y="1212" type="line"/>
      <point x="153" y="1212" type="line"/>
      <point x="173" y="1010"/>
      <point x="183" y="808"/>
      <point x="183" y="606" type="curve" smooth="yes"/>
      <point x="183" y="403"/>
      <point x="173" y="201"/>
      <point x="153" y="0" type="curve"/>
      <point x="386" y="0" type="line"/>
      <point x="386" y="555" type="line"/>
      <point x="455" y="562"/>
      <point x="528" y="565"/>
      <point x="604" y="565" type="curve" smooth="yes"/>
      <point x="681" y="565"/>
      <point x="753" y="562"/>
      <point x="822" y="555" type="curve"/>
      <point x="822" y="0" type="line"/>
    </contour>
  </outline>
</glyph>
<glyph name="I" format="2">
  <advance width="387"/>
  <unicode hex="0049"/>
  <outline>
    <contour>
      <point x="386" y="0" type="line"/>
      <point x="370" y="201"/>
      <point x="362" y="403"/>
      <point x="362" y="606" type="curve" smooth="yes"/>
      <point x="362" y="808"/>
      <point x="370" y="1010"/>
      <point x="386" y="1212" type="curve"/>
      <point x="153" y="1212" type="line"/>
      <point x="174" y="1003"/>
      <point x="184" y="801"/>
      <point x="184" y="606" type="curve" smooth="yes"/>
      <point x="184" y="410"/>
      <point x="174" y="208"/>
      <point x="153" y="0" type="curve"/>
    </contour>
  </outline>
</glyph>
<glyph name="J" format="2">
  <advance width="693"/>
  <unicode hex="004A"/>
  <outline>
    <contour>
      <point x="294" y="114" type="curve" smooth="yes"/>
      <point x="222" y="114"/>
      <point x="157" y="163"/>
      <point x="134" y="229" type="curve"/>
      <point x="47" y="177" type="line"/>
      <point x="128" y="-4"/>
      <point x="294" y="-19"/>
      <point x="348" y="-19" type="curve" smooth="yes"/>
      <point x="512" y="-19"/>
      <point x="683" y="92"/>
      <point x="683" y="278" type="curve" smooth="yes"/>
      <point x="683" y="451"/>
      <point x="667" y="699"/>
      <point x="667" y="872" type="curve" smooth="yes"/>
      <point x="667" y="990"/>
      <point x="677" y="1103"/>
      <point x="696" y="1210" type="curve"/>
      <point x="467" y="1212" type="line"/>
      <point x="467" y="305" type="line" smooth="yes"/>
      <point x="467" y="212"/>
      <point x="398" y="114"/>
    </contour>
  </outline>
</glyph>
<glyph name="K" format="2">
  <advance width="1062"/>
  <unicode hex="004B"/>
  <outline>
    <contour>
      <point x="1100" y="0" type="line"/>
      <point x="915" y="239"/>
      <point x="773" y="496"/>
      <point x="676" y="772" type="curve"/>
      <point x="1072" y="1211" type="line"/>
      <point x="881" y="1211" type="line"/>
      <point x="386" y="679" type="line"/>
      <point x="386" y="1211" type="line"/>
      <point x="153" y="1211" type="line"/>
      <point x="174" y="1012"/>
      <point x="184" y="810"/>
      <point x="184" y="605" type="curve" smooth="yes"/>
      <point x="184" y="400"/>
      <point x="174" y="198"/>
      <point x="153" y="0" type="curve"/>
      <point x="386" y="0" type="line"/>
      <point x="386" y="444" type="line"/>
      <point x="506" y="586" type="line"/>
      <point x="824" y="0" type="line"/>
    </contour>
  </outline>
</glyph>
<glyph name="L" format="2">
  <advance width="880"/>
  <unicode hex="004C"/>
  <outline>
    <contour>
      <point x="881" y="142" type="line"/>
      <point x="382" y="142" type="line"/>
      <point x="382" y="1210" type="line"/>
      <point x="151" y="1210" type="line"/>
      <point x="171" y="1009"/>
      <point x="181" y="807"/>
      <point x="181" y="605" type="curve" smooth="yes"/>
      <point x="181" y="403"/>
      <point x="171" y="201"/>
      <point x="151" y="0" type="curve"/>
      <point x="267" y="7"/>
      <point x="389" y="10"/>
      <point x="516" y="10" type="curve" smooth="yes"/>
      <point x="643" y="10"/>
      <point x="765" y="7"/>
      <point x="881" y="0" type="curve"/>
    </contour>
  </outline>
</glyph>
<glyph name="M" format="2">
  <advance width="1238"/>
  <unicode hex="004D"/>
  <outline>
    <contour>
      <point x="1258" y="0" type="line"/>
      <point x="1238" y="201"/>
      <point x="1228" y="403"/>
      <point x="1228" y="605" type="curve" smooth="yes"/>
      <point x="1228" y="807"/>
      <point x="1238" y="1009"/>
      <point x="1258" y="1210" type="curve"/>
      <point x="1004" y="1210" type="line"/>
      <point x="719" y="365" type="line"/>
      <point x="566" y="686"/>
      <point x="466" y="968"/>
      <point x="421" y="1210" type="curve"/>
      <point x="157" y="1210" type="line"/>
      <point x="157" y="0" type="line"/>
      <point x="321" y="0" type="line"/>
      <point x="321" y="837" type="line"/>
      <point x="594" y="0" type="line"/>
      <point x="776" y="0" type="line"/>
      <point x="1027" y="837" type="line"/>
      <point x="1025" y="0" type="line"/>
    </contour>
  </outline>
</glyph>
<glyph name="N" format="2">
  <advance width="1037"/>
  <unicode hex="004E"/>
  <outline>
    <contour>
      <point x="1035" y="1211" type="line"/>
      <point x="871" y="1211" type="line"/>
      <point x="871" y="371" type="line"/>
      <point x="657" y="628"/>
      <point x="483" y="908"/>
      <point x="350" y="1211" type="curve"/>
      <point x="133" y="1211" type="line"/>
      <point x="133" y="0" type="line"/>
      <point x="297" y="0" type="line"/>
      <point x="297" y="847" type="line"/>
      <point x="818" y="0" type="line"/>
      <point x="1035" y="0" type="line"/>
    </contour>
  </outline>
</glyph>
<glyph name="O" format="2">
  <advance width="1235"/>
  <unicode hex="004F"/>
  <outline>
    <contour>
      <point x="703" y="124" type="curve" smooth="yes"/>
      <point x="413" y="124"/>
      <point x="401" y="561"/>
      <point x="401" y="632" type="curve" smooth="yes"/>
      <point x="401" y="801"/>
      <point x="452" y="1085"/>
      <point x="688" y="1085" type="curve" smooth="yes"/>
      <point x="927" y="1085"/>
      <point x="988" y="773"/>
      <point x="988" y="576" type="curve" smooth="yes"/>
      <point x="988" y="345"/>
      <point x="908" y="124"/>
    </contour>
    <contour>
      <point x="696" y="1227" type="curve" smooth="yes"/>
      <point x="321" y="1227"/>
      <point x="156" y="915"/>
      <point x="156" y="604" type="curve" smooth="yes"/>
      <point x="156" y="266"/>
      <point x="343" y="-17"/>
      <point x="696" y="-17" type="curve" smooth="yes"/>
      <point x="1063" y="-17"/>
      <point x="1233" y="287"/>
      <point x="1233" y="604" type="curve" smooth="yes"/>
      <point x="1233" y="910"/>
      <point x="1074" y="1227"/>
    </contour>
  </outline>
</glyph>
<glyph name="P" format="2">
  <advance width="995"/>
  <unicode hex="0050"/>
  <outline>
    <contour>
      <point x="522" y="679" type="curve" smooth="yes"/>
      <point x="384" y="679" type="line"/>
      <point x="384" y="1079" type="line"/>
      <point x="532" y="1079" type="line" smooth="yes"/>
      <point x="643" y="1079"/>
      <point x="749" y="1011"/>
      <point x="749" y="882" type="curve" smooth="yes"/>
      <point x="749" y="744"/>
      <point x="634" y="679"/>
    </contour>
    <contour>
      <point x="569" y="1221" type="curve" smooth="yes"/>
      <point x="490" y="1221"/>
      <point x="376" y="1208"/>
      <point x="296" y="1208" type="curve" smooth="yes"/>
      <point x="246" y="1208"/>
      <point x="198" y="1212"/>
      <point x="153" y="1221" type="curve"/>
      <point x="173" y="1018"/>
      <point x="183" y="814"/>
      <point x="183" y="610" type="curve" smooth="yes"/>
      <point x="183" y="406"/>
      <point x="173" y="203"/>
      <point x="153" y="0" type="curve"/>
      <point x="384" y="0" type="line"/>
      <point x="384" y="539" type="line"/>
      <point x="569" y="539" type="line" smooth="yes"/>
      <point x="758" y="539"/>
      <point x="991" y="639"/>
      <point x="991" y="880" type="curve" smooth="yes"/>
      <point x="991" y="1121"/>
      <point x="758" y="1221"/>
    </contour>
  </outline>
</glyph>
<glyph name="Q" format="2">
  <advance width="1216"/>
  <unicode hex="0051"/>
  <outline>
    <contour>
      <point x="597" y="482" type="curve"/>
      <point x="553" y="273" type="line"/>
      <point x="651" y="278"/>
      <point x="734" y="239"/>
      <point x="801" y="154" type="curve"/>
      <point x="763" y="134"/>
      <point x="724" y="124"/>
      <point x="683" y="124" type="curve" smooth="yes"/>
      <point x="393" y="124"/>
      <point x="381" y="561"/>
      <point x="381" y="632" type="curve" smooth="yes"/>
      <point x="381" y="801"/>
      <point x="432" y="1085"/>
      <point x="668" y="1085" type="curve" smooth="yes"/>
      <point x="906" y="1085"/>
      <point x="968" y="774"/>
      <point x="968" y="575" type="curve" smooth="yes"/>
      <point x="968" y="456"/>
      <point x="949" y="357"/>
      <point x="912" y="280" type="curve"/>
      <point x="838" y="396"/>
      <point x="748" y="458"/>
    </contour>
    <contour>
      <point x="1213" y="604" type="curve" smooth="yes"/>
      <point x="1213" y="910"/>
      <point x="1054" y="1227"/>
      <point x="676" y="1227" type="curve" smooth="yes"/>
      <point x="301" y="1227"/>
      <point x="136" y="915"/>
      <point x="136" y="604" type="curve" smooth="yes"/>
      <point x="136" y="266"/>
      <point x="323" y="-17"/>
      <point x="676" y="-17" type="curve" smooth="yes"/>
      <point x="750" y="-17"/>
      <point x="816" y="-5"/>
      <point x="874" y="18" type="curve"/>
      <point x="952" y="-95"/>
      <point x="1054" y="-157"/>
      <point x="1181" y="-167" type="curve"/>
      <point x="1223" y="41" type="line"/>
      <point x="1131" y="40"/>
      <point x="1062" y="60"/>
      <point x="1016" y="101" type="curve"/>
      <point x="1188" y="253"/>
      <point x="1213" y="483"/>
    </contour>
  </outline>
</glyph>
<glyph name="R" format="2">
  <advance width="1019"/>
  <unicode hex="0052"/>
  <outline>
    <contour>
      <point x="534" y="681" type="curve" smooth="yes"/>
      <point x="386" y="681" type="line"/>
      <point x="386" y="1069" type="line"/>
      <point x="542" y="1069" type="line" smooth="yes"/>
      <point x="651" y="1069"/>
      <point x="765" y="1004"/>
      <point x="765" y="873" type="curve" smooth="yes"/>
      <point x="765" y="729"/>
      <point x="630" y="681"/>
    </contour>
    <contour>
      <point x="1005" y="852" type="curve" smooth="yes"/>
      <point x="1005" y="1083"/>
      <point x="776" y="1211"/>
      <point x="579" y="1211" type="curve" smooth="yes"/>
      <point x="499" y="1211"/>
      <point x="380" y="1198"/>
      <point x="300" y="1198" type="curve" smooth="yes"/>
      <point x="248" y="1198"/>
      <point x="199" y="1202"/>
      <point x="153" y="1211" type="curve"/>
      <point x="173" y="1009"/>
      <point x="183" y="807"/>
      <point x="183" y="605" type="curve" smooth="yes"/>
      <point x="183" y="403"/>
      <point x="173" y="201"/>
      <point x="153" y="0" type="curve"/>
      <point x="386" y="0" type="line"/>
      <point x="386" y="539" type="line"/>
      <point x="518" y="539" type="line"/>
      <point x="792" y="0" type="line"/>
      <point x="1054" y="0" type="line"/>
      <point x="931" y="159"/>
      <point x="832" y="347"/>
      <point x="755" y="564" type="curve"/>
      <point x="988" y="627"/>
      <point x="1005" y="802"/>
    </contour>
  </outline>
</glyph>
<glyph name="S" format="2">
  <advance width="987"/>
  <unicode hex="0053"/>
  <outline>
    <contour>
      <point x="357" y="912" type="curve" smooth="yes"/>
      <point x="357" y="1042"/>
      <point x="504" y="1080"/>
      <point x="582" y="1080" type="curve" smooth="yes"/>
      <point x="730" y="1080"/>
      <point x="826" y="1000"/>
      <point x="860" y="966" type="curve"/>
      <point x="956" y="1080" type="line"/>
      <point x="855" y="1179"/>
      <point x="730" y="1228"/>
      <point x="580" y="1228" type="curve" smooth="yes"/>
      <point x="362" y="1228"/>
      <point x="151" y="1094"/>
      <point x="151" y="849" type="curve" smooth="yes"/>
      <point x="151" y="391"/>
      <point x="777" y="598"/>
      <point x="777" y="317" type="curve" smooth="yes"/>
      <point x="777" y="179"/>
      <point x="631" y="127"/>
      <point x="536" y="127" type="curve" smooth="yes"/>
      <point x="344" y="127"/>
      <point x="240" y="258"/>
      <point x="209" y="305" type="curve"/>
      <point x="124" y="177" type="line"/>
      <point x="259" y="-11"/>
      <point x="513" y="-20"/>
      <point x="558" y="-20" type="curve" smooth="yes"/>
      <point x="782" y="-20"/>
      <point x="984" y="118"/>
      <point x="984" y="376" type="curve" smooth="yes"/>
      <point x="984" y="832"/>
      <point x="357" y="669"/>
    </contour>
  </outline>
</glyph>
<glyph name="T" format="2">
  <advance width="1055"/>
  <unicode hex="0054"/>
  <outline>
    <contour>
      <point x="1055" y="1210" type="line"/>
      <point x="906" y="1197"/>
      <point x="752" y="1191"/>
      <point x="594" y="1191" type="curve" smooth="yes"/>
      <point x="436" y="1191"/>
      <point x="282" y="1197"/>
      <point x="132" y="1210" type="curve"/>
      <point x="132" y="1062" type="line"/>
      <point x="477" y="1062" type="line"/>
      <point x="497" y="885"/>
      <point x="507" y="708"/>
      <point x="507" y="531" type="curve" smooth="yes"/>
      <point x="507" y="353"/>
      <point x="497" y="176"/>
      <point x="477" y="0" type="curve"/>
      <point x="710" y="0" type="line"/>
      <point x="710" y="1062" type="line"/>
      <point x="1055" y="1062" type="line"/>
    </contour>
  </outline>
</glyph>
<glyph name="V" format="2">
  <advance width="1125"/>
  <unicode hex="0056"/>
  <outline>
    <contour>
      <point x="980" y="1211" type="line"/>
      <point x="675" y="277" type="line"/>
      <point x="521" y="574"/>
      <point x="418" y="885"/>
      <point x="367" y="1211" type="curve"/>
      <point x="104" y="1211" type="line"/>
      <point x="515" y="0" type="line"/>
      <point x="753" y="0" type="line"/>
      <point x="1148" y="1211" type="line"/>
    </contour>
  </outline>
</glyph>
<glyph name="W" format="2">
  <advance width="1491"/>
  <unicode hex="0057"/>
  <outline>
    <contour>
      <point x="1340" y="1211" type="line"/>
      <point x="1157" y="312" type="line"/>
      <point x="1059" y="605"/>
      <point x="1001" y="904"/>
      <point x="983" y="1211" type="curve"/>
      <point x="727" y="1211" type="line"/>
      <point x="557" y="314" type="line"/>
      <point x="459" y="607"/>
      <point x="401" y="906"/>
      <point x="383" y="1211" type="curve"/>
      <point x="121" y="1211" type="line"/>
      <point x="377" y="0" type="line"/>
      <point x="650" y="0" type="line"/>
      <point x="813" y="853" type="line"/>
      <point x="975" y="0" type="line"/>
      <point x="1245" y="0" type="line"/>
      <point x="1502" y="1211" type="line"/>
    </contour>
  </outline>
</glyph>
<glyph name="X" format="2">
  <advance width="1094"/>
  <unicode hex="0058"/>
  <outline>
    <contour>
      <point x="1096" y="0" type="line"/>
      <point x="947" y="199"/>
      <point x="815" y="400"/>
      <point x="701" y="603" type="curve"/>
      <point x="1087" y="1209" type="line"/>
      <point x="889" y="1209" type="line"/>
      <point x="610" y="770" type="line"/>
      <point x="537" y="910"/>
      <point x="469" y="1056"/>
      <point x="406" y="1209" type="curve"/>
      <point x="131" y="1209" type="line"/>
      <point x="489" y="581" type="line"/>
      <point x="119" y="0" type="line"/>
      <point x="317" y="0" type="line"/>
      <point x="583" y="417" type="line"/>
      <point x="821" y="0" type="line"/>
    </contour>
  </outline>
</glyph>
<glyph name="Y" format="2">
  <advance width="1060"/>
  <unicode hex="0059"/>
  <outline>
    <contour>
      <point x="915" y="1210" type="line"/>
      <point x="665" y="708" type="line"/>
      <point x="595" y="778"/>
      <point x="500" y="888"/>
      <point x="395" y="1210" type="curve"/>
      <point x="122" y="1210" type="line"/>
      <point x="503" y="520" type="line"/>
      <point x="503" y="0" type="line"/>
      <point x="734" y="0" type="line"/>
      <point x="728" y="88"/>
      <point x="725" y="176"/>
      <point x="725" y="263" type="curve" smooth="yes"/>
      <point x="725" y="350"/>
      <point x="728" y="436"/>
      <point x="734" y="522" type="curve"/>
      <point x="1094" y="1210" type="line"/>
    </contour>
  </outline>
</glyph>
<glyph name="bracketleft" format="2">
  <advance width="478"/>
  <unicode hex="005B"/>
  <outline>
    <contour>
      <point x="560" y="-222" type="line"/>
      <point x="388" y="-222" type="line"/>
      <point x="388" y="1066" type="line"/>
      <point x="560" y="1066" type="line"/>
      <point x="560" y="1208" type="line"/>
      <point x="157" y="1208" type="line"/>
      <point x="157" y="-364" type="line"/>
      <point x="560" y="-364" type="line"/>
    </contour>
  </outline>
</glyph>
<glyph name="backslash" format="2">
  <advance width="741"/>
  <unicode hex="005C"/>
  <outline>
    <contour>
      <point x="277" y="1204" type="line"/>
      <point x="115" y="1204" type="line"/>
      <point x="610" y="-367" type="line"/>
      <point x="774" y="-367" type="line"/>
    </contour>
  </outline>
</glyph>
<glyph name="bracketright" format="2">
  <advance width="478"/>
  <unicode hex="005D"/>
  <outline>
    <contour>
      <point x="477" y="1208" type="line"/>
      <point x="74" y="1208" type="line"/>
      <point x="74" y="1066" type="line"/>
      <point x="246" y="1066" type="line"/>
      <point x="246" y="-222" type="line"/>
      <point x="74" y="-222" type="line"/>
      <point x="74" y="-364" type="line"/>
      <point x="477" y="-364" type="line"/>
    </contour>
  </outline>
</glyph>
<glyph name="asciicircum" format="2">
  <advance width="932"/>
  <unicode hex="005E"/>
  <outline>
    <contour>
      <point x="944" y="700" type="line"/>
      <point x="827" y="865"/>
      <point x="729" y="1035"/>
      <point x="651" y="1210" type="curve"/>
      <point x="416" y="1210" type="line"/>
      <point x="330" y="1027"/>
      <point x="230" y="857"/>
      <point x="115" y="700" type="curve"/>
      <point x="312" y="700" type="line"/>
      <point x="528" y="958" type="line"/>
      <point x="745" y="700" type="line"/>
    </contour>
  </outline>
</glyph>
<glyph name="underscore" format="2">
  <advance width="1442"/>
  <unicode hex="005F"/>
  <outline>
    <contour>
      <point x="1436" y="-212" type="line"/>
      <point x="161" y="-212" type="line"/>
      <point x="161" y="-388" type="line"/>
      <point x="1436" y="-388" type="line"/>
    </contour>
  </outline>
</glyph>
<glyph name="grave" format="2">
  <advance width="464"/>
  <unicode hex="0060"/>
  <outline>
    <contour>
      <point x="392" y="1237" type="line"/>
      <point x="126" y="1237" type="line"/>
      <point x="217" y="1086"/>
      <point x="284" y="926"/>
      <point x="326" y="758" type="curve"/>
      <point x="472" y="758" type="line"/>
    </contour>
  </outline>
</glyph>
<glyph name="b" format="2">
  <advance width="995"/>
  <unicode hex="0062"/>
  <outline>
    <contour>
      <point x="550" y="144" type="curve" smooth="yes"/>
      <point x="391" y="144"/>
      <point x="383" y="379"/>
      <point x="383" y="424" type="curve" smooth="yes"/>
      <point x="383" y="465"/>
      <point x="389" y="737"/>
      <point x="563" y="737" type="curve" smooth="yes"/>
      <point x="686" y="737"/>
      <point x="762" y="597"/>
      <point x="762" y="460" type="curve" smooth="yes"/>
      <point x="762" y="350"/>
      <point x="706" y="144"/>
    </contour>
    <contour>
      <point x="623" y="901" type="curve" smooth="yes"/>
      <point x="461" y="901"/>
      <point x="398" y="784"/>
      <point x="387" y="759" type="curve"/>
      <point x="387" y="1215" type="line"/>
      <point x="154" y="1215" type="line"/>
      <point x="174" y="1013"/>
      <point x="184" y="810"/>
      <point x="184" y="607" type="curve" smooth="yes"/>
      <point x="184" y="404"/>
      <point x="174" y="202"/>
      <point x="154" y="0" type="curve"/>
      <point x="367" y="0" type="line"/>
      <point x="387" y="134" type="line"/>
      <point x="444" y="-7"/>
      <point x="583" y="-17"/>
      <point x="622" y="-17" type="curve" smooth="yes"/>
      <point x="885" y="-17"/>
      <point x="995" y="250"/>
      <point x="995" y="449" type="curve" smooth="yes"/>
      <point x="995" y="665"/>
      <point x="871" y="901"/>
    </contour>
  </outline>
</glyph>
<glyph name="c" format="2">
  <advance width="957"/>
  <unicode hex="0063"/>
  <outline>
    <contour>
      <point x="631" y="125" type="curve" smooth="yes"/>
      <point x="480" y="125"/>
      <point x="378" y="255"/>
      <point x="378" y="439" type="curve" smooth="yes"/>
      <point x="378" y="622"/>
      <point x="486" y="761"/>
      <point x="639" y="761" type="curve" smooth="yes"/>
      <point x="762" y="761"/>
      <point x="829" y="664"/>
      <point x="846" y="637" type="curve"/>
      <point x="958" y="703" type="line"/>
      <point x="883" y="849"/>
      <point x="728" y="901"/>
      <point x="606" y="901" type="curve" smooth="yes"/>
      <point x="330" y="901"/>
      <point x="150" y="695"/>
      <point x="150" y="432" type="curve" smooth="yes"/>
      <point x="150" y="163"/>
      <point x="342" y="-19"/>
      <point x="607" y="-19" type="curve" smooth="yes"/>
      <point x="864" y="-19"/>
      <point x="977" y="155"/>
      <point x="1004" y="204" type="curve"/>
      <point x="888" y="289" type="line"/>
      <point x="799" y="138"/>
      <point x="672" y="125"/>
    </contour>
  </outline>
</glyph>
<glyph name="d" format="2">
  <advance width="998"/>
  <unicode hex="0064"/>
  <outline>
    <contour>
      <point x="599" y="143" type="curve" smooth="yes"/>
      <point x="439" y="143"/>
      <point x="390" y="346"/>
      <point x="390" y="457" type="curve" smooth="yes"/>
      <point x="390" y="551"/>
      <point x="426" y="737"/>
      <point x="585" y="737" type="curve" smooth="yes"/>
      <point x="758" y="737"/>
      <point x="765" y="469"/>
      <point x="765" y="424" type="curve" smooth="yes"/>
      <point x="765" y="306"/>
      <point x="729" y="143"/>
    </contour>
    <contour>
      <point x="524" y="901" type="curve" smooth="yes"/>
      <point x="280" y="901"/>
      <point x="156" y="679"/>
      <point x="156" y="447" type="curve" smooth="yes"/>
      <point x="156" y="225"/>
      <point x="275" y="-18"/>
      <point x="524" y="-18" type="curve" smooth="yes"/>
      <point x="619" y="-18"/>
      <point x="720" y="31"/>
      <point x="762" y="134" type="curve"/>
      <point x="782" y="0" type="line"/>
      <point x="995" y="0" type="line"/>
      <point x="975" y="202"/>
      <point x="965" y="404"/>
      <point x="965" y="607" type="curve" smooth="yes"/>
      <point x="965" y="810"/>
      <point x="975" y="1012"/>
      <point x="995" y="1214" type="curve"/>
      <point x="762" y="1214" type="line"/>
      <point x="762" y="759" type="line"/>
      <point x="700" y="894"/>
      <point x="554" y="901"/>
    </contour>
  </outline>
</glyph>
<glyph name="e" format="2">
  <advance width="1017"/>
  <unicode hex="0065"/>
  <outline>
    <contour>
      <point x="782" y="553" type="curve"/>
      <point x="403" y="553" type="line"/>
      <point x="407" y="584"/>
      <point x="434" y="764"/>
      <point x="587" y="764" type="curve" smooth="yes"/>
      <point x="709" y="764"/>
      <point x="776" y="651"/>
    </contour>
    <contour>
      <point x="664" y="121" type="curve" smooth="yes"/>
      <point x="472" y="121"/>
      <point x="403" y="278"/>
      <point x="397" y="408" type="curve"/>
      <point x="1018" y="408" type="line"/>
      <point x="1018" y="434"/>
      <point x="1019" y="468"/>
      <point x="1019" y="493" type="curve" smooth="yes"/>
      <point x="1019" y="738"/>
      <point x="847" y="902"/>
      <point x="605" y="902" type="curve" smooth="yes"/>
      <point x="337" y="902"/>
      <point x="154" y="707"/>
      <point x="154" y="446" type="curve" smooth="yes"/>
      <point x="154" y="167"/>
      <point x="361" y="-17"/>
      <point x="629" y="-17" type="curve" smooth="yes"/>
      <point x="848" y="-17"/>
      <point x="979" y="110"/>
      <point x="1023" y="161" type="curve"/>
      <point x="961" y="281" type="line"/>
      <point x="852" y="130"/>
      <point x="700" y="121"/>
    </contour>
  </outline>
</glyph>
<glyph name="f" format="2">
  <advance width="764"/>
  <unicode hex="0066"/>
  <outline>
    <contour>
      <point x="220" y="933" type="curve"/>
      <point x="220" y="868" type="line"/>
      <point x="80" y="868" type="line"/>
      <point x="80" y="719" type="line"/>
      <point x="224" y="719" type="line"/>
      <point x="231" y="524"/>
      <point x="235" y="390"/>
      <point x="235" y="319" type="curve" smooth="yes"/>
      <point x="235" y="198"/>
      <point x="226" y="85"/>
      <point x="207" y="-18" type="curve"/>
      <point x="435" y="-19" type="line"/>
      <point x="435" y="719" type="line"/>
      <point x="683" y="719" type="line"/>
      <point x="683" y="868" type="line"/>
      <point x="435" y="868" type="line"/>
      <point x="435" y="1053"/>
      <point x="539" y="1097"/>
      <point x="608" y="1097" type="curve" smooth="yes"/>
      <point x="728" y="1097"/>
      <point x="768" y="985"/>
      <point x="769" y="983" type="curve"/>
      <point x="856" y="1034" type="line"/>
      <point x="802" y="1152"/>
      <point x="693" y="1232"/>
      <point x="554" y="1232" type="curve" smooth="yes"/>
      <point x="391" y="1232"/>
      <point x="219" y="1121"/>
    </contour>
  </outline>
</glyph>
<glyph name="g" format="2">
  <advance width="992"/>
  <unicode hex="0067"/>
  <outline>
    <contour>
      <point x="598" y="162" type="curve" smooth="yes"/>
      <point x="467" y="162"/>
      <point x="385" y="310"/>
      <point x="385" y="451" type="curve" smooth="yes"/>
      <point x="385" y="546"/>
      <point x="437" y="736"/>
      <point x="589" y="736" type="curve" smooth="yes"/>
      <point x="756" y="736"/>
      <point x="765" y="483"/>
      <point x="765" y="431" type="curve" smooth="yes"/>
      <point x="765" y="386"/>
      <point x="757" y="162"/>
    </contour>
    <contour>
      <point x="974" y="589" type="curve" smooth="yes"/>
      <point x="974" y="691"/>
      <point x="981" y="787"/>
      <point x="994" y="878" type="curve"/>
      <point x="781" y="878" type="line"/>
      <point x="761" y="792" type="line"/>
      <point x="710" y="875"/>
      <point x="619" y="904"/>
      <point x="546" y="904" type="curve" smooth="yes"/>
      <point x="292" y="904"/>
      <point x="153" y="658"/>
      <point x="153" y="444" type="curve" smooth="yes"/>
      <point x="153" y="225"/>
      <point x="289" y="-4"/>
      <point x="536" y="-4" type="curve" smooth="yes"/>
      <point x="689" y="-4"/>
      <point x="749" y="98"/>
      <point x="761" y="123" type="curve"/>
      <point x="761" y="113" type="line" smooth="yes"/>
      <point x="761" y="-13"/>
      <point x="755" y="-233"/>
      <point x="530" y="-233" type="curve" smooth="yes"/>
      <point x="357" y="-233"/>
      <point x="289" y="-124"/>
      <point x="269" y="-82" type="curve"/>
      <point x="163" y="-178" type="line"/>
      <point x="284" y="-357"/>
      <point x="467" y="-380"/>
      <point x="553" y="-380" type="curve" smooth="yes"/>
      <point x="789" y="-380"/>
      <point x="994" y="-203"/>
      <point x="994" y="43" type="curve" smooth="yes"/>
      <point x="994" y="202"/>
      <point x="974" y="430"/>
    </contour>
  </outline>
</glyph>
<glyph name="h" format="2">
  <advance width="946"/>
  <unicode hex="0068"/>
  <outline>
    <contour>
      <point x="595" y="903" type="curve" smooth="yes"/>
      <point x="477" y="903"/>
      <point x="408" y="825"/>
      <point x="383" y="790" type="curve"/>
      <point x="383" y="1207" type="line"/>
      <point x="154" y="1207" type="line"/>
      <point x="174" y="1007"/>
      <point x="184" y="807"/>
      <point x="184" y="607" type="curve" smooth="yes"/>
      <point x="184" y="404"/>
      <point x="174" y="202"/>
      <point x="154" y="0" type="curve"/>
      <point x="383" y="0" type="line"/>
      <point x="383" y="523" type="line" smooth="yes"/>
      <point x="383" y="596"/>
      <point x="415" y="736"/>
      <point x="546" y="736" type="curve" smooth="yes"/>
      <point x="673" y="736"/>
      <point x="715" y="606"/>
      <point x="715" y="523" type="curve" smooth="yes"/>
      <point x="715" y="0" type="line"/>
      <point x="947" y="0" type="line"/>
      <point x="938" y="58"/>
      <point x="934" y="119"/>
      <point x="934" y="182" type="curve" smooth="yes"/>
      <point x="934" y="282"/>
      <point x="949" y="425"/>
      <point x="949" y="525" type="curve" smooth="yes"/>
      <point x="949" y="717"/>
      <point x="788" y="903"/>
    </contour>
  </outline>
</glyph>
<glyph name="i" format="2">
  <advance width="404"/>
  <unicode hex="0069"/>
  <outline>
    <contour>
      <point x="382" y="880" type="line"/>
      <point x="154" y="880" type="line"/>
      <point x="175" y="730"/>
      <point x="185" y="583"/>
      <point x="185" y="440" type="curve" smooth="yes"/>
      <point x="185" y="297"/>
      <point x="175" y="151"/>
      <point x="154" y="0" type="curve"/>
      <point x="382" y="0" type="line"/>
    </contour>
    <contour>
      <point x="271" y="1230" type="curve" smooth="yes"/>
      <point x="200" y="1230"/>
      <point x="140" y="1171"/>
      <point x="140" y="1098" type="curve" smooth="yes"/>
      <point x="140" y="1027"/>
      <point x="200" y="967"/>
      <point x="271" y="967" type="curve" smooth="yes"/>
      <point x="344" y="967"/>
      <point x="403" y="1027"/>
      <point x="403" y="1098" type="curve" smooth="yes"/>
      <point x="403" y="1171"/>
      <point x="344" y="1230"/>
    </contour>
  </outline>
</glyph>
<glyph name="j" format="2">
  <advance width="733"/>
  <unicode hex="006A"/>
  <outline>
    <contour>
      <point x="334" y="-245" type="curve" smooth="yes"/>
      <point x="262" y="-245"/>
      <point x="197" y="-196"/>
      <point x="174" y="-130" type="curve"/>
      <point x="87" y="-182" type="line"/>
      <point x="141" y="-304"/>
      <point x="253" y="-379"/>
      <point x="388" y="-379" type="curve" smooth="yes"/>
      <point x="553" y="-379"/>
      <point x="723" y="-267"/>
      <point x="723" y="-81" type="curve" smooth="yes"/>
      <point x="723" y="90"/>
      <point x="707" y="339"/>
      <point x="707" y="512" type="curve" smooth="yes"/>
      <point x="707" y="630"/>
      <point x="717" y="743"/>
      <point x="736" y="850" type="curve"/>
      <point x="507" y="852" type="line"/>
      <point x="507" y="-54" type="line" smooth="yes"/>
      <point x="507" y="-147"/>
      <point x="438" y="-245"/>
    </contour>
    <contour>
      <point x="613" y="1234" type="curve" smooth="yes"/>
      <point x="539" y="1234"/>
      <point x="481" y="1176"/>
      <point x="481" y="1102" type="curve" smooth="yes"/>
      <point x="481" y="1030"/>
      <point x="538" y="971"/>
      <point x="613" y="971" type="curve" smooth="yes"/>
      <point x="686" y="971"/>
      <point x="744" y="1029"/>
      <point x="744" y="1102" type="curve" smooth="yes"/>
      <point x="744" y="1177"/>
      <point x="685" y="1234"/>
    </contour>
  </outline>
</glyph>
<glyph name="k" format="2">
  <advance width="963"/>
  <unicode hex="006B"/>
  <outline>
    <contour>
      <point x="1000" y="0" type="line"/>
      <point x="825" y="153"/>
      <point x="688" y="333"/>
      <point x="589" y="541" type="curve"/>
      <point x="940" y="898" type="line"/>
      <point x="718" y="898" type="line"/>
      <point x="384" y="575" type="line"/>
      <point x="384" y="1226" type="line"/>
      <point x="151" y="1226" type="line"/>
      <point x="176" y="1017"/>
      <point x="188" y="813"/>
      <point x="188" y="613" type="curve" smooth="yes"/>
      <point x="188" y="413"/>
      <point x="176" y="209"/>
      <point x="151" y="0" type="curve"/>
      <point x="384" y="0" type="line"/>
      <point x="384" y="322" type="line"/>
      <point x="419" y="376" type="line"/>
      <point x="721" y="0" type="line"/>
    </contour>
  </outline>
</glyph>
<glyph name="l" format="2">
  <advance width="362"/>
  <unicode hex="006C"/>
  <outline>
    <contour>
      <point x="456" y="135" type="line"/>
      <point x="360" y="135" type="line"/>
      <point x="360" y="1211" type="line"/>
      <point x="153" y="1211" type="line"/>
      <point x="173" y="1010"/>
      <point x="183" y="808"/>
      <point x="183" y="605" type="curve" smooth="yes"/>
      <point x="183" y="403"/>
      <point x="173" y="201"/>
      <point x="153" y="0" type="curve"/>
      <point x="224" y="15"/>
      <point x="277" y="22"/>
      <point x="313" y="22" type="curve" smooth="yes"/>
      <point x="360" y="22"/>
      <point x="408" y="15"/>
      <point x="456" y="0" type="curve"/>
    </contour>
  </outline>
</glyph>
<glyph name="m" format="2">
  <advance width="1357"/>
  <unicode hex="006D"/>
  <outline>
    <contour>
      <point x="1057" y="903" type="curve" smooth="yes"/>
      <point x="903" y="903"/>
      <point x="833" y="794"/>
      <point x="820" y="771" type="curve"/>
      <point x="768" y="853"/>
      <point x="675" y="901"/>
      <point x="580" y="901" type="curve" smooth="yes"/>
      <point x="507" y="901"/>
      <point x="434" y="867"/>
      <point x="389" y="805" type="curve"/>
      <point x="389" y="882" type="line"/>
      <point x="158" y="882" type="line"/>
      <point x="178" y="737"/>
      <point x="188" y="590"/>
      <point x="188" y="443" type="curve" smooth="yes"/>
      <point x="188" y="292"/>
      <point x="178" y="145"/>
      <point x="157" y="0" type="curve"/>
      <point x="388" y="0" type="line"/>
      <point x="389" y="553" type="line"/>
      <point x="392" y="709"/>
      <point x="464" y="736"/>
      <point x="513" y="736" type="curve" smooth="yes"/>
      <point x="608" y="736"/>
      <point x="643" y="626"/>
      <point x="643" y="563" type="curve" smooth="yes"/>
      <point x="643" y="472"/>
      <point x="649" y="344"/>
      <point x="649" y="255" type="curve" smooth="yes"/>
      <point x="649" y="151"/>
      <point x="647" y="66"/>
      <point x="642" y="0" type="curve"/>
      <point x="871" y="0" type="line"/>
      <point x="872" y="553" type="line" smooth="yes"/>
      <point x="872" y="701"/>
      <point x="946" y="736"/>
      <point x="998" y="736" type="curve" smooth="yes"/>
      <point x="1118" y="736"/>
      <point x="1126" y="593"/>
      <point x="1126" y="553" type="curve" smooth="yes"/>
      <point x="1125" y="0" type="line"/>
      <point x="1356" y="0" type="line"/>
      <point x="1347" y="59"/>
      <point x="1342" y="122"/>
      <point x="1342" y="191" type="curve" smooth="yes"/>
      <point x="1342" y="298"/>
      <point x="1357" y="453"/>
      <point x="1357" y="561" type="curve" smooth="yes"/>
      <point x="1357" y="736"/>
      <point x="1230" y="903"/>
    </contour>
  </outline>
</glyph>
<glyph name="n" format="2">
  <advance width="944"/>
  <unicode hex="006E"/>
  <outline>
    <contour>
      <point x="941" y="505" type="curve" smooth="yes"/>
      <point x="941" y="670"/>
      <point x="872" y="899"/>
      <point x="618" y="899" type="curve" smooth="yes"/>
      <point x="467" y="899"/>
      <point x="402" y="814"/>
      <point x="385" y="788" type="curve"/>
      <point x="365" y="878" type="line"/>
      <point x="156" y="878" type="line"/>
      <point x="176" y="733"/>
      <point x="186" y="586"/>
      <point x="186" y="439" type="curve" smooth="yes"/>
      <point x="186" y="292"/>
      <point x="176" y="146"/>
      <point x="156" y="0" type="curve"/>
      <point x="385" y="0" type="line"/>
      <point x="385" y="513" type="line" smooth="yes"/>
      <point x="385" y="558"/>
      <point x="395" y="732"/>
      <point x="549" y="732" type="curve" smooth="yes"/>
      <point x="699" y="732"/>
      <point x="712" y="566"/>
      <point x="712" y="511" type="curve" smooth="yes"/>
      <point x="712" y="0" type="line"/>
      <point x="941" y="0" type="line"/>
      <point x="932" y="61"/>
      <point x="927" y="120"/>
      <point x="927" y="177" type="curve" smooth="yes"/>
      <point x="927" y="273"/>
      <point x="941" y="409"/>
    </contour>
  </outline>
</glyph>
<glyph name="p" format="2">
  <advance width="1001"/>
  <unicode hex="0070"/>
  <outline>
    <contour>
      <point x="555" y="136" type="curve" smooth="yes"/>
      <point x="394" y="136"/>
      <point x="387" y="365"/>
      <point x="387" y="403" type="curve" smooth="yes"/>
      <point x="387" y="435"/>
      <point x="392" y="742"/>
      <point x="570" y="742" type="curve" smooth="yes"/>
      <point x="714" y="742"/>
      <point x="763" y="550"/>
      <point x="763" y="449" type="curve" smooth="yes"/>
      <point x="763" y="359"/>
      <point x="726" y="136"/>
    </contour>
    <contour>
      <point x="628" y="901" type="curve" smooth="yes"/>
      <point x="460" y="901"/>
      <point x="401" y="775"/>
      <point x="390" y="748" type="curve"/>
      <point x="370" y="880" type="line"/>
      <point x="157" y="880" type="line"/>
      <point x="177" y="672"/>
      <point x="187" y="464"/>
      <point x="187" y="256" type="curve" smooth="yes"/>
      <point x="187" y="47"/>
      <point x="177" y="-160"/>
      <point x="157" y="-367" type="curve"/>
      <point x="390" y="-367" type="line"/>
      <point x="390" y="112" type="line"/>
      <point x="433" y="16"/>
      <point x="530" y="-29"/>
      <point x="622" y="-29" type="curve" smooth="yes"/>
      <point x="876" y="-29"/>
      <point x="996" y="208"/>
      <point x="996" y="436" type="curve" smooth="yes"/>
      <point x="996" y="644"/>
      <point x="885" y="901"/>
    </contour>
  </outline>
</glyph>
<glyph name="q" format="2">
  <advance width="999"/>
  <unicode hex="0071"/>
  <outline>
    <contour>
      <point x="598" y="141" type="curve" smooth="yes"/>
      <point x="390" y="141"/>
      <point x="389" y="441"/>
      <point x="389" y="445" type="curve" smooth="yes"/>
      <point x="389" y="550"/>
      <point x="431" y="742"/>
      <point x="581" y="742" type="curve" smooth="yes"/>
      <point x="757" y="742"/>
      <point x="764" y="448"/>
      <point x="764" y="402" type="curve" smooth="yes"/>
      <point x="764" y="382"/>
      <point x="762" y="141"/>
    </contour>
    <contour>
      <point x="524" y="901" type="curve" smooth="yes"/>
      <point x="266" y="901"/>
      <point x="154" y="645"/>
      <point x="154" y="434" type="curve" smooth="yes"/>
      <point x="154" y="226"/>
      <point x="261" y="-24"/>
      <point x="525" y="-24" type="curve" smooth="yes"/>
      <point x="685" y="-24"/>
      <point x="748" y="88"/>
      <point x="761" y="117" type="curve"/>
      <point x="761" y="-365" type="line"/>
      <point x="994" y="-365" type="line"/>
      <point x="974" y="-159"/>
      <point x="964" y="48"/>
      <point x="964" y="255" type="curve" smooth="yes"/>
      <point x="964" y="462"/>
      <point x="974" y="670"/>
      <point x="994" y="877" type="curve"/>
      <point x="761" y="877" type="line"/>
      <point x="761" y="748" type="line"/>
      <point x="701" y="895"/>
      <point x="549" y="901"/>
    </contour>
  </outline>
</glyph>
<glyph name="r" format="2">
  <advance width="723"/>
  <unicode hex="0072"/>
  <outline>
    <contour>
      <point x="388" y="776" type="curve"/>
      <point x="388" y="881" type="line"/>
      <point x="155" y="881" type="line"/>
      <point x="174" y="735"/>
      <point x="183" y="593"/>
      <point x="183" y="455" type="curve" smooth="yes"/>
      <point x="183" y="318"/>
      <point x="174" y="166"/>
      <point x="155" y="0" type="curve"/>
      <point x="388" y="0" type="line"/>
      <point x="388" y="512" type="line" smooth="yes"/>
      <point x="388" y="605"/>
      <point x="461" y="712"/>
      <point x="564" y="712" type="curve" smooth="yes"/>
      <point x="617" y="712"/>
      <point x="666" y="697"/>
      <point x="711" y="666" type="curve"/>
      <point x="804" y="860" type="line"/>
      <point x="751" y="888"/>
      <point x="693" y="902"/>
      <point x="631" y="902" type="curve" smooth="yes"/>
      <point x="470" y="902"/>
      <point x="403" y="803"/>
    </contour>
  </outline>
</glyph>
<glyph name="s" format="2">
  <advance width="921"/>
  <unicode hex="0073"/>
  <outline>
    <contour>
      <point x="371" y="661" type="curve" smooth="yes"/>
      <point x="371" y="759"/>
      <point x="509" y="767"/>
      <point x="553" y="767" type="curve" smooth="yes"/>
      <point x="677" y="767"/>
      <point x="770" y="734"/>
      <point x="833" y="669" type="curve"/>
      <point x="919" y="768" type="line"/>
      <point x="794" y="904"/>
      <point x="615" y="919"/>
      <point x="540" y="919" type="curve" smooth="yes"/>
      <point x="380" y="919"/>
      <point x="155" y="839"/>
      <point x="155" y="617" type="curve" smooth="yes"/>
      <point x="155" y="291"/>
      <point x="707" y="407"/>
      <point x="707" y="250" type="curve" smooth="yes"/>
      <point x="707" y="139"/>
      <point x="531" y="135"/>
      <point x="508" y="135" type="curve" smooth="yes"/>
      <point x="317" y="135"/>
      <point x="231" y="235"/>
      <point x="211" y="262" type="curve"/>
      <point x="125" y="155" type="line"/>
      <point x="253" y="-2"/>
      <point x="466" y="-16"/>
      <point x="536" y="-16" type="curve" smooth="yes"/>
      <point x="710" y="-16"/>
      <point x="919" y="65"/>
      <point x="919" y="279" type="curve" smooth="yes"/>
      <point x="919" y="611"/>
      <point x="371" y="526"/>
    </contour>
  </outline>
</glyph>
<glyph name="t" format="2">
  <advance width="638"/>
  <unicode hex="0074"/>
  <outline>
    <contour>
      <point x="555" y="111" type="curve" smooth="yes"/>
      <point x="464" y="111"/>
      <point x="445" y="187"/>
      <point x="445" y="249" type="curve" smooth="yes"/>
      <point x="445" y="1090" type="line"/>
      <point x="224" y="1090" type="line"/>
      <point x="243" y="1021"/>
      <point x="252" y="937"/>
      <point x="252" y="838" type="curve" smooth="yes"/>
      <point x="252" y="670"/>
      <point x="234" y="431"/>
      <point x="234" y="263" type="curve" smooth="yes"/>
      <point x="234" y="-6"/>
      <point x="460" y="-23"/>
      <point x="518" y="-23" type="curve" smooth="yes"/>
      <point x="650" y="-23"/>
      <point x="719" y="74"/>
      <point x="738" y="104" type="curve"/>
      <point x="666" y="199" type="line"/>
      <point x="653" y="168"/>
      <point x="618" y="111"/>
    </contour>
    <contour>
      <point x="605" y="848" type="line"/>
      <point x="86" y="848" type="line"/>
      <point x="86" y="700" type="line"/>
      <point x="605" y="700" type="line"/>
    </contour>
  </outline>
</glyph>
<glyph name="u" format="2">
  <advance width="942"/>
  <unicode hex="0075"/>
  <outline>
    <contour>
      <point x="546" y="145" type="curve" smooth="yes"/>
      <point x="439" y="145"/>
      <point x="385" y="215"/>
      <point x="385" y="355" type="curve" smooth="yes"/>
      <point x="385" y="898" type="line"/>
      <point x="156" y="898" type="line"/>
      <point x="165" y="829"/>
      <point x="170" y="761"/>
      <point x="170" y="694" type="curve" smooth="yes"/>
      <point x="170" y="579"/>
      <point x="154" y="413"/>
      <point x="154" y="298" type="curve" smooth="yes"/>
      <point x="154" y="15"/>
      <point x="372" y="-20"/>
      <point x="479" y="-20" type="curve" smooth="yes"/>
      <point x="567" y="-20"/>
      <point x="664" y="23"/>
      <point x="712" y="111" type="curve"/>
      <point x="732" y="0" type="line"/>
      <point x="941" y="0" type="line"/>
      <point x="923" y="171"/>
      <point x="914" y="323"/>
      <point x="914" y="457" type="curve" smooth="yes"/>
      <point x="914" y="596"/>
      <point x="923" y="743"/>
      <point x="941" y="898" type="curve"/>
      <point x="712" y="898" type="line"/>
      <point x="712" y="357" type="line" smooth="yes"/>
      <point x="712" y="283"/>
      <point x="677" y="145"/>
    </contour>
  </outline>
</glyph>
<glyph name="v" format="2">
  <advance width="1019"/>
  <unicode hex="0076"/>
  <outline>
    <contour>
      <point x="844" y="898" type="line"/>
      <point x="599" y="288" type="line"/>
      <point x="471" y="497"/>
      <point x="405" y="672"/>
      <point x="366" y="898" type="curve"/>
      <point x="103" y="898" type="line"/>
      <point x="467" y="0" type="line"/>
      <point x="674" y="0" type="line"/>
      <point x="1038" y="898" type="line"/>
    </contour>
  </outline>
</glyph>
<glyph name="w" format="2">
  <advance width="1472"/>
  <unicode hex="0077"/>
  <outline>
    <contour>
      <point x="1291" y="898" type="line"/>
      <point x="1117" y="307" type="line"/>
      <point x="1018" y="495"/>
      <point x="957" y="692"/>
      <point x="934" y="898" type="curve"/>
      <point x="716" y="898" type="line"/>
      <point x="512" y="307" type="line"/>
      <point x="424" y="495"/>
      <point x="374" y="692"/>
      <point x="362" y="898" type="curve"/>
      <point x="114" y="898" type="line"/>
      <point x="384" y="0" type="line"/>
      <point x="598" y="0" type="line"/>
      <point x="792" y="586" type="line"/>
      <point x="976" y="0" type="line"/>
      <point x="1190" y="0" type="line"/>
      <point x="1488" y="898" type="line"/>
    </contour>
  </outline>
</glyph>
<glyph name="x" format="2">
  <advance width="983"/>
  <unicode hex="0078"/>
  <outline>
    <contour>
      <point x="1019" y="0" type="line"/>
      <point x="874" y="163"/>
      <point x="756" y="313"/>
      <point x="665" y="450" type="curve"/>
      <point x="983" y="881" type="line"/>
      <point x="766" y="881" type="line"/>
      <point x="565" y="609" type="line"/>
      <point x="512" y="700"/>
      <point x="463" y="790"/>
      <point x="419" y="881" type="curve"/>
      <point x="136" y="881" type="line"/>
      <point x="438" y="438" type="line"/>
      <point x="116" y="0" type="line"/>
      <point x="333" y="0" type="line"/>
      <point x="543" y="284" type="line"/>
      <point x="736" y="0" type="line"/>
    </contour>
  </outline>
</glyph>
<glyph name="y" format="2">
  <advance width="986"/>
  <unicode hex="0079"/>
  <outline>
    <contour>
      <point x="201" y="-152" type="curve"/>
      <point x="117" y="-278" type="line"/>
      <point x="198" y="-362"/>
      <point x="261" y="-385"/>
      <point x="347" y="-385" type="curve" smooth="yes"/>
      <point x="491" y="-385"/>
      <point x="599" y="-287"/>
      <point x="671" y="-90" type="curve" smooth="yes"/>
      <point x="1031" y="880" type="line"/>
      <point x="858" y="880" type="line"/>
      <point x="658" y="341" type="line"/>
      <point x="525" y="497"/>
      <point x="438" y="677"/>
      <point x="396" y="880" type="curve"/>
      <point x="125" y="880" type="line"/>
      <point x="561" y="83" type="line"/>
      <point x="558" y="74"/>
      <point x="551" y="54"/>
      <point x="542" y="24" type="curve" smooth="yes"/>
      <point x="505" y="-88"/>
      <point x="454" y="-243"/>
      <point x="335" y="-243" type="curve" smooth="yes"/>
      <point x="285" y="-243"/>
      <point x="243" y="-229"/>
    </contour>
  </outline>
</glyph>
<glyph name="z" format="2">
  <advance width="916"/>
  <unicode hex="007A"/>
  <outline>
    <contour>
      <point x="917" y="145" type="line"/>
      <point x="428" y="145" type="line"/>
      <point x="915" y="759" type="line"/>
      <point x="915" y="876" type="line"/>
      <point x="789" y="856"/>
      <point x="663" y="846"/>
      <point x="536" y="846" type="curve" smooth="yes"/>
      <point x="408" y="846"/>
      <point x="282" y="856"/>
      <point x="157" y="876" type="curve"/>
      <point x="157" y="714" type="line"/>
      <point x="617" y="714" type="line"/>
      <point x="134" y="118" type="line"/>
      <point x="134" y="0" type="line"/>
      <point x="267" y="13"/>
      <point x="398" y="20"/>
      <point x="525" y="20" type="curve" smooth="yes"/>
      <point x="653" y="20"/>
      <point x="784" y="13"/>
      <point x="917" y="0" type="curve"/>
    </contour>
  </outline>
</glyph>
<glyph name="braceleft" format="2">
  <advance width="593"/>
  <unicode hex="007B"/>
  <outline>
    <contour>
      <point x="503" y="-148" type="curve" smooth="yes"/>
      <point x="503" y="236" type="line" smooth="yes"/>
      <point x="503" y="311"/>
      <point x="481" y="372"/>
      <point x="437" y="421" type="curve"/>
      <point x="481" y="462"/>
      <point x="503" y="522"/>
      <point x="503" y="601" type="curve" smooth="yes"/>
      <point x="503" y="986" type="line" smooth="yes"/>
      <point x="503" y="1057"/>
      <point x="546" y="1064"/>
      <point x="562" y="1066" type="curve" smooth="yes"/>
      <point x="602" y="1073"/>
      <point x="630" y="1066"/>
      <point x="679" y="1066" type="curve"/>
      <point x="679" y="1210" type="line"/>
      <point x="480" y="1210" type="line" smooth="yes"/>
      <point x="370" y="1210"/>
      <point x="269" y="1168"/>
      <point x="269" y="986" type="curve" smooth="yes"/>
      <point x="269" y="574" type="line" smooth="yes"/>
      <point x="269" y="494"/>
      <point x="231" y="494"/>
      <point x="166" y="494" type="curve" smooth="yes"/>
      <point x="161" y="494"/>
      <point x="158" y="494"/>
      <point x="155" y="494" type="curve"/>
      <point x="155" y="351" type="line"/>
      <point x="158" y="351"/>
      <point x="163" y="351"/>
      <point x="170" y="351" type="curve" smooth="yes"/>
      <point x="241" y="351"/>
      <point x="269" y="347"/>
      <point x="269" y="273" type="curve" smooth="yes"/>
      <point x="269" y="-148" type="line" smooth="yes"/>
      <point x="269" y="-295"/>
      <point x="337" y="-369"/>
      <point x="474" y="-370" type="curve" smooth="yes"/>
      <point x="679" y="-370" type="line"/>
      <point x="679" y="-226" type="line"/>
      <point x="670" y="-226"/>
      <point x="657" y="-226"/>
      <point x="640" y="-228" type="curve" smooth="yes"/>
      <point x="569" y="-232"/>
      <point x="503" y="-235"/>
    </contour>
  </outline>
</glyph>
<glyph name="bar" format="2">
  <advance width="328"/>
  <unicode hex="007C"/>
  <outline>
    <contour>
      <point x="327" y="1210" type="line"/>
      <point x="155" y="1210" type="line"/>
      <point x="162" y="961"/>
      <point x="165" y="699"/>
      <point x="165" y="424" type="curve" smooth="yes"/>
      <point x="165" y="151"/>
      <point x="162" y="-111"/>
      <point x="155" y="-360" type="curve"/>
      <point x="327" y="-360" type="line"/>
    </contour>
  </outline>
</glyph>
<glyph name="braceright" format="2">
  <advance width="632"/>
  <unicode hex="007D"/>
  <outline>
    <contour>
      <point x="518" y="574" type="curve" smooth="yes"/>
      <point x="518" y="986" type="line" smooth="yes"/>
      <point x="518" y="1135"/>
      <point x="450" y="1210"/>
      <point x="314" y="1210" type="curve" smooth="yes"/>
      <point x="108" y="1210" type="line"/>
      <point x="108" y="1066" type="line"/>
      <point x="117" y="1066"/>
      <point x="131" y="1066"/>
      <point x="148" y="1068" type="curve" smooth="yes"/>
      <point x="221" y="1072"/>
      <point x="284" y="1075"/>
      <point x="284" y="986" type="curve" smooth="yes"/>
      <point x="284" y="601" type="line" smooth="yes"/>
      <point x="284" y="522"/>
      <point x="306" y="462"/>
      <point x="350" y="421" type="curve"/>
      <point x="306" y="371"/>
      <point x="284" y="309"/>
      <point x="284" y="236" type="curve" smooth="yes"/>
      <point x="284" y="-142" type="line" smooth="yes"/>
      <point x="284" y="-210"/>
      <point x="240" y="-218"/>
      <point x="224" y="-220" type="curve" smooth="yes"/>
      <point x="184" y="-227"/>
      <point x="155" y="-220"/>
      <point x="108" y="-220" type="curve"/>
      <point x="108" y="-364" type="line"/>
      <point x="307" y="-364" type="line" smooth="yes"/>
      <point x="432" y="-364"/>
      <point x="518" y="-310"/>
      <point x="518" y="-142" type="curve" smooth="yes"/>
      <point x="518" y="273" type="line" smooth="yes"/>
      <point x="518" y="351"/>
      <point x="554" y="351"/>
      <point x="632" y="351" type="curve"/>
      <point x="632" y="494" type="line"/>
      <point x="629" y="494"/>
      <point x="626" y="494"/>
      <point x="621" y="494" type="curve" smooth="yes"/>
      <point x="543" y="494"/>
      <point x="518" y="502"/>
    </contour>
  </outline>
</glyph>
<glyph name="asciitilde" format="2">
  <advance width="1177"/>
  <unicode hex="007E"/>
  <outline>
    <contour>
      <point x="824" y="1112" type="curve" smooth="yes"/>
      <point x="712" y="1112"/>
      <point x="586" y="1211"/>
      <point x="474" y="1211" type="curve" smooth="yes"/>
      <point x="342" y="1211"/>
      <point x="238" y="1090"/>
      <point x="233" y="982" type="curve"/>
      <point x="349" y="952" type="line"/>
      <point x="358" y="1016"/>
      <point x="392" y="1044"/>
      <point x="468" y="1044" type="curve" smooth="yes"/>
      <point x="578" y="1044"/>
      <point x="707" y="944"/>
      <point x="819" y="944" type="curve" smooth="yes"/>
      <point x="956" y="944"/>
      <point x="1053" y="1089"/>
      <point x="1060" y="1194" type="curve"/>
      <point x="943" y="1224" type="line"/>
      <point x="929" y="1126"/>
      <point x="861" y="1112"/>
    </contour>
  </outline>
</glyph>
<glyph name="exclamdown" format="2">
  <advance width="429"/>
  <unicode hex="00A1"/>
  <outline>
    <contour>
      <point x="294" y="-33" type="curve" smooth="yes"/>
      <point x="333" y="-33"/>
      <point x="365" y="-16"/>
      <point x="390" y="17" type="curve" smooth="yes"/>
      <point x="429" y="67"/>
      <point x="427" y="105"/>
      <point x="425" y="145" type="curve"/>
      <point x="353" y="827" type="line"/>
      <point x="226" y="827" type="line"/>
      <point x="157" y="138" type="line"/>
      <point x="148" y="17"/>
      <point x="239" y="-33"/>
    </contour>
    <contour>
      <point x="295" y="1229" type="curve" smooth="yes"/>
      <point x="211" y="1229"/>
      <point x="149" y="1163"/>
      <point x="149" y="1081" type="curve" smooth="yes"/>
      <point x="149" y="997"/>
      <point x="216" y="943"/>
      <point x="295" y="943" type="curve" smooth="yes"/>
      <point x="368" y="943"/>
      <point x="435" y="1006"/>
      <point x="435" y="1081" type="curve" smooth="yes"/>
      <point x="435" y="1159"/>
      <point x="377" y="1229"/>
    </contour>
  </outline>
</glyph>
<glyph name="cent" format="2">
  <advance width="957"/>
  <unicode hex="00A2"/>
  <outline>
    <contour>
      <point x="630" y="761" type="curve"/>
      <point x="451" y="209" type="line"/>
      <point x="402" y="268"/>
      <point x="378" y="344"/>
      <point x="378" y="439" type="curve" smooth="yes"/>
      <point x="378" y="568"/>
      <point x="445" y="755"/>
    </contour>
    <contour>
      <point x="631" y="125" type="curve" smooth="yes"/>
      <point x="601" y="125"/>
      <point x="572" y="130"/>
      <point x="544" y="140" type="curve"/>
      <point x="738" y="738" type="line"/>
      <point x="783" y="716"/>
      <point x="819" y="682"/>
      <point x="846" y="637" type="curve"/>
      <point x="958" y="703" type="line"/>
      <point x="921" y="776"/>
      <point x="861" y="831"/>
      <point x="779" y="866" type="curve"/>
      <point x="891" y="1209" type="line"/>
      <point x="775" y="1209" type="line"/>
      <point x="674" y="896" type="line"/>
      <point x="649" y="899"/>
      <point x="627" y="901"/>
      <point x="606" y="901" type="curve" smooth="yes"/>
      <point x="330" y="901"/>
      <point x="150" y="695"/>
      <point x="150" y="432" type="curve" smooth="yes"/>
      <point x="150" y="273"/>
      <point x="224" y="109"/>
      <point x="393" y="27" type="curve"/>
      <point x="295" y="-272" type="line"/>
      <point x="411" y="-272" type="line"/>
      <point x="496" y="-7" type="line"/>
      <point x="533" y="-15"/>
      <point x="570" y="-19"/>
      <point x="607" y="-19" type="curve" smooth="yes"/>
      <point x="864" y="-19"/>
      <point x="977" y="155"/>
      <point x="1004" y="204" type="curve"/>
      <point x="888" y="289" type="line"/>
      <point x="799" y="138"/>
      <point x="672" y="125"/>
    </contour>
  </outline>
</glyph>
<glyph name="sterling" format="2">
  <advance width="920"/>
  <unicode hex="00A3"/>
  <outline>
    <contour>
      <point x="237" y="820" type="curve" smooth="yes"/>
      <point x="237" y="770"/>
      <point x="241" y="720"/>
      <point x="249" y="670" type="curve"/>
      <point x="132" y="670" type="line"/>
      <point x="132" y="522" type="line"/>
      <point x="284" y="522" type="line"/>
      <point x="289" y="478"/>
      <point x="292" y="445"/>
      <point x="292" y="422" type="curve" smooth="yes"/>
      <point x="292" y="322"/>
      <point x="239" y="225"/>
      <point x="134" y="131" type="curve"/>
      <point x="144" y="0" type="line"/>
      <point x="275" y="11"/>
      <point x="402" y="17"/>
      <point x="525" y="17" type="curve" smooth="yes"/>
      <point x="653" y="17"/>
      <point x="784" y="11"/>
      <point x="919" y="0" type="curve"/>
      <point x="919" y="184" type="line"/>
      <point x="468" y="184" type="line"/>
      <point x="507" y="265"/>
      <point x="527" y="350"/>
      <point x="527" y="439" type="curve" smooth="yes"/>
      <point x="527" y="476"/>
      <point x="526" y="504"/>
      <point x="525" y="522" type="curve"/>
      <point x="761" y="522" type="line"/>
      <point x="761" y="670" type="line"/>
      <point x="497" y="670" type="line"/>
      <point x="484" y="738"/>
      <point x="478" y="797"/>
      <point x="478" y="847" type="curve" smooth="yes"/>
      <point x="478" y="997"/>
      <point x="542" y="1072"/>
      <point x="669" y="1072" type="curve" smooth="yes"/>
      <point x="720" y="1072"/>
      <point x="778" y="1060"/>
      <point x="845" y="1035" type="curve"/>
      <point x="904" y="1173" type="line"/>
      <point x="822" y="1208"/>
      <point x="736" y="1226"/>
      <point x="646" y="1226" type="curve" smooth="yes"/>
      <point x="345" y="1226"/>
      <point x="237" y="1067"/>
    </contour>
  </outline>
</glyph>
<glyph name="currency" format="2">
  <advance width="912"/>
  <unicode hex="00A4"/>
  <outline>
    <contour>
      <point x="532" y="395" type="curve" smooth="yes"/>
      <point x="402" y="395"/>
      <point x="397" y="577"/>
      <point x="397" y="605" type="curve" smooth="yes"/>
      <point x="397" y="652"/>
      <point x="406" y="829"/>
      <point x="540" y="829" type="curve" smooth="yes"/>
      <point x="667" y="829"/>
      <point x="674" y="655"/>
      <point x="674" y="619" type="curve" smooth="yes"/>
      <point x="674" y="568"/>
      <point x="664" y="395"/>
    </contour>
    <contour>
      <point x="781" y="1072" type="line"/>
      <point x="652" y="942" type="line"/>
      <point x="615" y="956"/>
      <point x="576" y="963"/>
      <point x="536" y="963" type="curve" smooth="yes"/>
      <point x="499" y="963"/>
      <point x="461" y="956"/>
      <point x="421" y="942" type="curve"/>
      <point x="292" y="1072" type="line"/>
      <point x="158" y="936" type="line"/>
      <point x="260" y="831" type="line"/>
      <point x="210" y="768"/>
      <point x="185" y="695"/>
      <point x="185" y="612" type="curve" smooth="yes"/>
      <point x="185" y="529"/>
      <point x="210" y="456"/>
      <point x="260" y="393" type="curve"/>
      <point x="158" y="288" type="line"/>
      <point x="292" y="152" type="line"/>
      <point x="421" y="282" type="line"/>
      <point x="462" y="269"/>
      <point x="501" y="262"/>
      <point x="536" y="262" type="curve" smooth="yes"/>
      <point x="575" y="262"/>
      <point x="614" y="269"/>
      <point x="652" y="282" type="curve"/>
      <point x="781" y="152" type="line"/>
      <point x="915" y="288" type="line"/>
      <point x="810" y="394" type="line"/>
      <point x="862" y="457"/>
      <point x="888" y="530"/>
      <point x="888" y="612" type="curve" smooth="yes"/>
      <point x="888" y="693"/>
      <point x="862" y="766"/>
      <point x="810" y="831" type="curve"/>
      <point x="915" y="936" type="line"/>
    </contour>
  </outline>
</glyph>
<glyph name="yen" format="2">
  <advance width="1060"/>
  <unicode hex="00A5"/>
  <outline>
    <contour>
      <point x="915" y="1210" type="line"/>
      <point x="665" y="708" type="line"/>
      <point x="595" y="778"/>
      <point x="500" y="888"/>
      <point x="395" y="1210" type="curve"/>
      <point x="122" y="1210" type="line"/>
      <point x="383" y="737" type="line"/>
      <point x="211" y="737" type="line"/>
      <point x="211" y="592" type="line"/>
      <point x="463" y="592" type="line"/>
      <point x="503" y="520" type="line"/>
      <point x="503" y="477" type="line"/>
      <point x="211" y="477" type="line"/>
      <point x="211" y="332" type="line"/>
      <point x="503" y="332" type="line"/>
      <point x="503" y="0" type="line"/>
      <point x="734" y="0" type="line"/>
      <point x="728" y="88"/>
      <point x="725" y="176"/>
      <point x="725" y="263" type="curve"/>
      <point x="726" y="332" type="line"/>
      <point x="1017" y="332" type="line"/>
      <point x="1017" y="477" type="line"/>
      <point x="731" y="477" type="line"/>
      <point x="734" y="522" type="line"/>
      <point x="770" y="592" type="line"/>
      <point x="1017" y="592" type="line"/>
      <point x="1017" y="737" type="line"/>
      <point x="846" y="737" type="line"/>
      <point x="1094" y="1210" type="line"/>
    </contour>
  </outline>
</glyph>
<glyph name="brokenbar" format="2">
  <advance width="320"/>
  <unicode hex="00A6"/>
  <outline>
    <contour>
      <point x="318" y="-366" type="line"/>
      <point x="311" y="-250"/>
      <point x="308" y="-128"/>
      <point x="308" y="0" type="curve" smooth="yes"/>
      <point x="308" y="128"/>
      <point x="311" y="250"/>
      <point x="318" y="365" type="curve"/>
      <point x="143" y="365" type="line"/>
      <point x="143" y="-366" type="line"/>
    </contour>
    <contour>
      <point x="318" y="1209" type="line"/>
      <point x="143" y="1209" type="line"/>
      <point x="151" y="1095"/>
      <point x="155" y="981"/>
      <point x="155" y="867" type="curve" smooth="yes"/>
      <point x="155" y="753"/>
      <point x="151" y="638"/>
      <point x="143" y="523" type="curve"/>
      <point x="318" y="523" type="line"/>
    </contour>
  </outline>
</glyph>
<glyph name="section" format="2">
  <advance width="964"/>
  <unicode hex="00A7"/>
  <outline>
    <contour>
      <point x="699" y="242" type="curve"/>
      <point x="683" y="249"/>
      <point x="657" y="256"/>
      <point x="622" y="265" type="curve" smooth="yes"/>
      <point x="431" y="311"/>
      <point x="307" y="341"/>
      <point x="307" y="440" type="curve" smooth="yes"/>
      <point x="307" y="535"/>
      <point x="392" y="581"/>
      <point x="423" y="594" type="curve"/>
      <point x="440" y="588"/>
      <point x="468" y="582"/>
      <point x="504" y="576" type="curve" smooth="yes"/>
      <point x="693" y="545"/>
      <point x="803" y="513"/>
      <point x="803" y="400" type="curve" smooth="yes"/>
      <point x="803" y="301"/>
      <point x="727" y="256"/>
    </contour>
    <contour>
      <point x="365" y="911" type="curve" smooth="yes"/>
      <point x="365" y="1003"/>
      <point x="476" y="1063"/>
      <point x="588" y="1063" type="curve" smooth="yes"/>
      <point x="679" y="1063"/>
      <point x="759" y="1028"/>
      <point x="828" y="959" type="curve"/>
      <point x="892" y="1086" type="line"/>
      <point x="768" y="1218"/>
      <point x="628" y="1233"/>
      <point x="570" y="1233" type="curve" smooth="yes"/>
      <point x="358" y="1233"/>
      <point x="208" y="1079"/>
      <point x="208" y="871" type="curve" smooth="yes"/>
      <point x="208" y="794"/>
      <point x="227" y="728"/>
      <point x="264" y="675" type="curve"/>
      <point x="179" y="602"/>
      <point x="144" y="497"/>
      <point x="144" y="401" type="curve" smooth="yes"/>
      <point x="144" y="-69"/>
      <point x="745" y="178"/>
      <point x="745" y="-66" type="curve" smooth="yes"/>
      <point x="745" y="-159"/>
      <point x="651" y="-227"/>
      <point x="514" y="-227" type="curve" smooth="yes"/>
      <point x="408" y="-227"/>
      <point x="319" y="-181"/>
      <point x="247" y="-89" type="curve"/>
      <point x="183" y="-226" type="line"/>
      <point x="315" y="-384"/>
      <point x="484" y="-397"/>
      <point x="538" y="-397" type="curve" smooth="yes"/>
      <point x="743" y="-397"/>
      <point x="899" y="-257"/>
      <point x="899" y="-43" type="curve" smooth="yes"/>
      <point x="899" y="35"/>
      <point x="880" y="102"/>
      <point x="843" y="157" type="curve"/>
      <point x="924" y="223"/>
      <point x="964" y="312"/>
      <point x="964" y="425" type="curve" smooth="yes"/>
      <point x="964" y="903"/>
      <point x="365" y="700"/>
    </contour>
  </outline>
</glyph>
<glyph name="dieresis" format="2">
  <advance width="794"/>
  <unicode hex="00A8"/>
  <outline>
    <contour>
      <point x="287" y="1205" type="curve" smooth="yes"/>
      <point x="224" y="1205"/>
      <point x="162" y="1160"/>
      <point x="162" y="1089" type="curve" smooth="yes"/>
      <point x="162" y="1019"/>
      <point x="224" y="975"/>
      <point x="287" y="975" type="curve" smooth="yes"/>
      <point x="349" y="975"/>
      <point x="413" y="1019"/>
      <point x="413" y="1089" type="curve" smooth="yes"/>
      <point x="413" y="1160"/>
      <point x="352" y="1205"/>
    </contour>
    <contour>
      <point x="648" y="1205" type="curve" smooth="yes"/>
      <point x="584" y="1205"/>
      <point x="521" y="1160"/>
      <point x="521" y="1089" type="curve" smooth="yes"/>
      <point x="521" y="1019"/>
      <point x="584" y="975"/>
      <point x="648" y="975" type="curve" smooth="yes"/>
      <point x="711" y="975"/>
      <point x="773" y="1019"/>
      <point x="773" y="1089" type="curve" smooth="yes"/>
      <point x="773" y="1160"/>
      <point x="711" y="1205"/>
    </contour>
  </outline>
</glyph>
<glyph name="copyright" format="2">
  <advance width="1386"/>
  <unicode hex="00A9"/>
  <outline>
    <contour>
      <point x="1108" y="421" type="curve"/>
      <point x="995" y="503" type="line"/>
      <point x="927" y="387"/>
      <point x="843" y="372"/>
      <point x="804" y="372" type="curve" smooth="yes"/>
      <point x="670" y="372"/>
      <point x="625" y="500"/>
      <point x="625" y="595" type="curve" smooth="yes"/>
      <point x="625" y="694"/>
      <point x="677" y="825"/>
      <point x="810" y="825" type="curve" smooth="yes"/>
      <point x="871" y="825"/>
      <point x="922" y="792"/>
      <point x="963" y="726" type="curve"/>
      <point x="1073" y="789" type="line"/>
      <point x="997" y="934"/>
      <point x="857" y="959"/>
      <point x="785" y="959" type="curve" smooth="yes"/>
      <point x="563" y="959"/>
      <point x="421" y="794"/>
      <point x="421" y="589" type="curve" smooth="yes"/>
      <point x="421" y="379"/>
      <point x="576" y="233"/>
      <point x="785" y="233" type="curve" smooth="yes"/>
      <point x="987" y="233"/>
      <point x="1080" y="370"/>
    </contour>
    <contour>
      <point x="1252" y="603" type="curve" smooth="yes"/>
      <point x="1252" y="341"/>
      <point x="1039" y="130"/>
      <point x="775" y="130" type="curve" smooth="yes"/>
      <point x="508" y="130"/>
      <point x="297" y="342"/>
      <point x="297" y="603" type="curve" smooth="yes"/>
      <point x="297" y="864"/>
      <point x="508" y="1076"/>
      <point x="775" y="1076" type="curve" smooth="yes"/>
      <point x="1039" y="1076"/>
      <point x="1252" y="865"/>
    </contour>
    <contour>
      <point x="1397" y="603" type="curve" smooth="yes"/>
      <point x="1397" y="941"/>
      <point x="1119" y="1220"/>
      <point x="775" y="1220" type="curve" smooth="yes"/>
      <point x="431" y="1220"/>
      <point x="152" y="941"/>
      <point x="152" y="603" type="curve" smooth="yes"/>
      <point x="152" y="268"/>
      <point x="427" y="-12"/>
      <point x="775" y="-12" type="curve" smooth="yes"/>
      <point x="1124" y="-12"/>
      <point x="1397" y="264"/>
    </contour>
  </outline>
</glyph>
<glyph name="ordfeminine" format="2">
  <advance width="624"/>
  <unicode hex="00AA"/>
  <outline>
    <contour>
      <point x="367" y="828" type="curve" smooth="yes"/>
      <point x="342" y="828"/>
      <point x="324" y="846"/>
      <point x="324" y="873" type="curve" smooth="yes"/>
      <point x="324" y="934"/>
      <point x="456" y="942"/>
      <point x="457" y="942" type="curve"/>
      <point x="457" y="918" type="line"/>
      <point x="458" y="867"/>
      <point x="416" y="828"/>
    </contour>
    <contour>
      <point x="605" y="1022" type="curve" smooth="yes"/>
      <point x="605" y="1144"/>
      <point x="495" y="1230"/>
      <point x="382" y="1230" type="curve" smooth="yes"/>
      <point x="268" y="1230"/>
      <point x="190" y="1149"/>
      <point x="158" y="1108" type="curve"/>
      <point x="252" y="1059" type="line"/>
      <point x="272" y="1094"/>
      <point x="308" y="1112"/>
      <point x="359" y="1112" type="curve" smooth="yes"/>
      <point x="396" y="1112"/>
      <point x="424" y="1082"/>
      <point x="433" y="1052" type="curve"/>
      <point x="281" y="1027"/>
      <point x="160" y="1006"/>
      <point x="160" y="873" type="curve" smooth="yes"/>
      <point x="160" y="781"/>
      <point x="235" y="708"/>
      <point x="326" y="708" type="curve" smooth="yes"/>
      <point x="401" y="708"/>
      <point x="444" y="764"/>
      <point x="452" y="775" type="curve"/>
      <point x="463" y="716" type="line"/>
      <point x="622" y="716" type="line"/>
      <point x="608" y="800"/>
      <point x="601" y="860"/>
      <point x="601" y="896" type="curve" smooth="yes"/>
      <point x="601" y="933"/>
      <point x="605" y="985"/>
    </contour>
  </outline>
</glyph>
<glyph name="guillemotleft" format="2">
  <advance width="797"/>
  <unicode hex="00AB"/>
  <outline>
    <contour>
      <point x="510" y="155" type="line"/>
      <point x="378" y="454" type="line"/>
      <point x="510" y="754" type="line"/>
      <point x="510" y="928" type="line"/>
      <point x="403" y="752"/>
      <point x="281" y="594"/>
      <point x="144" y="454" type="curve"/>
      <point x="284" y="308"/>
      <point x="406" y="150"/>
      <point x="510" y="-20" type="curve"/>
    </contour>
    <contour>
      <point x="800" y="155" type="line"/>
      <point x="668" y="454" type="line"/>
      <point x="800" y="754" type="line"/>
      <point x="800" y="928" type="line"/>
      <point x="693" y="752"/>
      <point x="571" y="594"/>
      <point x="434" y="454" type="curve"/>
      <point x="574" y="308"/>
      <point x="696" y="150"/>
      <point x="800" y="-20" type="curve"/>
    </contour>
  </outline>
</glyph>
<glyph name="logicalnot" format="2">
  <advance width="1139"/>
  <unicode hex="00AC"/>
  <outline>
    <contour>
      <point x="1106" y="739" type="line"/>
      <point x="166" y="739" type="line"/>
      <point x="166" y="555" type="line"/>
      <point x="905" y="555" type="line"/>
      <point x="905" y="211" type="line"/>
      <point x="1106" y="211" type="line"/>
    </contour>
  </outline>
</glyph>
<glyph name="uni00AD" format="2">
  <advance width="890"/>
  <unicode hex="00AD"/>
  <outline>
    <contour>
      <point x="865" y="445" type="line"/>
      <point x="174" y="445" type="line"/>
      <point x="174" y="264" type="line"/>
      <point x="865" y="264" type="line"/>
    </contour>
  </outline>
</glyph>
<glyph name="registered" format="2">
  <advance width="1386"/>
  <unicode hex="00AE"/>
  <outline>
    <contour>
      <point x="883" y="758" type="curve" smooth="yes"/>
      <point x="883" y="706"/>
      <point x="831" y="682"/>
      <point x="784" y="682" type="curve" smooth="yes"/>
      <point x="735" y="682" type="line"/>
      <point x="735" y="835" type="line"/>
      <point x="792" y="835" type="line" smooth="yes"/>
      <point x="838" y="835"/>
      <point x="883" y="809"/>
    </contour>
    <contour>
      <point x="1045" y="747" type="curve" smooth="yes"/>
      <point x="1045" y="884"/>
      <point x="911" y="951"/>
      <point x="807" y="951" type="curve" smooth="yes"/>
      <point x="765" y="951"/>
      <point x="705" y="945"/>
      <point x="665" y="945" type="curve" smooth="yes"/>
      <point x="640" y="945"/>
      <point x="607" y="949"/>
      <point x="566" y="956" type="curve"/>
      <point x="577" y="840"/>
      <point x="583" y="729"/>
      <point x="583" y="622" type="curve" smooth="yes"/>
      <point x="583" y="515"/>
      <point x="577" y="405"/>
      <point x="566" y="292" type="curve"/>
      <point x="731" y="292" type="line"/>
      <point x="731" y="566" type="line"/>
      <point x="762" y="566" type="line"/>
      <point x="901" y="292" type="line"/>
      <point x="1092" y="292" type="line"/>
      <point x="1017" y="389"/>
      <point x="961" y="488"/>
      <point x="924" y="587" type="curve"/>
      <point x="1033" y="629"/>
      <point x="1045" y="711"/>
    </contour>
    <contour>
      <point x="1252" y="606" type="curve" smooth="yes"/>
      <point x="1252" y="343"/>
      <point x="1042" y="131"/>
      <point x="778" y="131" type="curve" smooth="yes"/>
      <point x="513" y="131"/>
      <point x="304" y="344"/>
      <point x="304" y="606" type="curve" smooth="yes"/>
      <point x="304" y="868"/>
      <point x="513" y="1081"/>
      <point x="778" y="1081" type="curve" smooth="yes"/>
      <point x="1042" y="1081"/>
      <point x="1252" y="869"/>
    </contour>
    <contour>
      <point x="1396" y="606" type="curve" smooth="yes"/>
      <point x="1396" y="948"/>
      <point x="1122" y="1225"/>
      <point x="778" y="1225" type="curve" smooth="yes"/>
      <point x="434" y="1225"/>
      <point x="160" y="948"/>
      <point x="160" y="606" type="curve" smooth="yes"/>
      <point x="160" y="264"/>
      <point x="434" y="-13"/>
      <point x="778" y="-13" type="curve" smooth="yes"/>
      <point x="1122" y="-13"/>
      <point x="1396" y="264"/>
    </contour>
  </outline>
</glyph>
<glyph name="degree" format="2">
  <advance width="605"/>
  <unicode hex="00B0"/>
  <outline>
    <contour>
      <point x="378" y="832" type="curve" smooth="yes"/>
      <point x="295" y="832"/>
      <point x="283" y="933"/>
      <point x="283" y="994" type="curve" smooth="yes"/>
      <point x="283" y="1028"/>
      <point x="289" y="1136"/>
      <point x="372" y="1136" type="curve" smooth="yes"/>
      <point x="455" y="1136"/>
      <point x="467" y="1035"/>
      <point x="467" y="974" type="curve" smooth="yes"/>
      <point x="467" y="944"/>
      <point x="461" y="832"/>
    </contour>
    <contour>
      <point x="375" y="1233" type="curve" smooth="yes"/>
      <point x="142" y="1233"/>
      <point x="136" y="1008"/>
      <point x="136" y="984" type="curve" smooth="yes"/>
      <point x="136" y="844"/>
      <point x="222" y="735"/>
      <point x="375" y="735" type="curve" smooth="yes"/>
      <point x="609" y="735"/>
      <point x="614" y="964"/>
      <point x="614" y="984" type="curve" smooth="yes"/>
      <point x="614" y="1124"/>
      <point x="528" y="1233"/>
    </contour>
  </outline>
</glyph>
<glyph name="plusminus" format="2">
  <advance width="1081"/>
  <unicode hex="00B1"/>
  <outline>
    <contour>
      <point x="1061" y="153" type="line"/>
      <point x="184" y="153" type="line"/>
      <point x="184" y="-22" type="line"/>
      <point x="1061" y="-22" type="line"/>
    </contour>
    <contour>
      <point x="1060" y="653" type="line"/>
      <point x="750" y="653" type="line"/>
      <point x="750" y="914" type="line"/>
      <point x="502" y="914" type="line"/>
      <point x="502" y="653" type="line"/>
      <point x="184" y="653" type="line"/>
      <point x="184" y="466" type="line"/>
      <point x="502" y="466" type="line"/>
      <point x="502" y="196" type="line"/>
      <point x="750" y="196" type="line"/>
      <point x="750" y="466" type="line"/>
      <point x="1060" y="466" type="line"/>
    </contour>
  </outline>
</glyph>
<glyph name="uni00B2" format="2">
  <advance width="612"/>
  <unicode hex="00B2"/>
  <outline>
    <contour>
      <point x="376" y="1232" type="curve" smooth="yes"/>
      <point x="293" y="1232"/>
      <point x="220" y="1186"/>
      <point x="155" y="1095" type="curve"/>
      <point x="217" y="1020" type="line"/>
      <point x="255" y="1072"/>
      <point x="298" y="1098"/>
      <point x="345" y="1098" type="curve" smooth="yes"/>
      <point x="391" y="1098"/>
      <point x="433" y="1068"/>
      <point x="433" y="1015" type="curve" smooth="yes"/>
      <point x="433" y="855"/>
      <point x="159" y="940"/>
      <point x="159" y="663" type="curve" smooth="yes"/>
      <point x="159" y="607" type="line"/>
      <point x="258" y="612"/>
      <point x="331" y="615"/>
      <point x="380" y="615" type="curve" smooth="yes"/>
      <point x="430" y="615"/>
      <point x="505" y="612"/>
      <point x="605" y="607" type="curve"/>
      <point x="605" y="735" type="line"/>
      <point x="351" y="735" type="line"/>
      <point x="386" y="845"/>
      <point x="609" y="790"/>
      <point x="609" y="1014" type="curve" smooth="yes"/>
      <point x="609" y="1147"/>
      <point x="497" y="1232"/>
    </contour>
  </outline>
</glyph>
<glyph name="uni00B3" format="2">
  <advance width="610"/>
  <unicode hex="00B3"/>
  <outline>
    <contour>
      <point x="379" y="1227" type="curve" smooth="yes"/>
      <point x="257" y="1227"/>
      <point x="180" y="1146"/>
      <point x="156" y="1117" type="curve"/>
      <point x="224" y="1041" type="line"/>
      <point x="263" y="1105"/>
      <point x="329" y="1108"/>
      <point x="340" y="1108" type="curve" smooth="yes"/>
      <point x="368" y="1108"/>
      <point x="427" y="1094"/>
      <point x="427" y="1045" type="curve" smooth="yes"/>
      <point x="427" y="1001"/>
      <point x="376" y="972"/>
      <point x="338" y="973" type="curve"/>
      <point x="267" y="973" type="line"/>
      <point x="267" y="867" type="line"/>
      <point x="273" y="867"/>
      <point x="301" y="870"/>
      <point x="311" y="870" type="curve" smooth="yes"/>
      <point x="368" y="870"/>
      <point x="426" y="870"/>
      <point x="426" y="799" type="curve" smooth="yes"/>
      <point x="426" y="739"/>
      <point x="379" y="720"/>
      <point x="339" y="720" type="curve" smooth="yes"/>
      <point x="257" y="720"/>
      <point x="218" y="774"/>
      <point x="210" y="786" type="curve"/>
      <point x="143" y="697" type="line"/>
      <point x="205" y="633"/>
      <point x="281" y="601"/>
      <point x="371" y="601" type="curve" smooth="yes"/>
      <point x="481" y="601"/>
      <point x="611" y="660"/>
      <point x="611" y="807" type="curve" smooth="yes"/>
      <point x="611" y="854"/>
      <point x="584" y="896"/>
      <point x="529" y="933" type="curve"/>
      <point x="579" y="964"/>
      <point x="604" y="1001"/>
      <point x="604" y="1044" type="curve" smooth="yes"/>
      <point x="604" y="1170"/>
      <point x="476" y="1227"/>
    </contour>
  </outline>
</glyph>
<glyph name="acute" format="2">
  <advance width="618"/>
  <unicode hex="00B4"/>
  <outline>
    <contour>
      <point x="333" y="1518" type="line"/>
      <point x="292" y="1440"/>
      <point x="231" y="1356"/>
      <point x="152" y="1265" type="curve"/>
      <point x="354" y="1265" type="line"/>
      <point x="613" y="1518" type="line"/>
    </contour>
  </outline>
</glyph>
<glyph name="paragraph" format="2">
  <advance width="1349"/>
  <unicode hex="00B6"/>
  <outline>
    <contour>
      <point x="604" y="1214" type="curve" smooth="yes"/>
      <point x="413" y="1214"/>
      <point x="152" y="1128"/>
      <point x="152" y="857" type="curve" smooth="yes"/>
      <point x="152" y="644"/>
      <point x="315" y="479"/>
      <point x="529" y="479" type="curve" smooth="yes"/>
      <point x="683" y="479" type="line"/>
      <point x="708" y="334"/>
      <point x="721" y="200"/>
      <point x="721" y="79" type="curve" smooth="yes"/>
      <point x="721" y="-38"/>
      <point x="708" y="-174"/>
      <point x="683" y="-329" type="curve"/>
      <point x="944" y="-329" type="line"/>
      <point x="944" y="990" type="line"/>
      <point x="1023" y="990" type="line"/>
      <point x="1023" y="-332" type="line"/>
      <point x="1179" y="-332" type="line"/>
      <point x="1168" y="-103"/>
      <point x="1162" y="119"/>
      <point x="1162" y="335" type="curve" smooth="yes"/>
      <point x="1162" y="547"/>
      <point x="1168" y="765"/>
      <point x="1179" y="990" type="curve"/>
      <point x="1342" y="990" type="line"/>
      <point x="1342" y="1213" type="line"/>
      <point x="1266" y="1206"/>
      <point x="1186" y="1203"/>
      <point x="1102" y="1203" type="curve" smooth="yes"/>
      <point x="957" y="1203"/>
      <point x="749" y="1214"/>
    </contour>
  </outline>
</glyph>
<glyph name="periodcentered" format="2">
  <advance width="363"/>
  <unicode hex="00B7"/>
  <outline>
    <contour>
      <point x="231" y="600" type="curve" smooth="yes"/>
      <point x="163" y="600"/>
      <point x="95" y="559"/>
      <point x="95" y="477" type="curve" smooth="yes"/>
      <point x="95" y="398"/>
      <point x="154" y="342"/>
      <point x="231" y="342" type="curve" smooth="yes"/>
      <point x="306" y="342"/>
      <point x="363" y="404"/>
      <point x="363" y="477" type="curve" smooth="yes"/>
      <point x="363" y="549"/>
      <point x="296" y="600"/>
    </contour>
  </outline>
</glyph>
<glyph name="cedilla" format="2">
  <advance width="687"/>
  <unicode hex="00B8"/>
  <outline>
    <contour>
      <point x="517" y="-64" type="curve" smooth="yes"/>
      <point x="496" y="-64"/>
      <point x="480" y="-65"/>
      <point x="469" y="-66" type="curve"/>
      <point x="534" y="39" type="line"/>
      <point x="416" y="59" type="line"/>
      <point x="291" y="-126" type="line"/>
      <point x="330" y="-182" type="line"/>
      <point x="353" y="-156"/>
      <point x="378" y="-143"/>
      <point x="404" y="-143" type="curve" smooth="yes"/>
      <point x="409" y="-143"/>
      <point x="485" y="-144"/>
      <point x="485" y="-190" type="curve" smooth="yes"/>
      <point x="485" y="-254"/>
      <point x="416" y="-295"/>
      <point x="362" y="-295" type="curve" smooth="yes"/>
      <point x="319" y="-295"/>
      <point x="285" y="-277"/>
      <point x="261" y="-242" type="curve"/>
      <point x="155" y="-285" type="line"/>
      <point x="211" y="-383"/>
      <point x="330" y="-392"/>
      <point x="374" y="-392" type="curve" smooth="yes"/>
      <point x="515" y="-392"/>
      <point x="686" y="-310"/>
      <point x="686" y="-179" type="curve" smooth="yes"/>
      <point x="686" y="-70"/>
      <point x="546" y="-64"/>
    </contour>
  </outline>
</glyph>
<glyph name="uni00B9" format="2">
  <advance width="397"/>
  <unicode hex="00B9"/>
  <outline>
    <contour>
      <point x="392" y="603" type="line"/>
      <point x="381" y="716"/>
      <point x="375" y="816"/>
      <point x="375" y="903" type="curve" smooth="yes"/>
      <point x="375" y="992"/>
      <point x="381" y="1093"/>
      <point x="392" y="1208" type="curve"/>
      <point x="253" y="1208" type="line"/>
      <point x="220" y="1173"/>
      <point x="183" y="1142"/>
      <point x="142" y="1116" type="curve"/>
      <point x="142" y="996" type="line"/>
      <point x="214" y="1034" type="line"/>
      <point x="214" y="603" type="line"/>
    </contour>
  </outline>
</glyph>
<glyph name="ordmasculine" format="2">
  <advance width="632"/>
  <unicode hex="00BA"/>
  <outline>
    <contour>
      <point x="324" y="1027" type="curve" smooth="yes"/>
      <point x="324" y="1084"/>
      <point x="343" y="1113"/>
      <point x="381" y="1113" type="curve" smooth="yes"/>
      <point x="460" y="1113"/>
      <point x="462" y="951"/>
      <point x="462" y="932" type="curve" smooth="yes"/>
      <point x="462" y="875"/>
      <point x="443" y="847"/>
      <point x="405" y="847" type="curve" smooth="yes"/>
      <point x="328" y="847"/>
      <point x="324" y="995"/>
    </contour>
    <contour>
      <point x="393" y="1235" type="curve" smooth="yes"/>
      <point x="243" y="1235"/>
      <point x="159" y="1109"/>
      <point x="159" y="978" type="curve" smooth="yes"/>
      <point x="159" y="849"/>
      <point x="241" y="723"/>
      <point x="393" y="723" type="curve" smooth="yes"/>
      <point x="542" y="723"/>
      <point x="627" y="846"/>
      <point x="627" y="978" type="curve" smooth="yes"/>
      <point x="627" y="1106"/>
      <point x="544" y="1235"/>
    </contour>
  </outline>
</glyph>
<glyph name="guillemotright" format="2">
  <advance width="813"/>
  <unicode hex="00BB"/>
  <outline>
    <contour>
      <point x="520" y="454" type="curve"/>
      <point x="381" y="597"/>
      <point x="259" y="755"/>
      <point x="154" y="928" type="curve"/>
      <point x="154" y="754" type="line"/>
      <point x="286" y="454" type="line"/>
      <point x="154" y="155" type="line"/>
      <point x="154" y="-20" type="line"/>
      <point x="258" y="150"/>
      <point x="380" y="308"/>
    </contour>
    <contour>
      <point x="810" y="454" type="curve"/>
      <point x="671" y="597"/>
      <point x="549" y="755"/>
      <point x="444" y="928" type="curve"/>
      <point x="444" y="754" type="line"/>
      <point x="576" y="454" type="line"/>
      <point x="444" y="155" type="line"/>
      <point x="444" y="-20" type="line"/>
      <point x="548" y="150"/>
      <point x="670" y="308"/>
    </contour>
  </outline>
</glyph>
<glyph name="onequarter" format="2">
  <advance width="1001"/>
  <unicode hex="00BC"/>
  <outline>
    <contour>
      <point x="645" y="237" type="line"/>
      <point x="772" y="406" type="line"/>
      <point x="772" y="237" type="line"/>
    </contour>
    <contour>
      <point x="1006" y="237" type="line"/>
      <point x="928" y="237" type="line"/>
      <point x="928" y="318" type="line" smooth="yes"/>
      <point x="927" y="392"/>
      <point x="931" y="488"/>
      <point x="938" y="607" type="curve"/>
      <point x="795" y="607" type="line"/>
      <point x="751" y="549"/>
      <point x="696" y="458"/>
      <point x="649" y="403" type="curve" smooth="yes"/>
      <point x="613" y="360"/>
      <point x="489" y="226"/>
      <point x="487" y="224" type="curve"/>
      <point x="487" y="117" type="line"/>
      <point x="772" y="117" type="line"/>
      <point x="772" y="2" type="line"/>
      <point x="938" y="2" type="line"/>
      <point x="937" y="28"/>
      <point x="935" y="66"/>
      <point x="932" y="117" type="curve"/>
      <point x="1006" y="117" type="line"/>
    </contour>
    <contour>
      <point x="412" y="503" type="line"/>
      <point x="401" y="616"/>
      <point x="395" y="716"/>
      <point x="395" y="803" type="curve" smooth="yes"/>
      <point x="395" y="892"/>
      <point x="401" y="993"/>
      <point x="412" y="1108" type="curve"/>
      <point x="273" y="1108" type="line"/>
      <point x="240" y="1073"/>
      <point x="203" y="1042"/>
      <point x="162" y="1016" type="curve"/>
      <point x="162" y="896" type="line"/>
      <point x="234" y="934" type="line"/>
      <point x="234" y="503" type="line"/>
    </contour>
    <contour>
      <point x="858" y="1107" type="line"/>
      <point x="158" y="-2" type="line"/>
      <point x="279" y="-2" type="line"/>
      <point x="979" y="1107" type="line"/>
    </contour>
  </outline>
</glyph>
<glyph name="onehalf" format="2">
  <advance width="1105"/>
  <unicode hex="00BD"/>
  <outline>
    <contour>
      <point x="392" y="503" type="line"/>
      <point x="381" y="616"/>
      <point x="375" y="716"/>
      <point x="375" y="803" type="curve" smooth="yes"/>
      <point x="375" y="892"/>
      <point x="381" y="993"/>
      <point x="392" y="1108" type="curve"/>
      <point x="253" y="1108" type="line"/>
      <point x="220" y="1073"/>
      <point x="183" y="1042"/>
      <point x="142" y="1016" type="curve"/>
      <point x="142" y="896" type="line"/>
      <point x="214" y="934" type="line"/>
      <point x="214" y="503" type="line"/>
    </contour>
    <contour>
      <point x="858" y="1107" type="line"/>
      <point x="158" y="-2" type="line"/>
      <point x="279" y="-2" type="line"/>
      <point x="979" y="1107" type="line"/>
    </contour>
    <contour>
      <point x="866" y="625" type="curve" smooth="yes"/>
      <point x="783" y="625"/>
      <point x="710" y="579"/>
      <point x="645" y="488" type="curve"/>
      <point x="707" y="413" type="line"/>
      <point x="745" y="465"/>
      <point x="788" y="491"/>
      <point x="835" y="491" type="curve" smooth="yes"/>
      <point x="881" y="491"/>
      <point x="923" y="461"/>
      <point x="923" y="408" type="curve" smooth="yes"/>
      <point x="923" y="248"/>
      <point x="649" y="333"/>
      <point x="649" y="56" type="curve" smooth="yes"/>
      <point x="649" y="0" type="line"/>
      <point x="748" y="5"/>
      <point x="821" y="8"/>
      <point x="870" y="8" type="curve" smooth="yes"/>
      <point x="920" y="8"/>
      <point x="995" y="5"/>
      <point x="1095" y="0" type="curve"/>
      <point x="1095" y="128" type="line"/>
      <point x="841" y="128" type="line"/>
      <point x="876" y="238"/>
      <point x="1099" y="183"/>
      <point x="1099" y="407" type="curve" smooth="yes"/>
      <point x="1099" y="540"/>
      <point x="987" y="625"/>
    </contour>
  </outline>
</glyph>
<glyph name="threequarters" format="2">
  <advance width="1103"/>
  <unicode hex="00BE"/>
  <outline>
    <contour>
      <point x="745" y="237" type="line"/>
      <point x="872" y="406" type="line"/>
      <point x="872" y="237" type="line"/>
    </contour>
    <contour>
      <point x="1106" y="237" type="line"/>
      <point x="1028" y="237" type="line"/>
      <point x="1028" y="318" type="line" smooth="yes"/>
      <point x="1027" y="392"/>
      <point x="1031" y="488"/>
      <point x="1038" y="607" type="curve"/>
      <point x="895" y="607" type="line"/>
      <point x="851" y="549"/>
      <point x="796" y="458"/>
      <point x="749" y="403" type="curve" smooth="yes"/>
      <point x="713" y="360"/>
      <point x="589" y="226"/>
      <point x="587" y="224" type="curve"/>
      <point x="587" y="117" type="line"/>
      <point x="872" y="117" type="line"/>
      <point x="872" y="2" type="line"/>
      <point x="1038" y="2" type="line"/>
      <point x="1037" y="28"/>
      <point x="1035" y="66"/>
      <point x="1032" y="117" type="curve"/>
      <point x="1106" y="117" type="line"/>
    </contour>
    <contour>
      <point x="389" y="1127" type="curve" smooth="yes"/>
      <point x="267" y="1127"/>
      <point x="190" y="1046"/>
      <point x="166" y="1017" type="curve"/>
      <point x="234" y="941" type="line"/>
      <point x="273" y="1005"/>
      <point x="339" y="1008"/>
      <point x="350" y="1008" type="curve" smooth="yes"/>
      <point x="378" y="1008"/>
      <point x="437" y="994"/>
      <point x="437" y="945" type="curve" smooth="yes"/>
      <point x="437" y="901"/>
      <point x="386" y="872"/>
      <point x="348" y="873" type="curve"/>
      <point x="277" y="873" type="line"/>
      <point x="277" y="767" type="line"/>
      <point x="283" y="767"/>
      <point x="311" y="770"/>
      <point x="321" y="770" type="curve" smooth="yes"/>
      <point x="378" y="770"/>
      <point x="436" y="770"/>
      <point x="436" y="699" type="curve" smooth="yes"/>
      <point x="436" y="639"/>
      <point x="389" y="620"/>
      <point x="349" y="620" type="curve" smooth="yes"/>
      <point x="267" y="620"/>
      <point x="228" y="674"/>
      <point x="220" y="686" type="curve"/>
      <point x="153" y="597" type="line"/>
      <point x="215" y="533"/>
      <point x="291" y="501"/>
      <point x="381" y="501" type="curve" smooth="yes"/>
      <point x="491" y="501"/>
      <point x="621" y="560"/>
      <point x="621" y="707" type="curve" smooth="yes"/>
      <point x="621" y="754"/>
      <point x="594" y="796"/>
      <point x="539" y="833" type="curve"/>
      <point x="589" y="864"/>
      <point x="614" y="901"/>
      <point x="614" y="944" type="curve" smooth="yes"/>
      <point x="614" y="1070"/>
      <point x="486" y="1127"/>
    </contour>
    <contour>
      <point x="978" y="1107" type="line"/>
      <point x="278" y="-2" type="line"/>
      <point x="399" y="-2" type="line"/>
      <point x="1099" y="1107" type="line"/>
    </contour>
  </outline>
</glyph>
<glyph name="questiondown" format="2">
  <advance width="1000"/>
  <unicode hex="00BF"/>
  <outline>
    <contour>
      <point x="644" y="745" type="curve" smooth="yes"/>
      <point x="644" y="762"/>
      <point x="649" y="785"/>
      <point x="660" y="816" type="curve"/>
      <point x="505" y="857" type="line"/>
      <point x="486" y="812"/>
      <point x="477" y="776"/>
      <point x="477" y="749" type="curve" smooth="yes"/>
      <point x="477" y="539"/>
      <point x="704" y="451"/>
      <point x="704" y="277" type="curve" smooth="yes"/>
      <point x="704" y="101"/>
      <point x="568" y="92"/>
      <point x="541" y="92" type="curve" smooth="yes"/>
      <point x="502" y="92"/>
      <point x="393" y="107"/>
      <point x="393" y="203" type="curve" smooth="yes"/>
      <point x="393" y="232"/>
      <point x="454" y="272"/>
      <point x="454" y="322" type="curve" smooth="yes"/>
      <point x="454" y="399"/>
      <point x="365" y="428"/>
      <point x="313" y="428" type="curve" smooth="yes"/>
      <point x="225" y="428"/>
      <point x="152" y="372"/>
      <point x="152" y="278" type="curve" smooth="yes"/>
      <point x="152" y="49"/>
      <point x="390" y="-34"/>
      <point x="579" y="-34" type="curve" smooth="yes"/>
      <point x="749" y="-34"/>
      <point x="1004" y="62"/>
      <point x="1004" y="282" type="curve" smooth="yes"/>
      <point x="1004" y="521"/>
      <point x="644" y="538"/>
    </contour>
    <contour>
      <point x="629" y="1229" type="curve" smooth="yes"/>
      <point x="547" y="1229"/>
      <point x="465" y="1174"/>
      <point x="465" y="1080" type="curve" smooth="yes"/>
      <point x="465" y="986"/>
      <point x="554" y="940"/>
      <point x="629" y="940" type="curve" smooth="yes"/>
      <point x="703" y="940"/>
      <point x="787" y="995"/>
      <point x="787" y="1080" type="curve" smooth="yes"/>
      <point x="787" y="1169"/>
      <point x="710" y="1229"/>
    </contour>
  </outline>
</glyph>
<glyph name="Acircumflex" format="2">
  <advance width="1177"/>
  <unicode hex="00C2"/>
  <outline>
    <contour>
      <point x="449" y="517" type="line"/>
      <point x="605" y="967" type="line"/>
      <point x="765" y="517" type="line"/>
    </contour>
    <contour>
      <point x="1197" y="0" type="line"/>
      <point x="984" y="401"/>
      <point x="838" y="804"/>
      <point x="759" y="1211" type="curve"/>
      <point x="530" y="1211" type="line"/>
      <point x="112" y="0" type="line"/>
      <point x="280" y="0" type="line"/>
      <point x="404" y="375" type="line"/>
      <point x="471" y="388"/>
      <point x="537" y="395"/>
      <point x="603" y="395" type="curve" smooth="yes"/>
      <point x="676" y="395"/>
      <point x="744" y="388"/>
      <point x="809" y="375" type="curve"/>
      <point x="925" y="0" type="line"/>
    </contour>
    <contour>
      <point x="930" y="1301" type="line"/>
      <point x="861" y="1352"/>
      <point x="801" y="1426"/>
      <point x="748" y="1523" type="curve"/>
      <point x="529" y="1523" type="line"/>
      <point x="470" y="1428"/>
      <point x="409" y="1354"/>
      <point x="344" y="1301" type="curve"/>
      <point x="526" y="1301" type="line"/>
      <point x="634" y="1399" type="line"/>
      <point x="740" y="1301" type="line"/>
    </contour>
  </outline>
</glyph>
<glyph name="Atilde" format="2">
  <advance width="1177"/>
  <unicode hex="00C3"/>
  <outline>
    <contour>
      <point x="449" y="517" type="line"/>
      <point x="605" y="967" type="line"/>
      <point x="765" y="517" type="line"/>
    </contour>
    <contour>
      <point x="1197" y="0" type="line"/>
      <point x="984" y="401"/>
      <point x="838" y="804"/>
      <point x="759" y="1211" type="curve"/>
      <point x="530" y="1211" type="line"/>
      <point x="112" y="0" type="line"/>
      <point x="280" y="0" type="line"/>
      <point x="404" y="375" type="line"/>
      <point x="471" y="388"/>
      <point x="537" y="395"/>
      <point x="603" y="395" type="curve" smooth="yes"/>
      <point x="676" y="395"/>
      <point x="744" y="388"/>
      <point x="809" y="375" type="curve"/>
      <point x="925" y="0" type="line"/>
    </contour>
    <contour>
      <point x="500" y="1521" type="curve" smooth="yes"/>
      <point x="392" y="1521"/>
      <point x="303" y="1412"/>
      <point x="300" y="1309" type="curve"/>
      <point x="396" y="1281" type="line"/>
      <point x="403" y="1337"/>
      <point x="429" y="1366"/>
      <point x="495" y="1366" type="curve" smooth="yes"/>
      <point x="588" y="1366"/>
      <point x="694" y="1274"/>
      <point x="787" y="1274" type="curve" smooth="yes"/>
      <point x="902" y="1274"/>
      <point x="982" y="1407"/>
      <point x="988" y="1505" type="curve"/>
      <point x="891" y="1532" type="line"/>
      <point x="882" y="1463"/>
      <point x="849" y="1429"/>
      <point x="792" y="1429" type="curve" smooth="yes"/>
      <point x="699" y="1429"/>
      <point x="593" y="1521"/>
    </contour>
  </outline>
</glyph>
<glyph name="Adieresis" format="2">
  <advance width="1177"/>
  <unicode hex="00C4"/>
  <outline>
    <contour>
      <point x="449" y="517" type="line"/>
      <point x="605" y="967" type="line"/>
      <point x="765" y="517" type="line"/>
    </contour>
    <contour>
      <point x="1197" y="0" type="line"/>
      <point x="984" y="401"/>
      <point x="838" y="804"/>
      <point x="759" y="1211" type="curve"/>
      <point x="530" y="1211" type="line"/>
      <point x="112" y="0" type="line"/>
      <point x="280" y="0" type="line"/>
      <point x="404" y="375" type="line"/>
      <point x="471" y="388"/>
      <point x="537" y="395"/>
      <point x="603" y="395" type="curve" smooth="yes"/>
      <point x="676" y="395"/>
      <point x="744" y="388"/>
      <point x="809" y="375" type="curve"/>
      <point x="925" y="0" type="line"/>
    </contour>
    <contour>
      <point x="453" y="1524" type="curve" smooth="yes"/>
      <point x="395" y="1524"/>
      <point x="340" y="1484"/>
      <point x="340" y="1420" type="curve" smooth="yes"/>
      <point x="340" y="1355"/>
      <point x="397" y="1316"/>
      <point x="453" y="1316" type="curve" smooth="yes"/>
      <point x="510" y="1316"/>
      <point x="568" y="1355"/>
      <point x="568" y="1420" type="curve" smooth="yes"/>
      <point x="568" y="1484"/>
      <point x="513" y="1524"/>
    </contour>
    <contour>
      <point x="781" y="1524" type="curve" smooth="yes"/>
      <point x="723" y="1524"/>
      <point x="667" y="1484"/>
      <point x="667" y="1420" type="curve" smooth="yes"/>
      <point x="667" y="1355"/>
      <point x="726" y="1316"/>
      <point x="781" y="1316" type="curve" smooth="yes"/>
      <point x="839" y="1316"/>
      <point x="895" y="1356"/>
      <point x="895" y="1420" type="curve" smooth="yes"/>
      <point x="895" y="1484"/>
      <point x="839" y="1524"/>
    </contour>
  </outline>
</glyph>
<glyph name="Aring" format="2">
  <advance width="1177"/>
  <unicode hex="00C5"/>
  <outline>
    <contour>
      <point x="449" y="517" type="line"/>
      <point x="605" y="967" type="line"/>
      <point x="765" y="517" type="line"/>
    </contour>
    <contour>
      <point x="642" y="1339" type="curve" smooth="yes"/>
      <point x="613" y="1339"/>
      <point x="582" y="1361"/>
      <point x="582" y="1394" type="curve" smooth="yes"/>
      <point x="582" y="1427"/>
      <point x="614" y="1448"/>
      <point x="642" y="1448" type="curve" smooth="yes"/>
      <point x="670" y="1448"/>
      <point x="702" y="1427"/>
      <point x="702" y="1394" type="curve" smooth="yes"/>
      <point x="702" y="1361"/>
      <point x="671" y="1339"/>
    </contour>
    <contour>
      <point x="1197" y="0" type="line"/>
      <point x="984" y="401"/>
      <point x="838" y="804"/>
      <point x="759" y="1211" type="curve"/>
      <point x="530" y="1211" type="line"/>
      <point x="112" y="0" type="line"/>
      <point x="280" y="0" type="line"/>
      <point x="404" y="375" type="line"/>
      <point x="471" y="388"/>
      <point x="537" y="395"/>
      <point x="603" y="395" type="curve" smooth="yes"/>
      <point x="676" y="395"/>
      <point x="744" y="388"/>
      <point x="809" y="375" type="curve"/>
      <point x="925" y="0" type="line"/>
    </contour>
    <contour>
      <point x="642" y="1521" type="curve" smooth="yes"/>
      <point x="573" y="1521"/>
      <point x="503" y="1471"/>
      <point x="503" y="1394" type="curve" smooth="yes"/>
      <point x="503" y="1315"/>
      <point x="574" y="1267"/>
      <point x="642" y="1267" type="curve" smooth="yes"/>
      <point x="710" y="1267"/>
      <point x="781" y="1315"/>
      <point x="781" y="1394" type="curve" smooth="yes"/>
      <point x="781" y="1471"/>
      <point x="711" y="1521"/>
    </contour>
  </outline>
</glyph>
<glyph name="AE" format="2">
  <advance width="1448"/>
  <unicode hex="00C6"/>
  <outline>
    <contour>
      <point x="730" y="516" type="line"/>
      <point x="449" y="517" type="line"/>
      <point x="605" y="1017" type="line"/>
      <point x="717" y="1016" type="line"/>
      <point x="727" y="874"/>
      <point x="732" y="761"/>
      <point x="731" y="678" type="curve" smooth="yes"/>
    </contour>
    <contour>
      <point x="1450" y="1211" type="line"/>
      <point x="1279" y="1186"/>
      <point x="1125" y="1174"/>
      <point x="988" y="1174" type="curve" smooth="yes"/>
      <point x="845" y="1174"/>
      <point x="692" y="1186"/>
      <point x="530" y="1211" type="curve"/>
      <point x="112" y="0" type="line"/>
      <point x="280" y="0" type="line"/>
      <point x="404" y="375" type="line"/>
      <point x="471" y="388"/>
      <point x="537" y="395"/>
      <point x="603" y="395" type="curve" smooth="yes"/>
      <point x="645" y="395"/>
      <point x="686" y="392"/>
      <point x="727" y="386" type="curve"/>
      <point x="722" y="246"/>
      <point x="713" y="117"/>
      <point x="701" y="0" type="curve"/>
      <point x="823" y="7"/>
      <point x="951" y="10"/>
      <point x="1084" y="10" type="curve" smooth="yes"/>
      <point x="1191" y="10"/>
      <point x="1312" y="7"/>
      <point x="1447" y="0" type="curve"/>
      <point x="1447" y="142" type="line"/>
      <point x="934" y="142" type="line"/>
      <point x="934" y="590" type="line"/>
      <point x="1007" y="597"/>
      <point x="1085" y="600"/>
      <point x="1166" y="600" type="curve" smooth="yes"/>
      <point x="1245" y="600"/>
      <point x="1319" y="597"/>
      <point x="1388" y="590" type="curve"/>
      <point x="1388" y="732" type="line"/>
      <point x="934" y="732" type="line"/>
      <point x="934" y="1020" type="line"/>
      <point x="1450" y="1020" type="line"/>
    </contour>
  </outline>
</glyph>
<glyph name="Ecircumflex" format="2">
  <advance width="903"/>
  <unicode hex="00CA"/>
  <outline>
    <contour>
      <point x="917" y="142" type="line"/>
      <point x="384" y="142" type="line"/>
      <point x="384" y="590" type="line"/>
      <point x="457" y="597"/>
      <point x="535" y="600"/>
      <point x="616" y="600" type="curve" smooth="yes"/>
      <point x="697" y="600"/>
      <point x="775" y="597"/>
      <point x="848" y="590" type="curve"/>
      <point x="848" y="732" type="line"/>
      <point x="384" y="732" type="line"/>
      <point x="384" y="1070" type="line"/>
      <point x="903" y="1070" type="line"/>
      <point x="903" y="1212" type="line"/>
      <point x="784" y="1199"/>
      <point x="658" y="1192"/>
      <point x="527" y="1192" type="curve" smooth="yes"/>
      <point x="396" y="1192"/>
      <point x="270" y="1199"/>
      <point x="151" y="1212" type="curve"/>
      <point x="171" y="1010"/>
      <point x="181" y="808"/>
      <point x="181" y="606" type="curve" smooth="yes"/>
      <point x="181" y="403"/>
      <point x="171" y="201"/>
      <point x="151" y="0" type="curve"/>
      <point x="273" y="7"/>
      <point x="401" y="10"/>
      <point x="534" y="10" type="curve" smooth="yes"/>
      <point x="669" y="10"/>
      <point x="796" y="7"/>
      <point x="917" y="0" type="curve"/>
    </contour>
    <contour>
      <point x="840" y="1301" type="line"/>
      <point x="771" y="1352"/>
      <point x="711" y="1426"/>
      <point x="658" y="1523" type="curve"/>
      <point x="439" y="1523" type="line"/>
      <point x="380" y="1428"/>
      <point x="319" y="1354"/>
      <point x="254" y="1301" type="curve"/>
      <point x="436" y="1301" type="line"/>
      <point x="544" y="1399" type="line"/>
      <point x="650" y="1301" type="line"/>
    </contour>
  </outline>
</glyph>
<glyph name="Igrave" format="2">
  <advance width="570"/>
  <unicode hex="00CC"/>
  <outline>
    <contour>
      <point x="566" y="0" type="line"/>
      <point x="550" y="201"/>
      <point x="542" y="403"/>
      <point x="542" y="606" type="curve" smooth="yes"/>
      <point x="542" y="808"/>
      <point x="550" y="1010"/>
      <point x="566" y="1212" type="curve"/>
      <point x="333" y="1212" type="line"/>
      <point x="354" y="1003"/>
      <point x="364" y="801"/>
      <point x="364" y="606" type="curve" smooth="yes"/>
      <point x="364" y="410"/>
      <point x="354" y="208"/>
      <point x="333" y="0" type="curve"/>
    </contour>
    <contour>
      <point x="506" y="1299" type="line"/>
      <point x="440" y="1363"/>
      <point x="391" y="1437"/>
      <point x="360" y="1522" type="curve"/>
      <point x="115" y="1522" type="line"/>
      <point x="335" y="1299" type="line"/>
    </contour>
  </outline>
</glyph>
<glyph name="Iacute" format="2">
  <advance width="560"/>
  <unicode hex="00CD"/>
  <outline>
    <contour>
      <point x="386" y="0" type="line"/>
      <point x="370" y="201"/>
      <point x="362" y="403"/>
      <point x="362" y="606" type="curve" smooth="yes"/>
      <point x="362" y="808"/>
      <point x="370" y="1010"/>
      <point x="386" y="1212" type="curve"/>
      <point x="153" y="1212" type="line"/>
      <point x="174" y="1003"/>
      <point x="184" y="801"/>
      <point x="184" y="606" type="curve" smooth="yes"/>
      <point x="184" y="410"/>
      <point x="174" y="208"/>
      <point x="153" y="0" type="curve"/>
    </contour>
    <contour>
      <point x="362" y="1523" type="line"/>
      <point x="321" y="1446"/>
      <point x="268" y="1372"/>
      <point x="205" y="1300" type="curve"/>
      <point x="378" y="1300" type="line"/>
      <point x="597" y="1523" type="line"/>
    </contour>
  </outline>
</glyph>
<glyph name="Icircumflex" format="2">
  <advance width="670"/>
  <unicode hex="00CE"/>
  <outline>
    <contour>
      <point x="526" y="0" type="line"/>
      <point x="510" y="201"/>
      <point x="502" y="403"/>
      <point x="502" y="606" type="curve" smooth="yes"/>
      <point x="502" y="808"/>
      <point x="510" y="1010"/>
      <point x="526" y="1212" type="curve"/>
      <point x="293" y="1212" type="line"/>
      <point x="314" y="1003"/>
      <point x="324" y="801"/>
      <point x="324" y="606" type="curve" smooth="yes"/>
      <point x="324" y="410"/>
      <point x="314" y="208"/>
      <point x="293" y="0" type="curve"/>
    </contour>
    <contour>
      <point x="710" y="1301" type="line"/>
      <point x="641" y="1352"/>
      <point x="581" y="1426"/>
      <point x="528" y="1523" type="curve"/>
      <point x="309" y="1523" type="line"/>
      <point x="250" y="1428"/>
      <point x="189" y="1354"/>
      <point x="124" y="1301" type="curve"/>
      <point x="306" y="1301" type="line"/>
      <point x="414" y="1399" type="line"/>
      <point x="520" y="1301" type="line"/>
    </contour>
  </outline>
</glyph>
<glyph name="Idieresis" format="2">
  <advance width="665"/>
  <unicode hex="00CF"/>
  <outline>
    <contour>
      <point x="526" y="0" type="line"/>
      <point x="510" y="201"/>
      <point x="502" y="403"/>
      <point x="502" y="606" type="curve" smooth="yes"/>
      <point x="502" y="808"/>
      <point x="510" y="1010"/>
      <point x="526" y="1212" type="curve"/>
      <point x="293" y="1212" type="line"/>
      <point x="314" y="1003"/>
      <point x="324" y="801"/>
      <point x="324" y="606" type="curve" smooth="yes"/>
      <point x="324" y="410"/>
      <point x="314" y="208"/>
      <point x="293" y="0" type="curve"/>
    </contour>
    <contour>
      <point x="243" y="1524" type="curve" smooth="yes"/>
      <point x="185" y="1524"/>
      <point x="130" y="1484"/>
      <point x="130" y="1420" type="curve" smooth="yes"/>
      <point x="130" y="1355"/>
      <point x="187" y="1316"/>
      <point x="243" y="1316" type="curve" smooth="yes"/>
      <point x="300" y="1316"/>
      <point x="358" y="1355"/>
      <point x="358" y="1420" type="curve" smooth="yes"/>
      <point x="358" y="1484"/>
      <point x="303" y="1524"/>
    </contour>
    <contour>
      <point x="571" y="1524" type="curve" smooth="yes"/>
      <point x="513" y="1524"/>
      <point x="457" y="1484"/>
      <point x="457" y="1420" type="curve" smooth="yes"/>
      <point x="457" y="1355"/>
      <point x="516" y="1316"/>
      <point x="571" y="1316" type="curve" smooth="yes"/>
      <point x="629" y="1316"/>
      <point x="685" y="1356"/>
      <point x="685" y="1420" type="curve" smooth="yes"/>
      <point x="685" y="1484"/>
      <point x="629" y="1524"/>
    </contour>
  </outline>
</glyph>
<glyph name="Ntilde" format="2">
  <advance width="1037"/>
  <unicode hex="00D1"/>
  <outline>
    <contour>
      <point x="1035" y="1211" type="line"/>
      <point x="871" y="1211" type="line"/>
      <point x="871" y="371" type="line"/>
      <point x="657" y="628"/>
      <point x="483" y="908"/>
      <point x="350" y="1211" type="curve"/>
      <point x="133" y="1211" type="line"/>
      <point x="133" y="0" type="line"/>
      <point x="297" y="0" type="line"/>
      <point x="297" y="847" type="line"/>
      <point x="818" y="0" type="line"/>
      <point x="1035" y="0" type="line"/>
    </contour>
    <contour>
      <point x="480" y="1521" type="curve" smooth="yes"/>
      <point x="372" y="1521"/>
      <point x="283" y="1412"/>
      <point x="280" y="1309" type="curve"/>
      <point x="376" y="1281" type="line"/>
      <point x="383" y="1337"/>
      <point x="409" y="1366"/>
      <point x="475" y="1366" type="curve" smooth="yes"/>
      <point x="568" y="1366"/>
      <point x="674" y="1274"/>
      <point x="767" y="1274" type="curve" smooth="yes"/>
      <point x="882" y="1274"/>
      <point x="962" y="1407"/>
      <point x="968" y="1505" type="curve"/>
      <point x="871" y="1532" type="line"/>
      <point x="862" y="1463"/>
      <point x="829" y="1429"/>
      <point x="772" y="1429" type="curve" smooth="yes"/>
      <point x="679" y="1429"/>
      <point x="573" y="1521"/>
    </contour>
  </outline>
</glyph>
<glyph name="Oacute" format="2">
  <advance width="1235"/>
  <unicode hex="00D3"/>
  <outline>
    <contour>
      <point x="989" y="563" type="curve" smooth="yes"/>
      <point x="989" y="380"/>
      <point x="931" y="124"/>
      <point x="707" y="124" type="curve" smooth="yes"/>
      <point x="410" y="124"/>
      <point x="401" y="589"/>
      <point x="401" y="645" type="curve" smooth="yes"/>
      <point x="401" y="849"/>
      <point x="471" y="1084"/>
      <point x="684" y="1084" type="curve" smooth="yes"/>
      <point x="981" y="1084"/>
      <point x="989" y="611"/>
    </contour>
    <contour>
      <point x="696" y="1227" type="curve" smooth="yes"/>
      <point x="321" y="1227"/>
      <point x="156" y="915"/>
      <point x="156" y="604" type="curve" smooth="yes"/>
      <point x="156" y="300"/>
      <point x="316" y="-17"/>
      <point x="696" y="-17" type="curve" smooth="yes"/>
      <point x="1060" y="-17"/>
      <point x="1233" y="282"/>
      <point x="1233" y="604" type="curve" smooth="yes"/>
      <point x="1233" y="910"/>
      <point x="1074" y="1227"/>
    </contour>
    <contour>
      <point x="952" y="1523" type="line"/>
      <point x="911" y="1446"/>
      <point x="858" y="1372"/>
      <point x="795" y="1300" type="curve"/>
      <point x="968" y="1300" type="line"/>
      <point x="1187" y="1523" type="line"/>
    </contour>
  </outline>
</glyph>
<glyph name="Ocircumflex" format="2">
  <advance width="1235"/>
  <unicode hex="00D4"/>
  <outline>
    <contour>
      <point x="989" y="563" type="curve" smooth="yes"/>
      <point x="989" y="380"/>
      <point x="931" y="124"/>
      <point x="707" y="124" type="curve" smooth="yes"/>
      <point x="410" y="124"/>
      <point x="401" y="589"/>
      <point x="401" y="645" type="curve" smooth="yes"/>
      <point x="401" y="849"/>
      <point x="471" y="1084"/>
      <point x="684" y="1084" type="curve" smooth="yes"/>
      <point x="981" y="1084"/>
      <point x="989" y="611"/>
    </contour>
    <contour>
      <point x="696" y="1227" type="curve" smooth="yes"/>
      <point x="321" y="1227"/>
      <point x="156" y="915"/>
      <point x="156" y="604" type="curve" smooth="yes"/>
      <point x="156" y="300"/>
      <point x="316" y="-17"/>
      <point x="696" y="-17" type="curve" smooth="yes"/>
      <point x="1060" y="-17"/>
      <point x="1233" y="282"/>
      <point x="1233" y="604" type="curve" smooth="yes"/>
      <point x="1233" y="910"/>
      <point x="1074" y="1227"/>
    </contour>
    <contour>
      <point x="980" y="1301" type="line"/>
      <point x="911" y="1352"/>
      <point x="851" y="1426"/>
      <point x="798" y="1523" type="curve"/>
      <point x="579" y="1523" type="line"/>
      <point x="520" y="1428"/>
      <point x="459" y="1354"/>
      <point x="394" y="1301" type="curve"/>
      <point x="576" y="1301" type="line"/>
      <point x="684" y="1399" type="line"/>
      <point x="790" y="1301" type="line"/>
    </contour>
  </outline>
</glyph>
<glyph name="Otilde" format="2">
  <advance width="1235"/>
  <unicode hex="00D5"/>
  <outline>
    <contour>
      <point x="989" y="563" type="curve" smooth="yes"/>
      <point x="989" y="380"/>
      <point x="931" y="124"/>
      <point x="707" y="124" type="curve" smooth="yes"/>
      <point x="410" y="124"/>
      <point x="401" y="589"/>
      <point x="401" y="645" type="curve" smooth="yes"/>
      <point x="401" y="849"/>
      <point x="471" y="1084"/>
      <point x="684" y="1084" type="curve" smooth="yes"/>
      <point x="981" y="1084"/>
      <point x="989" y="611"/>
    </contour>
    <contour>
      <point x="696" y="1227" type="curve" smooth="yes"/>
      <point x="321" y="1227"/>
      <point x="156" y="915"/>
      <point x="156" y="604" type="curve" smooth="yes"/>
      <point x="156" y="300"/>
      <point x="316" y="-17"/>
      <point x="696" y="-17" type="curve" smooth="yes"/>
      <point x="1060" y="-17"/>
      <point x="1233" y="282"/>
      <point x="1233" y="604" type="curve" smooth="yes"/>
      <point x="1233" y="910"/>
      <point x="1074" y="1227"/>
    </contour>
    <contour>
      <point x="590" y="1521" type="curve" smooth="yes"/>
      <point x="482" y="1521"/>
      <point x="393" y="1412"/>
      <point x="390" y="1309" type="curve"/>
      <point x="486" y="1281" type="line"/>
      <point x="493" y="1337"/>
      <point x="519" y="1366"/>
      <point x="585" y="1366" type="curve" smooth="yes"/>
      <point x="678" y="1366"/>
      <point x="784" y="1274"/>
      <point x="877" y="1274" type="curve" smooth="yes"/>
      <point x="992" y="1274"/>
      <point x="1072" y="1407"/>
      <point x="1078" y="1505" type="curve"/>
      <point x="981" y="1532" type="line"/>
      <point x="972" y="1463"/>
      <point x="939" y="1429"/>
      <point x="882" y="1429" type="curve" smooth="yes"/>
      <point x="789" y="1429"/>
      <point x="683" y="1521"/>
    </contour>
  </outline>
</glyph>
<glyph name="Odieresis" format="2">
  <advance width="1235"/>
  <unicode hex="00D6"/>
  <outline>
    <contour>
      <point x="989" y="563" type="curve" smooth="yes"/>
      <point x="989" y="380"/>
      <point x="931" y="124"/>
      <point x="707" y="124" type="curve" smooth="yes"/>
      <point x="410" y="124"/>
      <point x="401" y="589"/>
      <point x="401" y="645" type="curve" smooth="yes"/>
      <point x="401" y="849"/>
      <point x="471" y="1084"/>
      <point x="684" y="1084" type="curve" smooth="yes"/>
      <point x="981" y="1084"/>
      <point x="989" y="611"/>
    </contour>
    <contour>
      <point x="696" y="1227" type="curve" smooth="yes"/>
      <point x="321" y="1227"/>
      <point x="156" y="915"/>
      <point x="156" y="604" type="curve" smooth="yes"/>
      <point x="156" y="300"/>
      <point x="316" y="-17"/>
      <point x="696" y="-17" type="curve" smooth="yes"/>
      <point x="1060" y="-17"/>
      <point x="1233" y="282"/>
      <point x="1233" y="604" type="curve" smooth="yes"/>
      <point x="1233" y="910"/>
      <point x="1074" y="1227"/>
    </contour>
    <contour>
      <point x="503" y="1524" type="curve" smooth="yes"/>
      <point x="445" y="1524"/>
      <point x="390" y="1484"/>
      <point x="390" y="1420" type="curve" smooth="yes"/>
      <point x="390" y="1355"/>
      <point x="447" y="1316"/>
      <point x="503" y="1316" type="curve" smooth="yes"/>
      <point x="560" y="1316"/>
      <point x="618" y="1355"/>
      <point x="618" y="1420" type="curve" smooth="yes"/>
      <point x="618" y="1484"/>
      <point x="563" y="1524"/>
    </contour>
    <contour>
      <point x="871" y="1524" type="curve" smooth="yes"/>
      <point x="813" y="1524"/>
      <point x="757" y="1484"/>
      <point x="757" y="1420" type="curve" smooth="yes"/>
      <point x="757" y="1355"/>
      <point x="816" y="1316"/>
      <point x="871" y="1316" type="curve" smooth="yes"/>
      <point x="929" y="1316"/>
      <point x="985" y="1356"/>
      <point x="985" y="1420" type="curve" smooth="yes"/>
      <point x="985" y="1484"/>
      <point x="929" y="1524"/>
    </contour>
  </outline>
</glyph>
<glyph name="multiply" format="2">
  <advance width="1081"/>
  <unicode hex="00D7"/>
  <outline>
    <contour>
      <point x="775" y="435" type="line"/>
      <point x="1030" y="690" type="line"/>
      <point x="876" y="844" type="line"/>
      <point x="621" y="589" type="line"/>
      <point x="367" y="844" type="line"/>
      <point x="213" y="690" type="line"/>
      <point x="467" y="435" type="line"/>
      <point x="213" y="181" type="line"/>
      <point x="367" y="27" type="line"/>
      <point x="621" y="281" type="line"/>
      <point x="876" y="27" type="line"/>
      <point x="1030" y="181" type="line"/>
    </contour>
  </outline>
</glyph>
<glyph name="Oslash" format="2">
  <advance width="1235"/>
  <unicode hex="00D8"/>
  <outline>
    <contour>
      <point x="703" y="124" type="curve" smooth="yes"/>
      <point x="617" y="124"/>
      <point x="548" y="162"/>
      <point x="497" y="239" type="curve"/>
      <point x="954" y="830" type="line"/>
      <point x="977" y="753"/>
      <point x="988" y="668"/>
      <point x="988" y="576" type="curve" smooth="yes"/>
      <point x="988" y="345"/>
      <point x="908" y="124"/>
    </contour>
    <contour>
      <point x="688" y="1085" type="curve" smooth="yes"/>
      <point x="775" y="1085"/>
      <point x="844" y="1045"/>
      <point x="896" y="964" type="curve"/>
      <point x="437" y="371" type="line"/>
      <point x="413" y="452"/>
      <point x="401" y="539"/>
      <point x="401" y="632" type="curve" smooth="yes"/>
      <point x="401" y="801"/>
      <point x="452" y="1085"/>
    </contour>
    <contour>
      <point x="156" y="604" type="curve" smooth="yes"/>
      <point x="156" y="433"/>
      <point x="199" y="290"/>
      <point x="286" y="176" type="curve"/>
      <point x="132" y="-21" type="line"/>
      <point x="295" y="-21" type="line"/>
      <point x="377" y="84" type="line"/>
      <point x="463" y="17"/>
      <point x="569" y="-17"/>
      <point x="696" y="-17" type="curve" smooth="yes"/>
      <point x="1063" y="-17"/>
      <point x="1233" y="287"/>
      <point x="1233" y="604" type="curve" smooth="yes"/>
      <point x="1233" y="775"/>
      <point x="1191" y="916"/>
      <point x="1108" y="1028" type="curve"/>
      <point x="1264" y="1230" type="line"/>
      <point x="1102" y="1230" type="line"/>
      <point x="1018" y="1122" type="line"/>
      <point x="930" y="1192"/>
      <point x="823" y="1227"/>
      <point x="696" y="1227" type="curve" smooth="yes"/>
      <point x="321" y="1227"/>
      <point x="156" y="915"/>
    </contour>
  </outline>
</glyph>
<glyph name="Ugrave" format="2">
  <advance width="1057"/>
  <unicode hex="00D9"/>
  <outline>
    <contour>
      <point x="638" y="142" type="curve" smooth="yes"/>
      <point x="487" y="142"/>
      <point x="386" y="250"/>
      <point x="386" y="397" type="curve" smooth="yes"/>
      <point x="386" y="1215" type="line"/>
      <point x="153" y="1215" type="line"/>
      <point x="166" y="1128"/>
      <point x="173" y="1036"/>
      <point x="173" y="939" type="curve" smooth="yes"/>
      <point x="173" y="778"/>
      <point x="151" y="549"/>
      <point x="151" y="387" type="curve" smooth="yes"/>
      <point x="151" y="145"/>
      <point x="347" y="-21"/>
      <point x="602" y="-21" type="curve" smooth="yes"/>
      <point x="870" y="-21"/>
      <point x="1055" y="159"/>
      <point x="1055" y="430" type="curve" smooth="yes"/>
      <point x="1055" y="1215" type="line"/>
      <point x="891" y="1215" type="line"/>
      <point x="891" y="397" type="line" smooth="yes"/>
      <point x="891" y="249"/>
      <point x="788" y="142"/>
    </contour>
    <contour>
      <point x="606" y="1299" type="line"/>
      <point x="540" y="1363"/>
      <point x="491" y="1437"/>
      <point x="460" y="1522" type="curve"/>
      <point x="215" y="1522" type="line"/>
      <point x="435" y="1299" type="line"/>
    </contour>
  </outline>
</glyph>
<glyph name="Uacute" format="2">
  <advance width="1057"/>
  <unicode hex="00DA"/>
  <outline>
    <contour>
      <point x="638" y="142" type="curve" smooth="yes"/>
      <point x="487" y="142"/>
      <point x="386" y="250"/>
      <point x="386" y="397" type="curve" smooth="yes"/>
      <point x="386" y="1215" type="line"/>
      <point x="153" y="1215" type="line"/>
      <point x="166" y="1128"/>
      <point x="173" y="1036"/>
      <point x="173" y="939" type="curve" smooth="yes"/>
      <point x="173" y="778"/>
      <point x="151" y="549"/>
      <point x="151" y="387" type="curve" smooth="yes"/>
      <point x="151" y="145"/>
      <point x="347" y="-21"/>
      <point x="602" y="-21" type="curve" smooth="yes"/>
      <point x="870" y="-21"/>
      <point x="1055" y="159"/>
      <point x="1055" y="430" type="curve" smooth="yes"/>
      <point x="1055" y="1215" type="line"/>
      <point x="891" y="1215" type="line"/>
      <point x="891" y="397" type="line" smooth="yes"/>
      <point x="891" y="249"/>
      <point x="788" y="142"/>
    </contour>
    <contour>
      <point x="792" y="1523" type="line"/>
      <point x="751" y="1446"/>
      <point x="698" y="1372"/>
      <point x="635" y="1300" type="curve"/>
      <point x="808" y="1300" type="line"/>
      <point x="1027" y="1523" type="line"/>
    </contour>
  </outline>
</glyph>
<glyph name="Ucircumflex" format="2">
  <advance width="1057"/>
  <unicode hex="00DB"/>
  <outline>
    <contour>
      <point x="638" y="142" type="curve" smooth="yes"/>
      <point x="487" y="142"/>
      <point x="386" y="250"/>
      <point x="386" y="397" type="curve" smooth="yes"/>
      <point x="386" y="1215" type="line"/>
      <point x="153" y="1215" type="line"/>
      <point x="166" y="1128"/>
      <point x="173" y="1036"/>
      <point x="173" y="939" type="curve" smooth="yes"/>
      <point x="173" y="778"/>
      <point x="151" y="549"/>
      <point x="151" y="387" type="curve" smooth="yes"/>
      <point x="151" y="145"/>
      <point x="347" y="-21"/>
      <point x="602" y="-21" type="curve" smooth="yes"/>
      <point x="870" y="-21"/>
      <point x="1055" y="159"/>
      <point x="1055" y="430" type="curve" smooth="yes"/>
      <point x="1055" y="1215" type="line"/>
      <point x="891" y="1215" type="line"/>
      <point x="891" y="397" type="line" smooth="yes"/>
      <point x="891" y="249"/>
      <point x="788" y="142"/>
    </contour>
    <contour>
      <point x="920" y="1301" type="line"/>
      <point x="851" y="1352"/>
      <point x="791" y="1426"/>
      <point x="738" y="1523" type="curve"/>
      <point x="519" y="1523" type="line"/>
      <point x="460" y="1428"/>
      <point x="399" y="1354"/>
      <point x="334" y="1301" type="curve"/>
      <point x="516" y="1301" type="line"/>
      <point x="624" y="1399" type="line"/>
      <point x="730" y="1301" type="line"/>
    </contour>
  </outline>
</glyph>
<glyph name="Yacute" format="2">
  <advance width="1060"/>
  <unicode hex="00DD"/>
  <outline>
    <contour>
      <point x="915" y="1210" type="line"/>
      <point x="665" y="708" type="line"/>
      <point x="595" y="778"/>
      <point x="500" y="888"/>
      <point x="395" y="1210" type="curve"/>
      <point x="122" y="1210" type="line"/>
      <point x="503" y="520" type="line"/>
      <point x="503" y="0" type="line"/>
      <point x="734" y="0" type="line"/>
      <point x="728" y="88"/>
      <point x="725" y="176"/>
      <point x="725" y="263" type="curve" smooth="yes"/>
      <point x="725" y="350"/>
      <point x="728" y="436"/>
      <point x="734" y="522" type="curve"/>
      <point x="1094" y="1210" type="line"/>
    </contour>
    <contour>
      <point x="812" y="1523" type="line"/>
      <point x="771" y="1446"/>
      <point x="718" y="1372"/>
      <point x="655" y="1300" type="curve"/>
      <point x="828" y="1300" type="line"/>
      <point x="1047" y="1523" type="line"/>
    </contour>
  </outline>
</glyph>
<glyph name="Thorn" format="2">
  <advance width="995"/>
  <unicode hex="00DE"/>
  <outline>
    <contour>
      <point x="522" y="449" type="curve" smooth="yes"/>
      <point x="384" y="449" type="line"/>
      <point x="384" y="849" type="line"/>
      <point x="532" y="849" type="line" smooth="yes"/>
      <point x="643" y="849"/>
      <point x="748" y="781"/>
      <point x="748" y="652" type="curve" smooth="yes"/>
      <point x="748" y="515"/>
      <point x="635" y="449"/>
    </contour>
    <contour>
      <point x="608" y="992" type="curve" smooth="yes"/>
      <point x="563" y="992"/>
      <point x="501" y="984"/>
      <point x="456" y="984" type="curve" smooth="yes"/>
      <point x="431" y="984"/>
      <point x="407" y="986"/>
      <point x="384" y="991" type="curve"/>
      <point x="384" y="1208" type="line"/>
      <point x="155" y="1208" type="line"/>
      <point x="178" y="1011"/>
      <point x="190" y="817"/>
      <point x="190" y="624" type="curve" smooth="yes"/>
      <point x="190" y="430"/>
      <point x="178" y="222"/>
      <point x="153" y="0" type="curve"/>
      <point x="384" y="0" type="line"/>
      <point x="384" y="309" type="line"/>
      <point x="413" y="314"/>
      <point x="440" y="317"/>
      <point x="467" y="317" type="curve" smooth="yes"/>
      <point x="511" y="317"/>
      <point x="573" y="306"/>
      <point x="618" y="306" type="curve" smooth="yes"/>
      <point x="811" y="306"/>
      <point x="987" y="427"/>
      <point x="987" y="648" type="curve" smooth="yes"/>
      <point x="987" y="878"/>
      <point x="800" y="992"/>
    </contour>
  </outline>
</glyph>
<glyph name="germandbls" format="2">
  <advance width="1120"/>
  <unicode hex="00DF"/>
  <outline>
    <contour>
      <point x="1128" y="238" type="curve" smooth="yes"/>
      <point x="1128" y="506"/>
      <point x="742" y="475"/>
      <point x="742" y="636" type="curve" smooth="yes"/>
      <point x="742" y="735"/>
      <point x="815" y="758"/>
      <point x="868" y="758" type="curve" smooth="yes"/>
      <point x="982" y="757" type="line"/>
      <point x="982" y="1120"/>
      <point x="781" y="1231"/>
      <point x="536" y="1231" type="curve" smooth="yes"/>
      <point x="448" y="1231"/>
      <point x="364" y="1204"/>
      <point x="285" y="1151" type="curve" smooth="yes"/>
      <point x="152" y="1061"/>
      <point x="152" y="938"/>
      <point x="152" y="894" type="curve" smooth="yes"/>
      <point x="152" y="693"/>
      <point x="179" y="595"/>
      <point x="179" y="287" type="curve" smooth="yes"/>
      <point x="179" y="204"/>
      <point x="170" y="110"/>
      <point x="152" y="3" type="curve"/>
      <point x="394" y="3" type="line"/>
      <point x="394" y="924" type="line" smooth="yes"/>
      <point x="394" y="1025"/>
      <point x="459" y="1111"/>
      <point x="578" y="1111" type="curve" smooth="yes"/>
      <point x="732" y="1111"/>
      <point x="746" y="943"/>
      <point x="746" y="883" type="curve"/>
      <point x="619" y="875"/>
      <point x="531" y="774"/>
      <point x="531" y="649" type="curve" smooth="yes"/>
      <point x="531" y="370"/>
      <point x="912" y="464"/>
      <point x="912" y="252" type="curve" smooth="yes"/>
      <point x="912" y="142"/>
      <point x="824" y="126"/>
      <point x="774" y="126" type="curve" smooth="yes"/>
      <point x="656" y="126"/>
      <point x="600" y="225"/>
      <point x="600" y="282" type="curve" smooth="yes"/>
      <point x="600" y="300"/>
      <point x="601" y="313"/>
      <point x="602" y="322" type="curve"/>
      <point x="510" y="183" type="line"/>
      <point x="582" y="0"/>
      <point x="757" y="-21"/>
      <point x="833" y="-21" type="curve" smooth="yes"/>
      <point x="1106" y="-21"/>
      <point x="1128" y="175"/>
    </contour>
  </outline>
</glyph>
<glyph name="atilde" format="2">
  <advance width="955"/>
  <unicode hex="00E3"/>
  <outline>
    <contour>
      <point x="500" y="126" type="curve" smooth="yes"/>
      <point x="421" y="126"/>
      <point x="371" y="181"/>
      <point x="371" y="257" type="curve" smooth="yes"/>
      <point x="371" y="359"/>
      <point x="467" y="389"/>
      <point x="500" y="400" type="curve" smooth="yes"/>
      <point x="577" y="424"/>
      <point x="673" y="434"/>
      <point x="710" y="443" type="curve"/>
      <point x="712" y="408"/>
      <point x="713" y="373"/>
      <point x="713" y="339" type="curve" smooth="yes"/>
      <point x="713" y="222"/>
      <point x="617" y="126"/>
    </contour>
    <contour>
      <point x="942" y="553" type="curve" smooth="yes"/>
      <point x="942" y="755"/>
      <point x="768" y="898"/>
      <point x="546" y="898" type="curve" smooth="yes"/>
      <point x="330" y="898"/>
      <point x="207" y="765"/>
      <point x="167" y="712" type="curve"/>
      <point x="269" y="626" type="line"/>
      <point x="338" y="759"/>
      <point x="481" y="763"/>
      <point x="498" y="763" type="curve" smooth="yes"/>
      <point x="678" y="763"/>
      <point x="702" y="615"/>
      <point x="705" y="574" type="curve"/>
      <point x="672" y="566"/>
      <point x="672" y="566"/>
      <point x="508" y="538" type="curve" smooth="yes"/>
      <point x="329" y="508"/>
      <point x="151" y="457"/>
      <point x="151" y="254" type="curve" smooth="yes"/>
      <point x="151" y="66"/>
      <point x="306" y="-23"/>
      <point x="460" y="-23" type="curve" smooth="yes"/>
      <point x="571" y="-23"/>
      <point x="662" y="9"/>
      <point x="732" y="73" type="curve"/>
      <point x="735" y="-8" type="line"/>
      <point x="966" y="-8" type="line"/>
      <point x="944" y="124"/>
      <point x="933" y="227"/>
      <point x="933" y="302" type="curve" smooth="yes"/>
      <point x="933" y="375"/>
      <point x="942" y="480"/>
    </contour>
    <contour>
      <point x="414" y="1220" type="curve" smooth="yes"/>
      <point x="308" y="1220"/>
      <point x="233" y="1102"/>
      <point x="231" y="1009" type="curve"/>
      <point x="319" y="982" type="line"/>
      <point x="326" y="1046"/>
      <point x="356" y="1066"/>
      <point x="409" y="1066" type="curve" smooth="yes"/>
      <point x="493" y="1066"/>
      <point x="592" y="974"/>
      <point x="674" y="974" type="curve" smooth="yes"/>
      <point x="774" y="974"/>
      <point x="851" y="1101"/>
      <point x="857" y="1204" type="curve"/>
      <point x="768" y="1231" type="line"/>
      <point x="760" y="1163"/>
      <point x="730" y="1129"/>
      <point x="678" y="1129" type="curve" smooth="yes"/>
      <point x="594" y="1129"/>
      <point x="498" y="1220"/>
    </contour>
  </outline>
</glyph>
<glyph name="adieresis" format="2">
  <advance width="955"/>
  <unicode hex="00E4"/>
  <outline>
    <contour>
      <point x="500" y="126" type="curve" smooth="yes"/>
      <point x="421" y="126"/>
      <point x="371" y="181"/>
      <point x="371" y="257" type="curve" smooth="yes"/>
      <point x="371" y="359"/>
      <point x="467" y="389"/>
      <point x="500" y="400" type="curve" smooth="yes"/>
      <point x="577" y="424"/>
      <point x="673" y="434"/>
      <point x="710" y="443" type="curve"/>
      <point x="712" y="408"/>
      <point x="713" y="373"/>
      <point x="713" y="339" type="curve" smooth="yes"/>
      <point x="713" y="222"/>
      <point x="617" y="126"/>
    </contour>
    <contour>
      <point x="942" y="553" type="curve" smooth="yes"/>
      <point x="942" y="755"/>
      <point x="768" y="898"/>
      <point x="546" y="898" type="curve" smooth="yes"/>
      <point x="330" y="898"/>
      <point x="207" y="765"/>
      <point x="167" y="712" type="curve"/>
      <point x="269" y="626" type="line"/>
      <point x="338" y="759"/>
      <point x="481" y="763"/>
      <point x="498" y="763" type="curve" smooth="yes"/>
      <point x="678" y="763"/>
      <point x="702" y="615"/>
      <point x="705" y="574" type="curve"/>
      <point x="672" y="566"/>
      <point x="672" y="566"/>
      <point x="508" y="538" type="curve" smooth="yes"/>
      <point x="329" y="508"/>
      <point x="151" y="457"/>
      <point x="151" y="254" type="curve" smooth="yes"/>
      <point x="151" y="66"/>
      <point x="306" y="-23"/>
      <point x="460" y="-23" type="curve" smooth="yes"/>
      <point x="571" y="-23"/>
      <point x="662" y="9"/>
      <point x="732" y="73" type="curve"/>
      <point x="735" y="-8" type="line"/>
      <point x="966" y="-8" type="line"/>
      <point x="944" y="124"/>
      <point x="933" y="227"/>
      <point x="933" y="302" type="curve" smooth="yes"/>
      <point x="933" y="375"/>
      <point x="942" y="480"/>
    </contour>
    <contour>
      <point x="353" y="1224" type="curve" smooth="yes"/>
      <point x="295" y="1224"/>
      <point x="240" y="1184"/>
      <point x="240" y="1120" type="curve" smooth="yes"/>
      <point x="240" y="1055"/>
      <point x="297" y="1016"/>
      <point x="353" y="1016" type="curve" smooth="yes"/>
      <point x="410" y="1016"/>
      <point x="468" y="1055"/>
      <point x="468" y="1120" type="curve" smooth="yes"/>
      <point x="468" y="1184"/>
      <point x="413" y="1224"/>
    </contour>
    <contour>
      <point x="681" y="1224" type="curve" smooth="yes"/>
      <point x="623" y="1224"/>
      <point x="567" y="1184"/>
      <point x="567" y="1120" type="curve" smooth="yes"/>
      <point x="567" y="1055"/>
      <point x="626" y="1016"/>
      <point x="681" y="1016" type="curve" smooth="yes"/>
      <point x="739" y="1016"/>
      <point x="795" y="1056"/>
      <point x="795" y="1120" type="curve" smooth="yes"/>
      <point x="795" y="1184"/>
      <point x="739" y="1224"/>
    </contour>
  </outline>
</glyph>
<glyph name="ae" format="2">
  <advance width="1513"/>
  <unicode hex="00E6"/>
  <outline>
    <contour>
      <point x="484" y="122" type="curve" smooth="yes"/>
      <point x="405" y="122"/>
      <point x="362" y="187"/>
      <point x="362" y="257" type="curve" smooth="yes"/>
      <point x="362" y="351"/>
      <point x="431" y="386"/>
      <point x="522" y="410" type="curve" smooth="yes"/>
      <point x="579" y="426"/>
      <point x="642" y="433"/>
      <point x="684" y="443" type="curve"/>
      <point x="686" y="408"/>
      <point x="687" y="373"/>
      <point x="687" y="339" type="curve" smooth="yes"/>
      <point x="687" y="229"/>
      <point x="602" y="122"/>
    </contour>
    <contour>
      <point x="1290" y="553" type="curve"/>
      <point x="930" y="553" type="line"/>
      <point x="938" y="632"/>
      <point x="983" y="764"/>
      <point x="1105" y="764" type="curve" smooth="yes"/>
      <point x="1225" y="764"/>
      <point x="1286" y="645"/>
    </contour>
    <contour>
      <point x="1178" y="121" type="curve" smooth="yes"/>
      <point x="946" y="121"/>
      <point x="926" y="364"/>
      <point x="924" y="408" type="curve"/>
      <point x="1514" y="408" type="line"/>
      <point x="1515" y="427"/>
      <point x="1515" y="456"/>
      <point x="1515" y="493" type="curve" smooth="yes"/>
      <point x="1515" y="720"/>
      <point x="1368" y="902"/>
      <point x="1122" y="902" type="curve" smooth="yes"/>
      <point x="960" y="902"/>
      <point x="862" y="823"/>
      <point x="819" y="778" type="curve"/>
      <point x="718" y="887"/>
      <point x="580" y="898"/>
      <point x="528" y="898" type="curve" smooth="yes"/>
      <point x="320" y="898"/>
      <point x="202" y="759"/>
      <point x="168" y="712" type="curve"/>
      <point x="265" y="626" type="line"/>
      <point x="306" y="710"/>
      <point x="393" y="763"/>
      <point x="483" y="763" type="curve" smooth="yes"/>
      <point x="656" y="763"/>
      <point x="677" y="608"/>
      <point x="679" y="574" type="curve"/>
      <point x="647" y="565"/>
      <point x="647" y="565"/>
      <point x="454" y="531" type="curve" smooth="yes"/>
      <point x="153" y="477"/>
      <point x="153" y="308"/>
      <point x="153" y="254" type="curve" smooth="yes"/>
      <point x="153" y="-8"/>
      <point x="417" y="-19"/>
      <point x="460" y="-19" type="curve" smooth="yes"/>
      <point x="662" y="-19"/>
      <point x="782" y="98"/>
      <point x="808" y="127" type="curve"/>
      <point x="920" y="1"/>
      <point x="1070" y="-17"/>
      <point x="1145" y="-17" type="curve" smooth="yes"/>
      <point x="1356" y="-17"/>
      <point x="1480" y="113"/>
      <point x="1519" y="161" type="curve"/>
      <point x="1460" y="281" type="line"/>
      <point x="1404" y="199"/>
      <point x="1304" y="121"/>
    </contour>
  </outline>
</glyph>
<glyph name="ccedilla" format="2">
  <advance width="957"/>
  <unicode hex="00E7"/>
  <outline>
    <contour>
      <point x="631" y="125" type="curve" smooth="yes"/>
      <point x="480" y="125"/>
      <point x="378" y="255"/>
      <point x="378" y="439" type="curve" smooth="yes"/>
      <point x="378" y="622"/>
      <point x="486" y="761"/>
      <point x="639" y="761" type="curve" smooth="yes"/>
      <point x="762" y="761"/>
      <point x="829" y="664"/>
      <point x="846" y="637" type="curve"/>
      <point x="958" y="703" type="line"/>
      <point x="883" y="849"/>
      <point x="728" y="901"/>
      <point x="606" y="901" type="curve" smooth="yes"/>
      <point x="330" y="901"/>
      <point x="150" y="695"/>
      <point x="150" y="432" type="curve" smooth="yes"/>
      <point x="150" y="174"/>
      <point x="330" y="-8"/>
      <point x="583" y="-19" type="curve"/>
      <point x="511" y="-126" type="line"/>
      <point x="550" y="-182" type="line"/>
      <point x="573" y="-156"/>
      <point x="597" y="-143"/>
      <point x="624" y="-143" type="curve" smooth="yes"/>
      <point x="629" y="-143"/>
      <point x="705" y="-144"/>
      <point x="705" y="-190" type="curve" smooth="yes"/>
      <point x="705" y="-254"/>
      <point x="636" y="-295"/>
      <point x="582" y="-295" type="curve" smooth="yes"/>
      <point x="539" y="-295"/>
      <point x="505" y="-277"/>
      <point x="481" y="-242" type="curve"/>
      <point x="375" y="-285" type="line"/>
      <point x="431" y="-383"/>
      <point x="550" y="-392"/>
      <point x="594" y="-392" type="curve" smooth="yes"/>
      <point x="735" y="-392"/>
      <point x="906" y="-310"/>
      <point x="906" y="-179" type="curve" smooth="yes"/>
      <point x="906" y="-70"/>
      <point x="766" y="-64"/>
      <point x="737" y="-64" type="curve" smooth="yes"/>
      <point x="716" y="-64"/>
      <point x="700" y="-65"/>
      <point x="689" y="-66" type="curve"/>
      <point x="727" y="-4" type="line"/>
      <point x="894" y="35"/>
      <point x="974" y="149"/>
      <point x="1004" y="204" type="curve"/>
      <point x="888" y="289" type="line"/>
      <point x="799" y="138"/>
      <point x="672" y="125"/>
    </contour>
  </outline>
</glyph>
<glyph name="eacute" format="2">
  <advance width="1017"/>
  <unicode hex="00E9"/>
  <outline>
    <contour>
      <point x="782" y="553" type="curve"/>
      <point x="403" y="553" type="line"/>
      <point x="407" y="584"/>
      <point x="434" y="764"/>
      <point x="587" y="764" type="curve" smooth="yes"/>
      <point x="709" y="764"/>
      <point x="776" y="651"/>
    </contour>
    <contour>
      <point x="664" y="121" type="curve" smooth="yes"/>
      <point x="472" y="121"/>
      <point x="403" y="278"/>
      <point x="397" y="408" type="curve"/>
      <point x="1018" y="408" type="line"/>
      <point x="1018" y="434"/>
      <point x="1019" y="468"/>
      <point x="1019" y="493" type="curve" smooth="yes"/>
      <point x="1019" y="738"/>
      <point x="847" y="902"/>
      <point x="605" y="902" type="curve" smooth="yes"/>
      <point x="337" y="902"/>
      <point x="154" y="707"/>
      <point x="154" y="446" type="curve" smooth="yes"/>
      <point x="154" y="167"/>
      <point x="361" y="-17"/>
      <point x="629" y="-17" type="curve" smooth="yes"/>
      <point x="848" y="-17"/>
      <point x="979" y="110"/>
      <point x="1023" y="161" type="curve"/>
      <point x="961" y="281" type="line"/>
      <point x="852" y="130"/>
      <point x="700" y="121"/>
    </contour>
    <contour>
      <point x="812" y="1228" type="line"/>
      <point x="771" y="1151"/>
      <point x="718" y="1077"/>
      <point x="655" y="1005" type="curve"/>
      <point x="828" y="1005" type="line"/>
      <point x="1047" y="1228" type="line"/>
    </contour>
  </outline>
</glyph>
<glyph name="ecircumflex" format="2">
  <advance width="1017"/>
  <unicode hex="00EA"/>
  <outline>
    <contour>
      <point x="782" y="553" type="curve"/>
      <point x="403" y="553" type="line"/>
      <point x="407" y="584"/>
      <point x="434" y="764"/>
      <point x="587" y="764" type="curve" smooth="yes"/>
      <point x="709" y="764"/>
      <point x="776" y="651"/>
    </contour>
    <contour>
      <point x="664" y="121" type="curve" smooth="yes"/>
      <point x="472" y="121"/>
      <point x="403" y="278"/>
      <point x="397" y="408" type="curve"/>
      <point x="1018" y="408" type="line"/>
      <point x="1018" y="434"/>
      <point x="1019" y="468"/>
      <point x="1019" y="493" type="curve" smooth="yes"/>
      <point x="1019" y="738"/>
      <point x="847" y="902"/>
      <point x="605" y="902" type="curve" smooth="yes"/>
      <point x="337" y="902"/>
      <point x="154" y="707"/>
      <point x="154" y="446" type="curve" smooth="yes"/>
      <point x="154" y="167"/>
      <point x="361" y="-17"/>
      <point x="629" y="-17" type="curve" smooth="yes"/>
      <point x="848" y="-17"/>
      <point x="979" y="110"/>
      <point x="1023" y="161" type="curve"/>
      <point x="961" y="281" type="line"/>
      <point x="852" y="130"/>
      <point x="700" y="121"/>
    </contour>
    <contour>
      <point x="890" y="1005" type="line"/>
      <point x="821" y="1056"/>
      <point x="761" y="1130"/>
      <point x="708" y="1227" type="curve"/>
      <point x="489" y="1227" type="line"/>
      <point x="430" y="1132"/>
      <point x="369" y="1058"/>
      <point x="304" y="1005" type="curve"/>
      <point x="486" y="1005" type="line"/>
      <point x="594" y="1103" type="line"/>
      <point x="700" y="1005" type="line"/>
    </contour>
  </outline>
</glyph>
